<svg width="18" height="19" viewBox="0 0 18 19" fill="none" xmlns="http://www.w3.org/2000/svg">
<path d="M1.13989 9.9C1.13989 9.74 1.18989 9.61 1.28989 9.51C1.38989 9.41 1.51989 9.36 1.67989 9.36H14.9399L11.3999 5.82C11.2799 5.7 11.2199 5.56 11.2199 5.4C11.2199 5.24 11.2799 5.11 11.3999 5.01C11.5199 4.91 11.6599 4.86 11.8199 4.86C11.9799 4.86 12.1199 4.9 12.2399 4.98L16.7399 9.48C16.8199 9.6 16.8599 9.74 16.8599 9.9C16.8599 10.06 16.8199 10.2 16.7399 10.32L12.2399 14.82C12.1199 14.9 11.9799 14.94 11.8199 14.94C11.6599 14.94 11.5199 14.89 11.3999 14.79C11.2799 14.69 11.2199 14.56 11.2199 14.4C11.2199 14.24 11.2799 14.1 11.3999 13.98L14.9399 10.44H1.67989C1.51989 10.44 1.38989 10.39 1.28989 10.29C1.18989 10.19 1.13989 10.06 1.13989 9.9Z" fill="#260426"/>
</svg>
