<svg width="19" height="19" viewBox="0 0 19 19" fill="none" xmlns="http://www.w3.org/2000/svg">
<g clip-path="url(#clip0_0_886)">
<path d="M4.90469 17.7532C4.66589 17.8328 4.45694 17.803 4.27784 17.6637C4.09874 17.5244 4.02909 17.3154 4.06889 17.0368L4.96439 11.7832L1.02419 8.02211C0.864986 7.82311 0.815236 7.60421 0.874936 7.36541C0.934636 7.12661 1.10379 6.98731 1.38239 6.94751L6.81509 6.17141L9.26279 1.33571C9.38219 1.09691 9.56129 0.977512 9.80009 0.977512C10.0389 0.977512 10.218 1.09691 10.3374 1.33571L12.7851 6.17141L18.2775 6.94751C18.5163 6.98731 18.6655 7.12661 18.7252 7.36541C18.7849 7.60421 18.7352 7.82311 18.576 8.02211L14.6358 11.7832L15.5313 17.0368C15.5711 17.3154 15.5014 17.5244 15.3223 17.6637C15.1432 17.803 14.9343 17.8328 14.6955 17.7532L9.80009 15.1861L4.90469 17.7532Z" fill="#FFC107"/>
</g>
<defs>
<clipPath id="clip0_0_886">
<rect width="17.92" height="17.91" fill="white" transform="matrix(1 0 0 -1 0.840088 18.3501)"/>
</clipPath>
</defs>
</svg>
