<svg width="19" height="19" viewBox="0 0 19 19" fill="none" xmlns="http://www.w3.org/2000/svg">
<g clip-path="url(#clip0_29_689)">
<path d="M5.00965 11.9011L5.20198 12.0847L5.1573 12.3468L4.26308 17.5929C4.25243 17.6722 4.26132 17.711 4.26564 17.724C4.26776 17.7303 4.26964 17.7333 4.27092 17.7351C4.27228 17.737 4.27591 17.7417 4.28483 17.7486C4.31224 17.7699 4.33897 17.7875 4.41429 17.7681L9.2679 15.2229L9.50011 15.1012L9.73232 15.2229L14.5859 17.7681C14.6613 17.7875 14.688 17.7699 14.7154 17.7486C14.7243 17.7417 14.7279 17.737 14.7293 17.7351C14.7306 17.7333 14.7325 17.7303 14.7346 17.724C14.7389 17.711 14.7478 17.6722 14.7371 17.5929L13.8429 12.3468L13.7982 12.0847L13.9906 11.9011L17.9023 8.16719C17.9528 8.09601 17.9586 8.04007 17.9402 7.96629C17.935 7.94561 17.9299 7.93378 17.927 7.92826C17.9224 7.92648 17.9138 7.92368 17.8999 7.92112L12.4152 7.14611L12.1568 7.10961L12.039 6.87683L9.5913 2.04114L9.5902 2.03893C9.56015 1.97885 9.53787 1.96382 9.53618 1.9627C9.53486 1.96182 9.53365 1.96113 9.53066 1.96028C9.52726 1.9593 9.5179 1.95713 9.50011 1.95713C9.48232 1.95713 9.47296 1.9593 9.46956 1.96028C9.46657 1.96113 9.46536 1.96182 9.46404 1.9627C9.46235 1.96382 9.44007 1.97885 9.41003 2.03894L9.40892 2.04113L6.96122 6.87683L6.84361 7.10917L6.58582 7.146L1.15312 7.9221C1.09864 7.92988 1.07426 7.94162 1.06671 7.94602C1.06639 7.94673 1.06601 7.94759 1.06559 7.94862C1.06417 7.95213 1.06214 7.95785 1.06003 7.96629C1.04159 8.04007 1.04745 8.09601 1.09788 8.16719L5.00965 11.9011Z" stroke="#FFC107"/>
</g>
<defs>
<clipPath id="clip0_29_689">
<rect width="17.92" height="17.91" fill="white" transform="matrix(1 0 0 -1 0.540039 18.8298)"/>
</clipPath>
</defs>
</svg>
