<svg width="18" height="19" viewBox="0 0 18 19" fill="none" xmlns="http://www.w3.org/2000/svg">
<path d="M1.14 9.94999C1.14 9.78999 1.19 9.65999 1.29 9.55999C1.39 9.45999 1.52 9.40999 1.68 9.40999H14.94L11.4 5.86999C11.28 5.74999 11.22 5.60999 11.22 5.44999C11.22 5.28999 11.28 5.15999 11.4 5.05999C11.52 4.95999 11.66 4.90999 11.82 4.90999C11.98 4.90999 12.12 4.94999 12.24 5.02999L16.74 9.52999C16.82 9.64999 16.86 9.78999 16.86 9.94999C16.86 10.11 16.82 10.25 16.74 10.37L12.24 14.87C12.12 14.95 11.98 14.99 11.82 14.99C11.66 14.99 11.52 14.94 11.4 14.84C11.28 14.74 11.22 14.61 11.22 14.45C11.22 14.29 11.28 14.15 11.4 14.03L14.94 10.49H1.68C1.52 10.49 1.39 10.44 1.29 10.34C1.19 10.24 1.14 10.11 1.14 9.94999Z" fill="#260426"/>
</svg>
