<svg width="38" height="38" viewBox="0 0 38 38" fill="none" xmlns="http://www.w3.org/2000/svg">
<g clip-path="url(#clip0_0_1127)">
<path d="M8.74 3.16655C8.40222 2.74433 8.00111 2.53322 7.53666 2.53322C7.07222 2.53322 6.62888 2.70211 6.20666 3.03989L3.8 5.44655C3.20888 6.03766 2.82888 6.71322 2.66 7.47322C2.49111 8.23322 2.53333 8.95099 2.78666 9.62655C4.89777 15.6221 8.19111 20.8577 12.6667 25.3332C17.1422 29.8088 22.3778 33.1021 28.3733 35.2132C29.0489 35.4665 29.7667 35.5088 30.5267 35.3399C31.2867 35.171 31.9622 34.791 32.5533 34.1999L34.96 31.7932C35.2978 31.371 35.4667 30.9277 35.4667 30.4632C35.4667 29.9988 35.2556 29.6399 34.8333 29.3865L29.3867 25.0799C28.9644 24.7421 28.5 24.6577 27.9933 24.8265L22.8 26.0932C22.1244 26.2621 21.4278 26.241 20.71 26.0299C19.9922 25.8188 19.38 25.4599 18.8733 24.9532L13.0467 19.1265C12.54 18.6199 12.1811 18.0077 11.97 17.2899C11.7589 16.5721 11.7378 15.8754 11.9067 15.1999L13.1733 10.0065C13.3422 9.49988 13.2578 9.03544 12.92 8.61322L8.74 3.16655ZM4.43333 1.26655C5.36222 0.337662 6.43888 -0.0845604 7.66333 -0.000114441C8.88777 0.0843277 9.88 0.633217 10.64 1.64655L14.9467 7.09322C15.3689 7.59988 15.6433 8.16988 15.77 8.80322C15.8967 9.43655 15.8756 10.0488 15.7067 10.6399L14.44 15.8332C14.2711 16.4243 14.3978 16.931 14.82 17.3532L20.6467 23.1799C21.0689 23.6021 21.5756 23.7288 22.1667 23.5599L27.36 22.2932C27.9511 22.1243 28.5633 22.1032 29.1967 22.2299C29.83 22.3565 30.4 22.631 30.9067 23.0532L36.3533 27.3599C37.3667 28.1199 37.9156 29.1121 38 30.3365C38.0844 31.561 37.6622 32.6377 36.7333 33.5665L34.3267 35.9732C33.3978 36.9021 32.3211 37.5143 31.0967 37.8099C29.8722 38.1054 28.6689 38.0421 27.4867 37.6199C21.1533 35.4243 15.6011 31.941 10.83 27.1699C6.05888 22.3988 2.57555 16.8465 0.379995 10.5132C-0.0422269 9.33099 -0.10556 8.12766 0.189995 6.90322C0.485551 5.67877 1.09777 4.60211 2.02666 3.67322L4.43333 1.26655Z" fill="#260426"/>
</g>
<defs>
<clipPath id="clip0_0_1127">
<rect width="38" height="38" fill="white" transform="matrix(1 0 0 -1 0 38)"/>
</clipPath>
</defs>
</svg>
