<svg width="38" height="39" viewBox="0 0 38 39" fill="none" xmlns="http://www.w3.org/2000/svg">
<g clip-path="url(#clip0_0_1139)">
<path d="M0 9.7501C0 8.39899 0.464444 7.25899 1.39333 6.3301C2.32222 5.40121 3.46222 4.93677 4.81333 4.93677H33.3133C34.58 4.93677 35.6778 5.40121 36.6067 6.3301C37.5356 7.25899 38 8.39899 38 9.7501V28.7501C38 30.1012 37.5356 31.2201 36.6067 32.1068C35.6778 32.9934 34.5378 33.4368 33.1867 33.4368H4.81333C3.46222 33.4368 2.32222 32.9934 1.39333 32.1068C0.464444 31.2201 0 30.1012 0 28.7501V9.7501ZM4.81333 7.34344C4.13778 7.34344 3.56778 7.57566 3.10333 8.0401C2.63889 8.50455 2.40667 9.07454 2.40667 9.7501V10.2568L19 20.2634L35.5933 10.2568V9.7501C35.5933 9.07454 35.3611 8.50455 34.8967 8.0401C34.4322 7.57566 33.9044 7.34344 33.3133 7.34344H4.81333ZM35.5933 13.0434L24.4467 19.7568L35.5933 26.5968V13.0434ZM35.5933 29.3834L22.1667 21.1501L19 23.0501L15.8333 21.1501L2.40667 29.3834C2.57556 29.8901 2.87111 30.3123 3.29333 30.6501C3.71556 30.9879 4.22222 31.1568 4.81333 31.1568H33.3133C33.82 31.1568 34.2844 30.9879 34.7067 30.6501C35.1289 30.3123 35.4244 29.8901 35.5933 29.3834ZM2.40667 26.5968L13.5533 19.7568L2.40667 13.0434V26.5968Z" fill="#260426"/>
</g>
<defs>
<clipPath id="clip0_0_1139">
<rect width="38" height="38" fill="white" transform="matrix(1 0 0 -1 0 38.25)"/>
</clipPath>
</defs>
</svg>
