<svg width="38" height="38" viewBox="0 0 38 38" fill="none" xmlns="http://www.w3.org/2000/svg">
<g clip-path="url(#clip0_11_1093)">
<path d="M8.74012 3.16667C8.40234 2.74445 8.00123 2.53334 7.53678 2.53334C7.07234 2.53334 6.62901 2.70223 6.20678 3.04001L3.80012 5.44667C3.20901 6.03778 2.82901 6.71334 2.66012 7.47334C2.49123 8.23334 2.53345 8.95112 2.78678 9.62667C4.89789 15.6222 8.19123 20.8578 12.6668 25.3333C17.1423 29.8089 22.3779 33.1022 28.3735 35.2133C29.049 35.4667 29.7668 35.5089 30.5268 35.34C31.2868 35.1711 31.9623 34.7911 32.5534 34.2L34.9601 31.7933C35.2979 31.3711 35.4668 30.9278 35.4668 30.4633C35.4668 29.9989 35.2557 29.64 34.8335 29.3867L29.3868 25.08C28.9646 24.7422 28.5001 24.6578 27.9935 24.8267L22.8001 26.0933C22.1246 26.2622 21.4279 26.2411 20.7101 26.03C19.9923 25.8189 19.3801 25.46 18.8735 24.9533L13.0468 19.1267C12.5401 18.62 12.1812 18.0078 11.9701 17.29C11.759 16.5722 11.7379 15.8756 11.9068 15.2L13.1735 10.0067C13.3423 9.50001 13.2579 9.03556 12.9201 8.61334L8.74012 3.16667ZM4.43345 1.26667C5.36234 0.337784 6.43901 -0.0844383 7.66345 7.62939e-06C8.8879 0.0844498 9.88012 0.633339 10.6401 1.64668L14.9468 7.09334C15.369 7.6 15.6435 8.17001 15.7701 8.80334C15.8968 9.43667 15.8757 10.0489 15.7068 10.64L14.4401 15.8333C14.2712 16.4244 14.3979 16.9311 14.8201 17.3533L20.6468 23.18C21.069 23.6022 21.5757 23.7289 22.1668 23.56L27.3601 22.2933C27.9512 22.1244 28.5634 22.1033 29.1968 22.23C29.8301 22.3567 30.4001 22.6311 30.9068 23.0533L36.3534 27.36C37.3668 28.12 37.9157 29.1122 38.0001 30.3367C38.0846 31.5611 37.6623 32.6378 36.7334 33.5667L34.3268 35.9733C33.3979 36.9022 32.3212 37.5144 31.0968 37.81C29.8723 38.1056 28.669 38.0422 27.4868 37.62C21.1535 35.4244 15.6012 31.9411 10.8301 27.17C6.05901 22.3989 2.57567 16.8467 0.380117 10.5133C-0.0421048 9.33112 -0.105438 8.12778 0.190117 6.90334C0.485673 5.67889 1.0979 4.60223 2.02678 3.67334L4.43345 1.26667Z" fill="#260426"/>
</g>
<defs>
<clipPath id="clip0_11_1093">
<rect width="38" height="38" fill="white" transform="matrix(1 0 0 -1 0 38)"/>
</clipPath>
</defs>
</svg>
