<svg width="42" height="43" viewBox="0 0 42 43" fill="none" xmlns="http://www.w3.org/2000/svg">
<g clip-path="url(#clip0_11_94)">
<path d="M19.74 9.99995C19.74 10.56 19.53 11.0266 19.11 11.4C18.69 11.7733 18.2233 11.96 17.71 11.96C17.1967 11.96 16.7533 11.7733 16.38 11.4C16.0067 11.0266 15.82 10.56 15.82 9.99995C15.82 9.43995 16.0067 8.97329 16.38 8.59995C16.7533 8.22662 17.1967 8.03995 17.71 8.03995C18.2233 8.03995 18.69 8.22662 19.11 8.59995C19.53 8.97329 19.74 9.43995 19.74 9.99995ZM17.36 14.06L20.86 16.44L25.76 11.54C26.04 11.3533 26.32 11.3066 26.6 11.4L28.84 12.66V18.54C28.84 18.9133 28.7233 19.24 28.49 19.52C28.2567 19.8 27.9533 19.94 27.58 19.94H14.42C14.0467 19.94 13.7433 19.8 13.51 19.52C13.2767 19.24 13.16 18.9133 13.16 18.54V17.28L15.12 15.6C16.52 14.48 17.2667 13.9666 17.36 14.06ZM13.16 25.12C13.16 24.7466 13.2767 24.4433 13.51 24.21C13.7433 23.9766 14.0467 23.86 14.42 23.86H27.58C27.9533 23.86 28.2567 23.9766 28.49 24.21C28.7233 24.4433 28.84 24.7466 28.84 25.12C28.84 25.4933 28.7233 25.7966 28.49 26.03C28.2567 26.2633 27.9533 26.4266 27.58 26.52H14.42C14.0467 26.52 13.7433 26.38 13.51 26.1C13.2767 25.82 13.16 25.4933 13.16 25.12ZM13.16 30.44C13.16 30.0666 13.2767 29.74 13.51 29.46C13.7433 29.18 14.0467 29.04 14.42 29.04H19.74C20.1133 29.04 20.4167 29.18 20.65 29.46C20.8833 29.74 21 30.0666 21 30.44C21 30.8133 20.8833 31.1166 20.65 31.35C20.4167 31.5833 20.1133 31.7 19.74 31.7H14.42C14.0467 31.7 13.7433 31.5833 13.51 31.35C13.2767 31.1166 13.16 30.8133 13.16 30.44ZM7.84 0.199951H34.16C35.56 0.199951 36.7733 0.713284 37.8 1.73995C38.8267 2.76662 39.34 4.02662 39.34 5.51995V36.88C39.34 38.3733 38.8267 39.6333 37.8 40.66C36.7733 41.6866 35.56 42.2 34.16 42.2H7.84C6.44 42.2 5.22667 41.6866 4.2 40.66C3.17333 39.6333 2.66 38.42 2.66 37.02V34.36H5.32V36.88C5.32 37.6266 5.55333 38.2566 6.02 38.77C6.48667 39.2833 7.09333 39.54 7.84 39.54H34.16C34.9067 39.54 35.5367 39.2833 36.05 38.77C36.5633 38.2566 36.82 37.6266 36.82 36.88V5.37995C36.82 4.72662 36.5633 4.14328 36.05 3.62995C35.5367 3.11662 34.9067 2.85995 34.16 2.85995H7.84C7.09333 2.85995 6.48667 3.11662 6.02 3.62995C5.55333 4.14328 5.32 4.72662 5.32 5.37995V8.03995H2.66V5.37995C2.66 3.97995 3.17333 2.76662 4.2 1.73995C5.22667 0.713284 6.44 0.199951 7.84 0.199951ZM2.66 13.36V11.96C2.66 11.5866 2.77667 11.2833 3.01 11.05C3.24333 10.8166 3.54667 10.7 3.92 10.7C4.29333 10.7 4.62 10.8166 4.9 11.05C5.18 11.2833 5.32 11.5866 5.32 11.96V13.36H6.58C6.95333 13.36 7.25667 13.4766 7.49 13.71C7.72333 13.9433 7.84 14.2466 7.84 14.62C7.84 14.9933 7.72333 15.32 7.49 15.6C7.25667 15.88 6.95333 16.02 6.58 16.02H1.26C0.886667 15.9266 0.583333 15.7633 0.35 15.53C0.116667 15.2966 0 14.9933 0 14.62C0 14.2466 0.116667 13.9433 0.35 13.71C0.583333 13.4766 0.886667 13.36 1.26 13.36H2.66ZM2.66 21.2V19.94C2.66 19.5666 2.77667 19.24 3.01 18.96C3.24333 18.68 3.54667 18.54 3.92 18.54C4.29333 18.54 4.62 18.68 4.9 18.96C5.18 19.24 5.32 19.5666 5.32 19.94V21.2H6.58C6.95333 21.2 7.25667 21.3166 7.49 21.55C7.72333 21.7833 7.84 22.0866 7.84 22.46C7.84 22.8333 7.72333 23.16 7.49 23.44C7.25667 23.72 6.95333 23.86 6.58 23.86H1.26C0.886667 23.86 0.583333 23.72 0.35 23.44C0.116667 23.16 0 22.8333 0 22.46C0 22.0866 0.116667 21.7833 0.35 21.55C0.583333 21.3166 0.886667 21.2 1.26 21.2H2.66ZM2.66 29.04V27.78C2.66 27.4066 2.77667 27.08 3.01 26.8C3.24333 26.52 3.54667 26.4033 3.92 26.45C4.29333 26.4966 4.62 26.6366 4.9 26.87C5.18 27.1033 5.32 27.4066 5.32 27.78V29.04H6.58C6.95333 29.04 7.25667 29.18 7.49 29.46C7.72333 29.74 7.84 30.0666 7.84 30.44C7.84 30.8133 7.72333 31.1166 7.49 31.35C7.25667 31.5833 6.95333 31.7 6.58 31.7H1.26C0.886667 31.7 0.583333 31.5833 0.35 31.35C0.116667 31.1166 0 30.8133 0 30.44C0 30.0666 0.116667 29.74 0.35 29.46C0.583333 29.18 0.886667 29.04 1.26 29.04H2.66Z" fill="#1E1E1E"/>
</g>
<defs>
<clipPath id="clip0_11_94">
<rect width="42" height="42" fill="white" transform="matrix(1 0 0 -1 0 42.2)"/>
</clipPath>
</defs>
</svg>
