<svg width="16" height="16" viewBox="0 0 16 16" fill="none" xmlns="http://www.w3.org/2000/svg">
<path d="M14.3467 4.63998C14.4533 4.74665 14.5067 4.87109 14.5067 5.01331C14.5067 5.15554 14.4533 5.2622 14.3467 5.33331L8.37333 11.36C8.26667 11.4666 8.14222 11.52 8 11.52C7.85778 11.52 7.73333 11.4666 7.62667 11.36L1.65333 5.33331C1.54667 5.2622 1.49333 5.15554 1.49333 5.01331C1.49333 4.87109 1.54667 4.74665 1.65333 4.63998C1.76 4.53331 1.87555 4.47998 2 4.47998C2.12444 4.47998 2.24 4.53331 2.34667 4.63998L8 10.2933L13.6533 4.63998C13.76 4.53331 13.8756 4.47998 14 4.47998C14.1244 4.47998 14.24 4.53331 14.3467 4.63998Z" fill="white"/>
</svg>
