<svg width="16" height="16" viewBox="0 0 16 16" fill="none" xmlns="http://www.w3.org/2000/svg">
<g clip-path="url(#clip0_0_1295)">
<path d="M0 1.12049C0 0.836043 0.115556 0.578266 0.346667 0.347155C0.577778 0.116043 0.853333 0.000488281 1.17333 0.000488281H14.8267C15.1467 0.000488281 15.4222 0.116043 15.6533 0.347155C15.8844 0.578266 16 0.836043 16 1.12049V14.8805C16 15.1649 15.8844 15.4227 15.6533 15.6538C15.4222 15.8849 15.1467 16.0005 14.8267 16.0005H1.17333C0.853333 16.0005 0.577778 15.8849 0.346667 15.6538C0.115556 15.4227 0 15.1649 0 14.8805V1.12049ZM4.96 13.3872V6.18715H2.56V13.3872H4.96ZM3.73333 5.17382C4.16 5.17382 4.49778 5.05827 4.74667 4.82716C4.99556 4.59604 5.11111 4.30271 5.09333 3.94715C5.07556 3.5916 4.95111 3.28938 4.72 3.04049C4.48889 2.7916 4.16889 2.66715 3.76 2.66715C3.35111 2.66715 3.02222 2.7916 2.77333 3.04049C2.52444 3.28938 2.4 3.5916 2.4 3.94715C2.4 4.30271 2.52444 4.59604 2.77333 4.82716C3.02222 5.05827 3.34222 5.17382 3.73333 5.17382ZM8.64 13.3872V9.33382C8.64 9.08493 8.67556 8.88938 8.74667 8.74715C8.81778 8.53382 8.96 8.33827 9.17333 8.16049C9.38667 7.98271 9.65333 7.89382 9.97333 7.89382C10.4 7.89382 10.7111 8.03604 10.9067 8.32049C11.1022 8.60493 11.2 9.01382 11.2 9.54715V13.3872H13.6V9.22715C13.6 8.16049 13.3422 7.3516 12.8267 6.80049C12.3111 6.24938 11.6444 5.97382 10.8267 5.97382C10.2578 5.97382 9.77778 6.11604 9.38667 6.40049C9.10222 6.57827 8.85333 6.84493 8.64 7.20049V6.18715H6.24C6.27556 6.4716 6.27556 7.7516 6.24 10.0272V13.3872H8.64Z" fill="#260426"/>
</g>
<defs>
<clipPath id="clip0_0_1295">
<rect width="16" height="16" fill="white" transform="matrix(1 0 0 -1 0 16.0005)"/>
</clipPath>
</defs>
</svg>
