<svg width="56" height="56" viewBox="0 0 56 56" fill="none" xmlns="http://www.w3.org/2000/svg">
<g clip-path="url(#clip0_11_242)">
<path d="M1.79832 7.02622C1.61365 7.04849 1.45116 7.13012 1.33298 7.25628C1.21479 7.37502 1.14093 7.52344 1.11138 7.69413C1.05229 8.10229 -0.299429 17.7349 8.27622 25.542C8.60123 25.8388 9.10351 25.8017 9.39897 25.49C9.69442 25.1635 9.66487 24.6589 9.34726 24.362C2.63298 18.247 2.50742 10.7516 2.63299 8.55498C4.32448 8.48819 9.08134 8.65146 14.0524 11.9093C14.0967 11.9464 14.1411 11.9687 14.1854 11.9984C16.0541 13.2451 17.9525 14.9372 19.7252 17.2229C18.8758 16.9335 17.9746 16.6886 17.0218 16.4733C16.7854 16.4214 16.5416 16.4733 16.357 16.6292C16.3348 16.6515 16.3127 16.6663 16.2905 16.6886C16.1428 16.837 16.0615 17.0299 16.0615 17.2451C16.0394 20.1023 16.4235 22.6329 17.2138 24.785C11.6962 26.0244 6.42962 28.132 1.54718 31.093C1.48809 31.1301 1.43638 31.1672 1.39206 31.2192C1.39206 31.2192 1.39206 31.2266 1.38468 31.2266C1.37729 31.2266 1.38468 31.2266 1.37729 31.234C1.37729 31.234 1.37729 31.2489 1.36252 31.2563C1.30343 31.3231 1.25911 31.3973 1.22957 31.4789C1.22218 31.5012 1.21478 31.5309 1.2074 31.5531C1.18524 31.6199 1.17786 31.6867 1.17786 31.7535C1.17786 31.7832 1.17786 31.8129 1.17786 31.8426C1.17786 31.9093 1.20002 31.9687 1.22217 32.0355C1.23695 32.0652 1.24434 32.0949 1.25911 32.1246C1.2665 32.1394 1.26649 32.1617 1.28127 32.1765C1.30343 32.2136 1.33297 32.2359 1.36252 32.2656C1.38468 32.2952 1.39945 32.3249 1.42161 32.3472C4.08073 34.8184 7.02792 36.8815 10.1819 38.5216C10.0711 38.5216 9.96771 38.5513 9.8643 38.6032C9.76089 38.6552 7.32338 39.9168 5.12961 41.6607C5.10745 41.683 5.0779 41.7053 5.05574 41.7275C4.93017 41.8611 4.84892 42.0318 4.82676 42.2173C4.8046 42.4325 4.87847 42.6552 5.0262 42.8184C5.23302 43.0559 10.1967 48.4585 23.4775 46.9817C24.6593 49.0819 26.3287 51.2192 28.4707 53.3416C28.781 53.6459 29.2833 53.6459 29.5861 53.3416L29.6526 53.2748C31.7577 51.1375 33.3901 48.9854 34.5498 46.8778C47.8454 48.221 52.7426 42.8184 52.942 42.5735C53.0897 42.4103 53.1562 42.1876 53.1341 41.9724C53.1119 41.7572 53.0011 41.5568 52.8312 41.4158C50.6153 39.7015 48.1704 38.4622 48.067 38.4103C47.6755 38.2099 47.2027 38.3732 47.0033 38.7665C46.8039 39.1598 46.9664 39.6348 47.3579 39.8351C47.38 39.8426 49.2193 40.7776 51.088 42.106C49.463 43.3676 44.6987 46.1431 35.3254 45.3416C35.7981 44.2804 36.1379 43.2118 36.3595 42.1654C43.6351 40.696 50.3346 37.2155 55.7636 32.0726C55.7932 32.0429 55.808 32.0132 55.8301 31.9836C55.8523 31.9539 55.8818 31.9316 55.904 31.9019C55.9114 31.8871 55.9114 31.8722 55.9188 31.8574C55.9409 31.8054 55.9557 31.7535 55.9704 31.7015C55.9852 31.657 56 31.6125 56 31.5605C56 31.5086 56 31.4567 55.9926 31.4047C55.9926 31.3528 55.9852 31.3082 55.9704 31.2563C55.9557 31.2118 55.9335 31.1672 55.904 31.1227C55.8818 31.0708 55.8523 31.0262 55.8153 30.9817C55.808 30.9669 55.8006 30.952 55.7932 30.9446C55.7636 30.9149 55.7341 30.9001 55.7045 30.8778C55.675 30.8555 55.6528 30.8259 55.6233 30.8036C50.7704 27.9242 45.526 25.8759 40.0158 24.6811C40.8135 22.3583 41.1089 19.6273 40.9095 16.5327C40.8947 16.2952 40.7692 16.0726 40.5771 15.9316C40.3777 15.7906 40.1339 15.7535 39.9049 15.8203C39.2993 15.991 38.7231 16.1839 38.1544 16.3843C39.7646 14.2396 41.4413 12.644 43.0885 11.4641C43.1328 11.4418 43.1698 11.4047 43.2141 11.375C47.9488 8.02808 52.3659 8.08745 53.917 8.23587C54.0721 10.3583 54.0647 17.9427 47.3726 24.1542C47.055 24.4585 47.0329 24.9557 47.3283 25.2823C47.6238 25.6088 48.1261 25.6236 48.4511 25.3268C56.9307 17.4158 55.4903 7.81287 55.4239 7.4047C55.3722 7.07817 55.121 6.81843 54.796 6.75164C54.7221 6.7368 49.9874 5.89079 44.4624 8.8073C44.9203 7.21175 45.2749 4.77762 44.9425 1.28968C44.9056 0.881513 44.5658 0.577245 44.1669 0.569824C43.9306 0.569824 38.7231 0.569825 33.2202 6.15795C33.0503 6.33606 32.8731 6.53643 32.6958 6.72938C31.7429 5.46778 30.6276 4.18392 29.335 2.91491C29.0247 2.61064 28.5225 2.61064 28.2196 2.91491L28.1236 3.01138C26.8827 4.27298 25.7969 5.54942 24.8736 6.81101C19.1269 0.74051 13.72 0.725668 13.4837 0.733089C13.2695 0.733089 13.07 0.829564 12.9297 0.970566C12.8041 1.09673 12.7229 1.26741 12.7007 1.46036C12.3831 5.27483 12.7376 7.92418 13.1439 9.5791C7.1978 6.43995 1.90172 7.01138 1.82047 7.02622H1.79832ZM25.7008 20.5401C26.2105 18.5216 27.252 16.4362 28.8179 14.3212C30.2656 16.2285 31.285 18.1283 31.8537 19.9836C31.8316 20.0058 31.8168 20.0281 31.7946 20.0429C31.6617 20.1691 31.5287 20.2952 31.4032 20.4214C31.3662 20.4585 31.3219 20.4882 31.285 20.5253C31.2554 20.555 31.2259 20.5921 31.1963 20.6218C31.1151 20.7034 31.0338 20.7925 30.96 20.8815C30.9009 20.9483 30.8418 21.0077 30.7827 21.0745C30.731 21.1338 30.6793 21.1932 30.6276 21.2526C30.4577 21.4529 30.2952 21.6533 30.1401 21.8611C30.1105 21.9056 30.081 21.9427 30.0514 21.9873C29.9997 22.0615 29.9554 22.1283 29.9037 22.2025C29.8299 22.3138 29.7486 22.4251 29.6747 22.5364C29.6083 22.6403 29.5492 22.7368 29.4901 22.8407C29.431 22.9446 29.3645 23.0411 29.3054 23.145C29.2833 23.1895 29.2537 23.234 29.2315 23.2785C29.1798 23.3676 29.1355 23.4567 29.0912 23.5457C29.01 23.6941 28.9361 23.85 28.8696 24.0058C28.8253 24.0949 28.781 24.1913 28.744 24.2804C28.7293 24.3249 28.7071 24.362 28.685 24.4066C28.6554 24.3472 28.6185 24.2952 28.5889 24.2359C28.4707 23.9984 28.3452 23.7758 28.2122 23.5457C28.1605 23.4641 28.1162 23.375 28.0645 23.2934C28.0423 23.2637 28.0276 23.2266 28.0054 23.1969C27.7912 22.863 27.5622 22.5439 27.3111 22.2247C27.252 22.1431 27.1855 22.0689 27.119 21.9947C26.9713 21.8166 26.8236 21.6459 26.6685 21.4752C26.602 21.4084 26.5355 21.3342 26.469 21.2674C26.3952 21.1932 26.3213 21.1116 26.24 21.0374C26.1071 20.9112 25.9741 20.785 25.8412 20.6589C25.7895 20.6143 25.7525 20.5698 25.7008 20.5253V20.5401ZM39.3731 26.1802C44.4698 27.2563 49.3301 29.0967 53.8579 31.6496C48.9386 36.0578 43.0073 39.093 36.5958 40.4882C36.8544 37.4233 36.0197 34.4325 34.1657 31.7238C36.4555 30.4696 38.2282 28.5772 39.3731 26.1728V26.1802ZM17.6422 18.2767C19.0604 18.6477 20.3531 19.1153 21.4832 19.6644C21.498 19.6644 21.5644 19.7016 21.5792 19.709C22.6133 20.221 23.5366 20.8073 24.3196 21.4529C24.5485 21.6385 24.7628 21.8314 24.977 22.0318C25.0434 22.0986 25.1025 22.1654 25.169 22.2322C25.3093 22.3657 25.4423 22.5067 25.5753 22.6477C25.6491 22.7294 25.7156 22.811 25.7821 22.8926C25.8929 23.0262 26.0111 23.1524 26.1145 23.2934C26.1883 23.3824 26.2474 23.4789 26.3213 23.5754C26.4173 23.709 26.5133 23.8351 26.602 23.9761C26.6685 24.08 26.7275 24.1839 26.7866 24.2804C26.8679 24.414 26.9491 24.5476 27.0304 24.6886C27.0895 24.7999 27.1412 24.9112 27.1929 25.0151C27.2594 25.1561 27.3332 25.2897 27.3997 25.4307C27.4514 25.542 27.4957 25.6607 27.5401 25.7795C27.5991 25.9205 27.6582 26.0689 27.7099 26.2099C27.7543 26.3286 27.7838 26.4474 27.8281 26.5735C27.8651 26.6997 27.902 26.8184 27.9389 26.9446C27.9094 27.0856 27.8872 27.2266 27.8651 27.3602C27.8577 27.3676 27.8429 27.375 27.8355 27.3824C27.7616 27.4344 27.6878 27.4938 27.6065 27.5605C27.577 27.5828 27.5548 27.5977 27.5253 27.6199C27.4145 27.7015 27.3037 27.798 27.1855 27.8945C26.7571 28.2433 26.3065 28.644 25.8633 29.0893L25.7304 29.2229C25.4497 29.5049 25.1912 29.7943 24.94 30.0837C24.8662 30.1728 24.7923 30.2544 24.7184 30.3435C24.6298 30.4474 24.5338 30.5513 24.4525 30.6552C22.0076 29.542 20.1905 27.6867 19.0457 25.1264C19.0383 25.0893 19.0235 25.0596 19.0087 25.0225C18.1814 23.1375 17.7235 20.8667 17.6496 18.2618L17.6422 18.2767ZM21.3354 40.7182C14.6433 39.4715 8.44611 36.4511 3.29038 31.9242C7.84781 29.2897 12.7302 27.3973 17.8417 26.2841C19.1047 28.8296 21.0474 30.7813 23.5218 31.9836C21.7565 34.6997 21.0104 37.683 21.3354 40.7182ZM6.85803 42.3509C8.71203 41.0077 10.5512 40.0503 10.5734 40.0429C10.9649 39.8425 11.12 39.3602 10.9132 38.9743C10.8984 38.9446 10.8689 38.9223 10.8467 38.8926C14.2297 40.5624 17.849 41.7424 21.6161 42.388C21.8451 43.4047 22.1923 44.4362 22.6724 45.4752C13.2916 46.3732 8.49782 43.6051 6.85803 42.3583V42.3509ZM24.5855 45.772C24.5855 45.772 24.5855 45.7572 24.5781 45.7498C23.8173 44.3175 23.3076 42.9001 23.0491 41.542C22.4065 38.2173 23.1821 35.0485 25.3463 32.1171C25.7821 31.5234 26.2844 30.9297 26.8531 30.3583L26.9787 30.2322C27.3849 29.824 27.7912 29.4604 28.1901 29.1413C28.3156 29.0374 28.4264 28.9483 28.5372 28.8667C28.5668 28.8444 28.5963 28.8221 28.6259 28.7999C28.7145 28.7331 28.7958 28.6663 28.8696 28.6143C28.877 28.6143 28.8918 28.5995 28.8992 28.5921C28.973 28.644 29.0469 28.696 29.1355 28.7628C29.1577 28.7776 29.1725 28.7925 29.1946 28.8073C29.3202 28.9038 29.4679 29.0151 29.623 29.1413C30.0145 29.4529 30.4429 29.8314 30.8492 30.2247C31.3958 30.7516 31.9128 31.3305 32.3856 31.939C32.3856 31.9464 32.4003 31.9539 32.4077 31.9613C34.6458 34.8704 35.4952 38.0392 34.9191 41.3713C34.6827 42.7813 34.1805 44.2285 33.427 45.6756C32.4151 47.6348 30.9452 49.6385 29.0321 51.657C27.1116 49.6756 25.627 47.7015 24.6076 45.7795L24.5855 45.772ZM38.1987 24.9631C37.1794 27.3973 35.4805 29.26 33.2128 30.4474C33.1242 30.3435 33.0282 30.2396 32.9322 30.1357C32.8583 30.0466 32.7844 29.965 32.7032 29.8759C32.452 29.6014 32.1935 29.3268 31.9276 29.067C31.477 28.6292 31.0265 28.2359 30.5907 27.8797C30.4282 27.7535 30.2878 27.6422 30.1549 27.5383C30.1327 27.5234 30.1105 27.5086 30.0958 27.4938C29.9702 27.4047 29.8594 27.3231 29.7634 27.2489C29.7412 27.234 29.719 27.2192 29.7043 27.2043C29.6821 27.1895 29.6526 27.1672 29.6304 27.1524C29.6083 27.0633 29.5935 26.9817 29.5713 26.8926C29.6009 26.7442 29.6378 26.6032 29.6747 26.4622C29.7043 26.3435 29.7338 26.2173 29.7708 26.0986C29.8299 25.8908 29.9037 25.683 29.9776 25.4826C30.0071 25.4084 30.0293 25.3342 30.0514 25.2674C30.1549 25.0003 30.273 24.7331 30.3986 24.4733C31.0043 23.234 31.8685 22.1208 32.9543 21.1413C33.0577 21.0448 33.1537 20.9483 33.2645 20.8592C34.0992 20.1468 35.1111 19.4863 36.2708 18.8926C36.2856 18.8926 36.293 18.8778 36.3078 18.8778C37.2384 18.4177 38.2578 18.0095 39.351 17.6533C39.4322 20.4734 39.0481 22.9223 38.1987 24.9557V24.9631ZM43.4061 2.23216C43.7828 7.84997 42.2095 10.1134 42.1135 10.247C41.1237 10.952 40.1265 11.7832 39.1368 12.785C38.2873 13.6459 37.4526 14.6403 36.6401 15.7461C36.3447 13.2229 35.318 10.6403 33.6043 8.05034C37.7259 3.48634 41.8033 2.4548 43.4061 2.22474V2.23216ZM31.9498 8.43624C34.1657 11.6125 35.2367 14.722 35.1481 17.6978C35.0447 17.7498 34.956 17.8092 34.86 17.8611C34.7418 17.9279 34.6237 17.9947 34.5129 18.0615C34.343 18.1654 34.1731 18.2693 34.0106 18.3732C33.9072 18.44 33.8038 18.5067 33.7003 18.5735C33.5231 18.6923 33.3606 18.811 33.1907 18.9297C33.1907 18.9297 33.1833 18.9298 33.1759 18.9372C32.4299 16.8221 31.1742 14.67 29.431 12.5327C29.2759 12.3472 29.0543 12.2433 28.8105 12.2433C28.5963 12.2433 28.3969 12.3323 28.2491 12.4808C28.227 12.503 28.2122 12.5179 28.1974 12.5401C26.3213 14.8852 25.036 17.2229 24.3491 19.5086C24.2235 19.4195 24.0906 19.3305 23.9576 19.2414C23.8542 19.1746 23.7508 19.1153 23.6474 19.0485C23.4997 18.9594 23.3593 18.8704 23.2116 18.7887C23.1082 18.7294 22.9974 18.67 22.8866 18.6106C22.7758 18.5513 22.6724 18.4919 22.5616 18.4325C22.244 15.2711 23.2559 11.939 25.5826 8.5253C26.4542 7.24144 27.5253 5.9279 28.7662 4.62919C30.0145 5.91305 31.0855 7.18949 31.9571 8.44367L31.9498 8.43624ZM14.2002 2.39543C15.7882 2.62548 19.7843 3.65702 23.9281 8.15424C22.1627 10.8852 21.1656 13.6014 20.9587 16.2433C19.1269 13.8908 17.1473 12.132 15.1899 10.811C14.9388 10.2618 13.8825 7.61992 14.2002 2.38801V2.39543Z" fill="#260426"/>
</g>
<defs>
<clipPath id="clip0_11_242">
<rect width="55" height="55" fill="white" transform="matrix(1 0 0 -1 0.5 55.3799)"/>
</clipPath>
</defs>
</svg>
