<svg width="12" height="13" viewBox="0 0 12 13" fill="none" xmlns="http://www.w3.org/2000/svg">
<path d="M1.24012 3.70865C1.32012 3.62865 1.40678 3.58865 1.50012 3.58865C1.59345 3.58865 1.68012 3.62865 1.76012 3.70865L6.00012 7.94865L10.2401 3.70865C10.3201 3.62865 10.4068 3.58865 10.5001 3.58865C10.5935 3.58865 10.6801 3.62865 10.7601 3.70865C10.8401 3.78865 10.8801 3.88199 10.8801 3.98865C10.8801 4.09532 10.8401 4.17532 10.7601 4.22865L6.28012 8.74865C6.20012 8.82865 6.10678 8.86865 6.00012 8.86865C5.89345 8.86865 5.80012 8.82865 5.72012 8.74865L1.24012 4.22865C1.16012 4.17532 1.12012 4.09532 1.12012 3.98865C1.12012 3.88199 1.16012 3.78865 1.24012 3.70865Z" fill="white"/>
</svg>
