<svg width="16" height="16" viewBox="0 0 16 16" fill="none" xmlns="http://www.w3.org/2000/svg">
<g clip-path="url(#clip0_11_1255)">
<path d="M8 -0.00012207C6.50667 -0.00012207 5.39556 0.0176554 4.66667 0.0532112C3.93778 0.0887661 3.30667 0.213211 2.77333 0.426544C2.24 0.639877 1.76889 0.950989 1.36 1.35988C0.951111 1.76877 0.64 2.23988 0.426667 2.77321C0.213333 3.30654 0.0888889 3.93766 0.0533333 4.66654C0.0177778 5.39543 0 6.50654 0 7.99988C0 9.49321 0.0177778 10.6043 0.0533333 11.3332C0.0888889 12.0621 0.213333 12.6932 0.426667 13.2265C0.64 13.7599 0.951111 14.231 1.36 14.6399C1.76889 15.0488 2.24 15.3599 2.77333 15.5732C3.30667 15.7865 3.93778 15.911 4.66667 15.9465C5.39556 15.9821 6.50667 15.9999 8 15.9999C9.49333 15.9999 10.6044 15.9821 11.3333 15.9465C12.0622 15.911 12.6933 15.7865 13.2267 15.5732C13.76 15.3599 14.2311 15.0488 14.64 14.6399C15.0489 14.231 15.36 13.7599 15.5733 13.2265C15.7867 12.6932 15.9111 12.0621 15.9467 11.3332C15.9822 10.6043 16 9.49321 16 7.99988C16 6.50654 15.9822 5.39543 15.9467 4.66654C15.9111 3.93766 15.7867 3.30654 15.5733 2.77321C15.36 2.23988 15.0489 1.76877 14.64 1.35988C14.2311 0.950989 13.76 0.639877 13.2267 0.426544C12.6933 0.213211 12.0622 0.0887661 11.3333 0.0532112C10.6044 0.0176554 9.49333 -0.00012207 8 -0.00012207ZM7.30667 1.43988H8C9.49333 1.43988 10.5778 1.45765 11.2533 1.49321C11.8222 1.52877 12.2933 1.61766 12.6667 1.75988C13.04 1.9021 13.36 2.10654 13.6267 2.37321C13.8933 2.63988 14.0978 2.95988 14.24 3.33321C14.3822 3.70654 14.4711 4.17766 14.5067 4.74654C14.5422 5.4221 14.56 6.50654 14.56 7.99988C14.56 9.49321 14.5422 10.5777 14.5067 11.2532C14.4711 11.8221 14.3822 12.2932 14.24 12.6665C14.0978 13.0399 13.8933 13.3599 13.6267 13.6265C13.36 13.8932 13.04 14.0977 12.6667 14.2399C12.2933 14.3821 11.8222 14.471 11.2533 14.5065C10.5422 14.5421 9.45778 14.5599 8 14.5599C6.54222 14.5599 5.45778 14.5421 4.74667 14.5065C4.17778 14.471 3.70667 14.3821 3.33333 14.2399C2.96 14.0977 2.64 13.8932 2.37333 13.6265C2.10667 13.3599 1.90222 13.0399 1.76 12.6665C1.61778 12.2932 1.52889 11.8221 1.49333 11.2532C1.45778 10.5421 1.44 9.44877 1.44 7.97321C1.44 6.49766 1.45778 5.4221 1.49333 4.74654C1.52889 4.17766 1.61778 3.70654 1.76 3.33321C1.90222 2.95988 2.10667 2.63988 2.37333 2.37321C2.64 2.10654 2.96 1.9021 3.33333 1.75988C3.70667 1.61766 4.19556 1.52877 4.8 1.49321C5.40444 1.45765 6.24 1.43988 7.30667 1.43988ZM12.2667 2.77321C12.0178 2.77321 11.7956 2.8621 11.6 3.03988C11.4044 3.21766 11.3067 3.43988 11.3067 3.70654C11.3067 3.97321 11.4044 4.20432 11.6 4.39988C11.7956 4.59543 12.0267 4.69321 12.2933 4.69321C12.56 4.69321 12.7822 4.59543 12.96 4.39988C13.1378 4.20432 13.2267 3.97321 13.2267 3.70654C13.2267 3.43988 13.1378 3.21766 12.96 3.03988C12.7822 2.8621 12.5511 2.77321 12.2667 2.77321ZM8 3.89321C7.25333 3.89321 6.56 4.07099 5.92 4.42654C5.28 4.7821 4.77333 5.27988 4.4 5.91988C4.02667 6.55988 3.84 7.25321 3.84 7.99988C3.84 8.74654 4.02667 9.43988 4.4 10.0799C4.77333 10.7199 5.28 11.2177 5.92 11.5732C6.56 11.9288 7.25333 12.1065 8 12.1065C8.74667 12.1065 9.43111 11.9199 10.0533 11.5465C10.6756 11.1732 11.1644 10.6754 11.52 10.0532C11.8756 9.43099 12.0533 8.74654 12.0533 7.99988C12.0533 7.25321 11.8756 6.56877 11.52 5.94654C11.1644 5.32432 10.6756 4.82654 10.0533 4.45321C9.43111 4.07988 8.74667 3.89321 8 3.89321ZM8 5.33321C8.46222 5.33321 8.90667 5.44877 9.33333 5.67988C9.76 5.91099 10.0889 6.23988 10.32 6.66654C10.5511 7.09321 10.6667 7.53766 10.6667 7.99988C10.6667 8.4621 10.5511 8.90654 10.32 9.33321C10.0889 9.75988 9.76 10.0888 9.33333 10.3199C8.90667 10.551 8.46222 10.6665 8 10.6665C7.25333 10.6665 6.62222 10.4088 6.10667 9.89321C5.59111 9.37766 5.33333 8.74654 5.33333 7.99988C5.33333 7.25321 5.59111 6.6221 6.10667 6.10654C6.62222 5.59099 7.25333 5.33321 8 5.33321Z" fill="#260426"/>
</g>
<defs>
<clipPath id="clip0_11_1255">
<rect width="16" height="16" fill="white" transform="matrix(1 0 0 -1 0 15.9999)"/>
</clipPath>
</defs>
</svg>
