<svg width="19" height="19" viewBox="0 0 19 19" fill="none" xmlns="http://www.w3.org/2000/svg">
<g clip-path="url(#clip0_0_898)">
<path d="M4.26195 17.7532C4.02302 17.8328 3.81395 17.803 3.63475 17.6637C3.45555 17.5244 3.38586 17.3154 3.42569 17.0368L4.32169 11.7832L0.379286 8.02211C0.219997 7.82311 0.170219 7.60421 0.229952 7.36541C0.289686 7.12661 0.45893 6.98731 0.737686 6.94751L6.17342 6.17141L8.62249 1.33571C8.74195 1.09691 8.92115 0.977512 9.16009 0.977512C9.39902 0.977512 9.57822 1.09691 9.69769 1.33571L12.1468 6.17141L17.6422 6.94751C17.8812 6.98731 18.0305 7.12661 18.0902 7.36541C18.15 7.60421 18.1002 7.82311 17.9409 8.02211L13.9985 11.7832L14.8945 17.0368C14.9343 17.3154 14.8646 17.5244 14.6854 17.6637C14.5062 17.803 14.2972 17.8328 14.0582 17.7532L9.16009 15.1861L4.26195 17.7532Z" fill="#FFC107"/>
</g>
<defs>
<clipPath id="clip0_0_898">
<rect width="17.92" height="17.91" fill="white" transform="matrix(1 0 0 -1 0.200089 18.3501)"/>
</clipPath>
</defs>
</svg>
