<svg width="42" height="43" viewBox="0 0 42 43" fill="none" xmlns="http://www.w3.org/2000/svg">
<g clip-path="url(#clip0_0_117)">
<path d="M21 39.5402C17.64 39.5402 14.56 38.7235 11.76 37.0902C8.96 35.4569 6.74333 33.2402 5.11 30.4402C3.47667 27.6402 2.66 24.5602 2.66 21.2002C2.66 17.8402 3.47667 14.7602 5.11 11.9602C6.74333 9.16019 8.96 6.94353 11.76 5.3102C14.56 3.67686 17.64 2.8602 21 2.8602C24.36 2.8602 27.44 3.67686 30.24 5.3102C33.04 6.94353 35.2567 9.16019 36.89 11.9602C38.5233 14.7602 39.34 17.8402 39.34 21.2002C39.34 24.5602 38.5233 27.6402 36.89 30.4402C35.2567 33.2402 33.04 35.4569 30.24 37.0902C27.44 38.7235 24.36 39.5402 21 39.5402ZM21 42.2002C24.8267 42.2002 28.35 41.2669 31.57 39.4002C34.79 37.5335 37.3333 34.9902 39.2 31.7702C41.0667 28.5502 42 25.0269 42 21.2002C42 17.3735 41.0667 13.8502 39.2 10.6302C37.3333 7.41019 34.79 4.86686 31.57 3.00019C28.35 1.13353 24.8267 0.200195 21 0.200195C17.1733 0.200195 13.65 1.13353 10.43 3.00019C7.21 4.86686 4.66667 7.41019 2.8 10.6302C0.933333 13.8502 0 17.3735 0 21.2002C0 25.0269 0.933333 28.5502 2.8 31.7702C4.66667 34.9902 7.21 37.5335 10.43 39.4002C13.65 41.2669 17.1733 42.2002 21 42.2002ZM11.2 25.2602C11.5733 25.0735 11.9233 25.0269 12.25 25.1202C12.5767 25.2135 12.8333 25.4469 13.02 25.8202C13.86 27.2202 14.98 28.3402 16.38 29.1802C17.78 30.0202 19.32 30.4402 21 30.4402C22.68 30.4402 24.22 30.0202 25.62 29.1802C27.02 28.3402 28.14 27.2202 28.98 25.8202C29.26 25.3535 29.6333 25.1202 30.1 25.1202C30.5667 25.1202 30.94 25.3302 31.22 25.7502C31.5 26.1702 31.5 26.6135 31.22 27.0802C30.1933 28.9469 28.77 30.3935 26.95 31.4202C25.13 32.4469 23.1467 32.9602 21 32.9602C18.8533 32.9602 16.87 32.4469 15.05 31.4202C13.23 30.3935 11.8067 28.9469 10.78 27.0802C10.5933 26.8002 10.5467 26.4735 10.64 26.1002C10.7333 25.7269 10.92 25.4469 11.2 25.2602ZM18.34 17.2802C18.34 18.4002 18.0833 19.3335 17.57 20.0802C17.0567 20.8269 16.45 21.2002 15.75 21.2002C15.05 21.2002 14.4433 20.8269 13.93 20.0802C13.4167 19.3335 13.16 18.4002 13.16 17.2802C13.16 16.1602 13.4167 15.2269 13.93 14.4802C14.4433 13.7335 15.05 13.3602 15.75 13.3602C16.45 13.3602 17.0567 13.7335 17.57 14.4802C18.0833 15.2269 18.34 16.1602 18.34 17.2802ZM28.84 17.2802C28.84 18.4002 28.5833 19.3335 28.07 20.0802C27.5567 20.8269 26.95 21.2002 26.25 21.2002C25.55 21.2002 24.9433 20.8269 24.43 20.0802C23.9167 19.3335 23.66 18.4002 23.66 17.2802C23.66 16.1602 23.9167 15.2269 24.43 14.4802C24.9433 13.7335 25.55 13.3602 26.25 13.3602C26.95 13.3602 27.5567 13.7335 28.07 14.4802C28.5833 15.2269 28.84 16.1602 28.84 17.2802Z" fill="#1E1E1E"/>
</g>
<defs>
<clipPath id="clip0_0_117">
<rect width="42" height="42" fill="white" transform="matrix(1 0 0 -1 0 42.2002)"/>
</clipPath>
</defs>
</svg>
