<svg width="56" height="56" viewBox="0 0 56 56" fill="none" xmlns="http://www.w3.org/2000/svg">
<path d="M28.1642 1.09351C13.0888 1.09351 0.828369 13.3636 0.828369 28.4427C0.828369 43.5219 13.0888 55.8001 28.1642 55.8001C43.2396 55.8001 55.5 43.53 55.5 28.4427C55.5 13.3555 43.2315 1.09351 28.1642 1.09351ZM2.52059 28.4427C2.52059 17.5161 9.37895 8.16897 19.0116 4.47247C18.8977 4.57017 18.8001 4.67602 18.6943 4.77372C18.4828 4.96913 18.2631 5.16454 18.0597 5.37624C17.9214 5.51465 17.7912 5.66935 17.6611 5.81591C17.4739 6.02761 17.295 6.23116 17.116 6.45099C16.9858 6.61383 16.8719 6.77668 16.7499 6.93952C16.5872 7.15935 16.4326 7.38733 16.2861 7.61531C16.1722 7.78629 16.0665 7.96542 15.9607 8.14454C15.8224 8.38066 15.6922 8.62493 15.5702 8.86919C15.4807 9.05646 15.3831 9.23558 15.3017 9.43099C15.1878 9.6834 15.0821 9.95209 14.9844 10.2126C14.9112 10.3999 14.838 10.5953 14.7729 10.7826C14.6834 11.0594 14.602 11.3444 14.5288 11.6375C14.48 11.8248 14.4231 12.012 14.3824 12.1993C14.3092 12.5168 14.2604 12.8507 14.2197 13.1763C14.1953 13.3392 14.1627 13.502 14.1465 13.6649C14.0895 14.1615 14.0651 14.6663 14.0651 15.1793C14.0651 22.955 20.3865 29.2814 28.1561 29.2814C34.99 29.2814 40.5467 34.8424 40.5467 41.6818C40.5467 48.5211 34.99 54.0903 28.1561 54.0903C14.0163 54.0903 2.51245 42.5774 2.51245 28.4265L2.52059 28.4427ZM37.3006 52.4212C37.4063 52.3316 37.5039 52.2257 37.6097 52.128C37.8294 51.9245 38.049 51.7291 38.2524 51.5174C38.3907 51.379 38.5209 51.2243 38.6511 51.0777C38.8382 50.866 39.0253 50.6625 39.1962 50.4426C39.3263 50.2798 39.4402 50.117 39.5623 49.9541C39.725 49.7343 39.8796 49.5063 40.026 49.2783C40.1399 49.0992 40.2457 48.9282 40.3514 48.7491C40.4897 48.513 40.6199 48.2687 40.7419 48.0244C40.8396 47.8372 40.9291 47.6499 41.0104 47.4626C41.1243 47.2102 41.2301 46.9497 41.3277 46.6891C41.4009 46.4937 41.4741 46.3065 41.5392 46.111C41.6287 45.8342 41.7101 45.5492 41.7833 45.2643C41.8321 45.077 41.8891 44.8897 41.9297 44.6943C42.003 44.3768 42.0518 44.043 42.0925 43.7173C42.1169 43.5544 42.1494 43.3916 42.1657 43.2288C42.2226 42.7321 42.247 42.2273 42.247 41.7143C42.247 33.9386 35.9256 27.6123 28.1642 27.6123C21.3302 27.6123 15.7654 22.0431 15.7654 15.2037C15.7654 8.36438 21.3302 2.80334 28.1642 2.80334C42.304 2.80334 53.8078 14.3162 53.8078 28.4672C53.8078 39.3938 46.9495 48.7491 37.3087 52.4456L37.3006 52.4212Z" fill="#260426"/>
<path d="M28.1643 6.7439C23.5026 6.7439 19.7195 10.53 19.7195 15.1954C19.7195 19.8608 23.5107 23.6468 28.1643 23.6468C36.7393 23.6468 44.1834 29.7534 45.8594 38.1642C45.9326 38.5143 46.2173 38.7911 46.5753 38.84C46.9333 38.8888 47.2831 38.7097 47.4458 38.3921C49.0241 35.3389 49.854 31.9029 49.854 28.4507C49.854 16.4818 40.1237 6.7439 28.1643 6.7439ZM46.8845 35.4529C44.2322 27.498 36.7149 21.9452 28.1562 21.9452C24.43 21.9452 21.4036 18.9163 21.4036 15.1872C21.4036 11.4582 24.43 8.43745 28.1562 8.43745C39.18 8.43745 48.1536 17.41 48.1536 28.4507C48.1536 30.8444 47.7224 33.2301 46.8845 35.461V35.4529Z" fill="#260426"/>
<path d="M36.601 41.6981C36.601 37.0408 32.8179 33.2466 28.1643 33.2466C19.5893 33.2466 12.1452 27.14 10.4692 18.7374C10.396 18.3873 10.1113 18.1105 9.75328 18.0616C9.7126 18.0616 9.67193 18.0535 9.63125 18.0535C9.31396 18.0535 9.02107 18.2245 8.88277 18.5094C7.30445 21.5627 6.47461 24.9905 6.47461 28.4428C6.47461 40.4116 16.2049 50.1495 28.1643 50.1495C32.8179 50.1495 36.601 46.3553 36.601 41.6981ZM8.16683 28.4428C8.16683 26.0083 8.58988 23.6634 9.42786 21.4324C12.0801 29.3872 19.6056 34.9401 28.1562 34.9401C31.8742 34.9401 34.9006 37.969 34.9006 41.6899C34.9006 45.4108 31.8742 48.4478 28.1562 48.4478C17.1323 48.4478 8.15869 39.4753 8.15869 28.4428H8.16683Z" fill="#260426"/>
</svg>
