<svg width="42" height="43" viewBox="0 0 42 43" fill="none" xmlns="http://www.w3.org/2000/svg">
<g clip-path="url(#clip0_0_128)">
<path d="M19.74 10.0002C19.74 10.5602 19.53 11.0269 19.11 11.4002C18.69 11.7735 18.2233 11.9602 17.71 11.9602C17.1967 11.9602 16.7533 11.7735 16.38 11.4002C16.0067 11.0269 15.82 10.5602 15.82 10.0002C15.82 9.4402 16.0067 8.97353 16.38 8.6002C16.7533 8.22686 17.1967 8.0402 17.71 8.0402C18.2233 8.0402 18.69 8.22686 19.11 8.6002C19.53 8.97353 19.74 9.4402 19.74 10.0002ZM17.36 14.0602L20.86 16.4402L25.76 11.5402C26.04 11.3535 26.32 11.3069 26.6 11.4002L28.84 12.6602V18.5402C28.84 18.9135 28.7233 19.2402 28.49 19.5202C28.2567 19.8002 27.9533 19.9402 27.58 19.9402H14.42C14.0467 19.9402 13.7433 19.8002 13.51 19.5202C13.2767 19.2402 13.16 18.9135 13.16 18.5402V17.2802L15.12 15.6002C16.52 14.4802 17.2667 13.9669 17.36 14.0602ZM13.16 25.1202C13.16 24.7469 13.2767 24.4435 13.51 24.2102C13.7433 23.9769 14.0467 23.8602 14.42 23.8602H27.58C27.9533 23.8602 28.2567 23.9769 28.49 24.2102C28.7233 24.4435 28.84 24.7469 28.84 25.1202C28.84 25.4935 28.7233 25.7969 28.49 26.0302C28.2567 26.2635 27.9533 26.4269 27.58 26.5202H14.42C14.0467 26.5202 13.7433 26.3802 13.51 26.1002C13.2767 25.8202 13.16 25.4935 13.16 25.1202ZM13.16 30.4402C13.16 30.0669 13.2767 29.7402 13.51 29.4602C13.7433 29.1802 14.0467 29.0402 14.42 29.0402H19.74C20.1133 29.0402 20.4167 29.1802 20.65 29.4602C20.8833 29.7402 21 30.0669 21 30.4402C21 30.8135 20.8833 31.1169 20.65 31.3502C20.4167 31.5835 20.1133 31.7002 19.74 31.7002H14.42C14.0467 31.7002 13.7433 31.5835 13.51 31.3502C13.2767 31.1169 13.16 30.8135 13.16 30.4402ZM7.84 0.200195H34.16C35.56 0.200195 36.7733 0.713528 37.8 1.7402C38.8267 2.76686 39.34 4.02686 39.34 5.5202V36.8802C39.34 38.3735 38.8267 39.6335 37.8 40.6602C36.7733 41.6869 35.56 42.2002 34.16 42.2002H7.84C6.44 42.2002 5.22667 41.6869 4.2 40.6602C3.17333 39.6335 2.66 38.4202 2.66 37.0202V34.3602H5.32V36.8802C5.32 37.6269 5.55333 38.2569 6.02 38.7702C6.48667 39.2835 7.09333 39.5402 7.84 39.5402H34.16C34.9067 39.5402 35.5367 39.2835 36.05 38.7702C36.5633 38.2569 36.82 37.6269 36.82 36.8802V5.3802C36.82 4.72686 36.5633 4.14353 36.05 3.6302C35.5367 3.11686 34.9067 2.8602 34.16 2.8602H7.84C7.09333 2.8602 6.48667 3.11686 6.02 3.6302C5.55333 4.14353 5.32 4.72686 5.32 5.3802V8.0402H2.66V5.3802C2.66 3.98019 3.17333 2.76686 4.2 1.7402C5.22667 0.713528 6.44 0.200195 7.84 0.200195ZM2.66 13.3602V11.9602C2.66 11.5869 2.77667 11.2835 3.01 11.0502C3.24333 10.8169 3.54667 10.7002 3.92 10.7002C4.29333 10.7002 4.62 10.8169 4.9 11.0502C5.18 11.2835 5.32 11.5869 5.32 11.9602V13.3602H6.58C6.95333 13.3602 7.25667 13.4769 7.49 13.7102C7.72333 13.9435 7.84 14.2469 7.84 14.6202C7.84 14.9935 7.72333 15.3202 7.49 15.6002C7.25667 15.8802 6.95333 16.0202 6.58 16.0202H1.26C0.886667 15.9269 0.583333 15.7635 0.35 15.5302C0.116667 15.2969 0 14.9935 0 14.6202C0 14.2469 0.116667 13.9435 0.35 13.7102C0.583333 13.4769 0.886667 13.3602 1.26 13.3602H2.66ZM2.66 21.2002V19.9402C2.66 19.5669 2.77667 19.2402 3.01 18.9602C3.24333 18.6802 3.54667 18.5402 3.92 18.5402C4.29333 18.5402 4.62 18.6802 4.9 18.9602C5.18 19.2402 5.32 19.5669 5.32 19.9402V21.2002H6.58C6.95333 21.2002 7.25667 21.3169 7.49 21.5502C7.72333 21.7835 7.84 22.0869 7.84 22.4602C7.84 22.8335 7.72333 23.1602 7.49 23.4402C7.25667 23.7202 6.95333 23.8602 6.58 23.8602H1.26C0.886667 23.8602 0.583333 23.7202 0.35 23.4402C0.116667 23.1602 0 22.8335 0 22.4602C0 22.0869 0.116667 21.7835 0.35 21.5502C0.583333 21.3169 0.886667 21.2002 1.26 21.2002H2.66ZM2.66 29.0402V27.7802C2.66 27.4069 2.77667 27.0802 3.01 26.8002C3.24333 26.5202 3.54667 26.4035 3.92 26.4502C4.29333 26.4969 4.62 26.6369 4.9 26.8702C5.18 27.1035 5.32 27.4069 5.32 27.7802V29.0402H6.58C6.95333 29.0402 7.25667 29.1802 7.49 29.4602C7.72333 29.7402 7.84 30.0669 7.84 30.4402C7.84 30.8135 7.72333 31.1169 7.49 31.3502C7.25667 31.5835 6.95333 31.7002 6.58 31.7002H1.26C0.886667 31.7002 0.583333 31.5835 0.35 31.3502C0.116667 31.1169 0 30.8135 0 30.4402C0 30.0669 0.116667 29.7402 0.35 29.4602C0.583333 29.1802 0.886667 29.0402 1.26 29.0402H2.66Z" fill="#1E1E1E"/>
</g>
<defs>
<clipPath id="clip0_0_128">
<rect width="42" height="42" fill="white" transform="matrix(1 0 0 -1 0 42.2002)"/>
</clipPath>
</defs>
</svg>
