<svg width="19" height="19" viewBox="0 0 19 19" fill="none" xmlns="http://www.w3.org/2000/svg">
<g clip-path="url(#clip0_29_677)">
<path d="M4.24686 18.2328C4.00793 18.3124 3.79887 18.2826 3.61967 18.1433C3.44047 18.004 3.37078 17.795 3.4106 17.5164L4.3066 12.2628L0.364199 8.50173C0.20491 8.30273 0.155133 8.08383 0.214866 7.84503C0.274599 7.60623 0.443844 7.46693 0.722599 7.42713L6.15833 6.65103L8.6074 1.81533C8.72686 1.57653 8.90606 1.45713 9.145 1.45713C9.38393 1.45713 9.56313 1.57653 9.6826 1.81533L12.1317 6.65103L17.6271 7.42713C17.8661 7.46693 18.0154 7.60623 18.0751 7.84503C18.1349 8.08383 18.0851 8.30273 17.9258 8.50173L13.9834 12.2628L14.8794 17.5164C14.9192 17.795 14.8495 18.004 14.6703 18.1433C14.4911 18.2826 14.2821 18.3124 14.0431 18.2328L9.145 15.6657L4.24686 18.2328Z" fill="#FFC107"/>
</g>
<defs>
<clipPath id="clip0_29_677">
<rect width="17.93" height="17.91" fill="white" transform="matrix(1 0 0 -1 0.179932 18.8298)"/>
</clipPath>
</defs>
</svg>
