<svg width="24" height="25" viewBox="0 0 24 25" fill="none" xmlns="http://www.w3.org/2000/svg">
<path d="M16.48 7.935C16.6933 7.72167 16.9467 7.615 17.24 7.615C17.5333 7.615 17.7867 7.72167 18 7.935C18.2133 8.14833 18.3333 8.415 18.36 8.735C18.3867 9.055 18.2933 9.32167 18.08 9.535L12.08 16.975C11.8667 17.2417 11.6 17.375 11.28 17.375C10.96 17.375 10.6933 17.2683 10.48 17.055L6.48 13.055C6.16 12.7883 6.05333 12.4283 6.16 11.975C6.26666 11.5217 6.53333 11.2417 6.96 11.135C7.38666 11.0283 7.76 11.135 8.08 11.455L11.2 14.655L16.4 8.015L16.48 7.935Z" fill="#1E1E1E"/>
</svg>
