<svg width="32" height="32" viewBox="0 0 32 32" fill="none" xmlns="http://www.w3.org/2000/svg">
<g clip-path="url(#clip0_0_195)">
<path d="M16 29.9733C13.44 29.9733 11.0933 29.3511 8.96 28.1067C6.82667 26.8622 5.13778 25.1733 3.89333 23.04C2.64889 20.9067 2.02667 18.56 2.02667 16C2.02667 13.44 2.64889 11.0933 3.89333 8.96C5.13778 6.82667 6.82667 5.13778 8.96 3.89333C11.0933 2.64889 13.44 2.02667 16 2.02667C18.56 2.02667 20.9067 2.64889 23.04 3.89333C25.1733 5.13778 26.8622 6.82667 28.1067 8.96C29.3511 11.0933 29.9733 13.44 29.9733 16C29.9733 18.56 29.3511 20.9067 28.1067 23.04C26.8622 25.1733 25.1733 26.8622 23.04 28.1067C20.9067 29.3511 18.56 29.9733 16 29.9733ZM16 32C18.9156 32 21.6 31.2889 24.0533 29.8667C26.5067 28.4444 28.4444 26.5067 29.8667 24.0533C31.2889 21.6 32 18.9156 32 16C32 13.0844 31.2889 10.4 29.8667 7.94667C28.4444 5.49333 26.5067 3.55556 24.0533 2.13333C21.6 0.711111 18.9156 0 16 0C13.0844 0 10.4 0.711111 7.94667 2.13333C5.49333 3.55556 3.55556 5.49333 2.13333 7.94667C0.711111 10.4 0 13.0844 0 16C0 18.9156 0.711111 21.6 2.13333 24.0533C3.55556 26.5067 5.49333 28.4444 7.94667 29.8667C10.4 31.2889 13.0844 32 16 32ZM12.5867 10.1333C12.9422 9.92 13.2622 9.92 13.5467 10.1333L20.5867 15.1467C20.8711 15.36 21.0133 15.6444 21.0133 16C21.0133 16.3556 20.8711 16.64 20.5867 16.8533L13.5467 21.8667C13.2622 22.08 12.9244 22.0978 12.5333 21.92C12.1422 21.7422 11.9822 21.44 12.0533 21.0133V10.9867C11.9822 10.56 12.16 10.2756 12.5867 10.1333Z" fill="#260426"/>
</g>
<defs>
<clipPath id="clip0_0_195">
<rect width="32" height="32" fill="white" transform="matrix(1 0 0 -1 0 32)"/>
</clipPath>
</defs>
</svg>
