<svg width="16" height="16" viewBox="0 0 16 16" fill="none" xmlns="http://www.w3.org/2000/svg">
<g clip-path="url(#clip0_0_1307)">
<path d="M16 8.05382C16 6.59604 15.6444 5.25382 14.9333 4.02715C14.2222 2.80049 13.2533 1.82271 12.0267 1.09382C10.8 0.364932 9.45778 0.000488281 8 0.000488281C6.54222 0.000488281 5.2 0.364932 3.97333 1.09382C2.74667 1.82271 1.77778 2.80049 1.06667 4.02715C0.355556 5.25382 0 6.59604 0 8.05382C0 9.36938 0.293333 10.596 0.88 11.7338C1.46667 12.8716 2.27556 13.8138 3.30667 14.5605C4.33778 15.3072 5.49333 15.7872 6.77333 16.0005V10.4005H4.69333V8.05382H6.77333V6.29382C6.77333 5.29827 7.04 4.52493 7.57333 3.97382C8.10667 3.42271 8.83556 3.14715 9.76 3.14715C10.1156 3.14715 10.5244 3.16493 10.9867 3.20049L11.5733 3.30715V5.28049H10.56C10.0978 5.28049 9.76 5.39604 9.54667 5.62715C9.33333 5.85827 9.22667 6.16938 9.22667 6.56049V8.05382H11.4667L11.0933 10.4005H9.22667V16.0005C10.5067 15.7872 11.6622 15.3072 12.6933 14.5605C13.7244 13.8138 14.5333 12.8716 15.12 11.7338C15.7067 10.596 16 9.36938 16 8.05382Z" fill="#260426"/>
</g>
<defs>
<clipPath id="clip0_0_1307">
<rect width="16" height="16" fill="white" transform="matrix(1 0 0 -1 0 16.0005)"/>
</clipPath>
</defs>
</svg>
