<svg width="18" height="19" viewBox="0 0 18 19" fill="none" xmlns="http://www.w3.org/2000/svg">
<g clip-path="url(#clip0_29_673)">
<path d="M4.12473 18.2328C3.88593 18.3124 3.67698 18.2826 3.49788 18.1433C3.31878 18.004 3.24913 17.795 3.28893 17.5164L4.18443 12.2628L0.244229 8.50173C0.0850294 8.30273 0.0352794 8.08383 0.0949794 7.84503C0.154679 7.60623 0.323829 7.46693 0.602429 7.42713L6.03513 6.65103L8.48283 1.81533C8.60223 1.57653 8.78133 1.45713 9.02013 1.45713C9.25893 1.45713 9.43803 1.57653 9.55743 1.81533L12.0051 6.65103L17.4975 7.42713C17.7363 7.46693 17.8856 7.60623 17.9453 7.84503C18.005 8.08383 17.9552 8.30273 17.796 8.50173L13.8558 12.2628L14.7513 17.5164C14.7911 17.795 14.7215 18.004 14.5424 18.1433C14.3633 18.2826 14.1543 18.3124 13.9155 18.2328L9.02013 15.6657L4.12473 18.2328Z" fill="#FFC107"/>
</g>
<defs>
<clipPath id="clip0_29_673">
<rect width="17.92" height="17.91" fill="white" transform="matrix(1 0 0 -1 0.0600586 18.8298)"/>
</clipPath>
</defs>
</svg>
