<svg width="16" height="16" viewBox="0 0 16 16" fill="none" xmlns="http://www.w3.org/2000/svg">
<g clip-path="url(#clip0_11_1273)">
<path d="M16 8.05321C16 6.59543 15.6444 5.25321 14.9333 4.02654C14.2222 2.79988 13.2533 1.8221 12.0267 1.09321C10.8 0.364322 9.45778 -0.00012207 8 -0.00012207C6.54222 -0.00012207 5.2 0.364322 3.97333 1.09321C2.74667 1.8221 1.77778 2.79988 1.06667 4.02654C0.355556 5.25321 0 6.59543 0 8.05321C0 9.36877 0.293333 10.5954 0.88 11.7332C1.46667 12.871 2.27556 13.8132 3.30667 14.5599C4.33778 15.3065 5.49333 15.7865 6.77333 15.9999V10.3999H4.69333V8.05321H6.77333V6.29321C6.77333 5.29766 7.04 4.52432 7.57333 3.97321C8.10667 3.4221 8.83556 3.14654 9.76 3.14654C10.1156 3.14654 10.5244 3.16432 10.9867 3.19988L11.5733 3.30654V5.27988H10.56C10.0978 5.27988 9.76 5.39543 9.54667 5.62654C9.33333 5.85766 9.22667 6.16877 9.22667 6.55988V8.05321H11.4667L11.0933 10.3999H9.22667V15.9999C10.5067 15.7865 11.6622 15.3065 12.6933 14.5599C13.7244 13.8132 14.5333 12.871 15.12 11.7332C15.7067 10.5954 16 9.36877 16 8.05321Z" fill="#260426"/>
</g>
<defs>
<clipPath id="clip0_11_1273">
<rect width="16" height="16" fill="white" transform="matrix(1 0 0 -1 0 15.9999)"/>
</clipPath>
</defs>
</svg>
