<svg width="38" height="39" viewBox="0 0 38 39" fill="none" xmlns="http://www.w3.org/2000/svg">
<g clip-path="url(#clip0_11_1117)">
<path d="M19 8.61C19 8.27222 18.8944 7.97667 18.6833 7.72333C18.4722 7.47 18.1978 7.34333 17.86 7.34333C17.5222 7.34333 17.2267 7.47 16.9733 7.72333C16.72 7.97667 16.5933 8.27222 16.5933 8.61V21.6567C16.5933 22.0789 16.8044 22.4167 17.2267 22.67L25.5867 27.3567C25.84 27.5256 26.1144 27.5678 26.41 27.4833C26.7056 27.3989 26.9378 27.2089 27.1067 26.9133C27.2756 26.6178 27.3178 26.3222 27.2333 26.0267C27.1489 25.7311 26.98 25.4989 26.7267 25.33L19 20.8967V8.61ZM19 38.25C22.4622 38.25 25.65 37.4056 28.5633 35.7167C31.4767 34.0278 33.7778 31.7267 35.4667 28.8133C37.1556 25.9 38 22.7122 38 19.25C38 15.7878 37.1556 12.6 35.4667 9.68667C33.7778 6.77333 31.4767 4.47222 28.5633 2.78333C25.65 1.09444 22.4622 0.25 19 0.25C15.5378 0.25 12.35 1.09444 9.43667 2.78333C6.52333 4.47222 4.22222 6.77333 2.53333 9.68667C0.844444 12.6 0 15.7878 0 19.25C0 22.7122 0.844444 25.9 2.53333 28.8133C4.22222 31.7267 6.52333 34.0278 9.43667 35.7167C12.35 37.4056 15.5378 38.25 19 38.25ZM35.5933 19.25C35.5933 22.29 34.8544 25.0767 33.3767 27.61C31.8989 30.1433 29.8933 32.1489 27.36 33.6267C24.8267 35.1044 22.04 35.8433 19 35.8433C15.96 35.8433 13.1733 35.1044 10.64 33.6267C8.10667 32.1489 6.10111 30.1433 4.62333 27.61C3.14556 25.0767 2.40667 22.29 2.40667 19.25C2.40667 16.21 3.14556 13.4233 4.62333 10.89C6.10111 8.35667 8.10667 6.35111 10.64 4.87333C13.1733 3.39556 15.96 2.65667 19 2.65667C22.04 2.65667 24.8267 3.39556 27.36 4.87333C29.8933 6.35111 31.8989 8.35667 33.3767 10.89C34.8544 13.4233 35.5933 16.21 35.5933 19.25Z" fill="#260426"/>
</g>
<defs>
<clipPath id="clip0_11_1117">
<rect width="38" height="38" fill="white" transform="matrix(1 0 0 -1 0 38.25)"/>
</clipPath>
</defs>
</svg>
