<svg width="16" height="16" viewBox="0 0 16 16" fill="none" xmlns="http://www.w3.org/2000/svg">
<g clip-path="url(#clip0_11_1261)">
<path d="M0 1.11988C0 0.835433 0.115556 0.577656 0.346667 0.346544C0.577778 0.115433 0.853333 -0.00012207 1.17333 -0.00012207H14.8267C15.1467 -0.00012207 15.4222 0.115433 15.6533 0.346544C15.8844 0.577656 16 0.835433 16 1.11988V14.8799C16 15.1643 15.8844 15.4221 15.6533 15.6532C15.4222 15.8843 15.1467 15.9999 14.8267 15.9999H1.17333C0.853333 15.9999 0.577778 15.8843 0.346667 15.6532C0.115556 15.4221 0 15.1643 0 14.8799V1.11988ZM4.96 13.3865V6.18654H2.56V13.3865H4.96ZM3.73333 5.17321C4.16 5.17321 4.49778 5.05766 4.74667 4.82654C4.99556 4.59543 5.11111 4.3021 5.09333 3.94654C5.07556 3.59099 4.95111 3.28877 4.72 3.03988C4.48889 2.79099 4.16889 2.66654 3.76 2.66654C3.35111 2.66654 3.02222 2.79099 2.77333 3.03988C2.52444 3.28877 2.4 3.59099 2.4 3.94654C2.4 4.3021 2.52444 4.59543 2.77333 4.82654C3.02222 5.05766 3.34222 5.17321 3.73333 5.17321ZM8.64 13.3865V9.33321C8.64 9.08432 8.67556 8.88877 8.74667 8.74654C8.81778 8.53321 8.96 8.33766 9.17333 8.15988C9.38667 7.9821 9.65333 7.89321 9.97333 7.89321C10.4 7.89321 10.7111 8.03543 10.9067 8.31988C11.1022 8.60432 11.2 9.01321 11.2 9.54654V13.3865H13.6V9.22654C13.6 8.15988 13.3422 7.35099 12.8267 6.79988C12.3111 6.24877 11.6444 5.97321 10.8267 5.97321C10.2578 5.97321 9.77778 6.11543 9.38667 6.39988C9.10222 6.57766 8.85333 6.84432 8.64 7.19988V6.18654H6.24C6.27556 6.47099 6.27556 7.75099 6.24 10.0265V13.3865H8.64Z" fill="#260426"/>
</g>
<defs>
<clipPath id="clip0_11_1261">
<rect width="16" height="16" fill="white" transform="matrix(1 0 0 -1 0 15.9999)"/>
</clipPath>
</defs>
</svg>
