<svg width="13" height="12" viewBox="0 0 13 12" fill="none" xmlns="http://www.w3.org/2000/svg">
<path d="M3.66004 1.24001C3.74004 1.16001 3.83337 1.12 3.94004 1.12C4.04671 1.12 4.12671 1.16001 4.18004 1.24001L8.70004 5.72001C8.78004 5.8 8.82004 5.89334 8.82004 6C8.82004 6.10667 8.78004 6.20001 8.70004 6.28L4.18004 10.76C4.12671 10.84 4.04671 10.88 3.94004 10.88C3.83337 10.88 3.74004 10.84 3.66004 10.76C3.58004 10.68 3.54004 10.5933 3.54004 10.5C3.54004 10.4067 3.58004 10.32 3.66004 10.24L7.90004 6L3.66004 1.76C3.58004 1.68001 3.54004 1.59334 3.54004 1.5C3.54004 1.40667 3.58004 1.32001 3.66004 1.24001Z" fill="#260426"/>
</svg>
