<svg width="13" height="12" viewBox="0 0 13 12" fill="none" xmlns="http://www.w3.org/2000/svg">
<path d="M3.65999 1.23988C3.73999 1.15988 3.83333 1.11988 3.93999 1.11988C4.04666 1.11988 4.12666 1.15988 4.17999 1.23988L8.69999 5.71988C8.77999 5.79988 8.81999 5.89322 8.81999 5.99988C8.81999 6.10655 8.77999 6.19988 8.69999 6.27988L4.17999 10.7599C4.12666 10.8399 4.04666 10.8799 3.93999 10.8799C3.83333 10.8799 3.73999 10.8399 3.65999 10.7599C3.57999 10.6799 3.53999 10.5932 3.53999 10.4999C3.53999 10.4065 3.57999 10.3199 3.65999 10.2399L7.89999 5.99988L3.65999 1.75988C3.57999 1.67988 3.53999 1.59322 3.53999 1.49988C3.53999 1.40655 3.57999 1.31988 3.65999 1.23988Z" fill="#260426"/>
</svg>
