<svg width="19" height="19" viewBox="0 0 19 19" fill="none" xmlns="http://www.w3.org/2000/svg">
<path d="M1.64001 9.35014C1.64001 9.19014 1.69001 9.06014 1.79001 8.96014C1.89001 8.86014 2.02001 8.81014 2.18001 8.81014H15.44L11.9 5.27014C11.78 5.15014 11.72 5.01014 11.72 4.85014C11.72 4.69014 11.78 4.56014 11.9 4.46014C12.02 4.36014 12.16 4.31014 12.32 4.31014C12.48 4.31014 12.62 4.35014 12.74 4.43014L17.24 8.93014C17.32 9.05014 17.36 9.19014 17.36 9.35014C17.36 9.51014 17.32 9.65014 17.24 9.77014L12.74 14.2701C12.62 14.3501 12.48 14.3901 12.32 14.3901C12.16 14.3901 12.02 14.3401 11.9 14.2401C11.78 14.1401 11.72 14.0101 11.72 13.8501C11.72 13.6901 11.78 13.5501 11.9 13.4301L15.44 9.89014H2.18001C2.02001 9.89014 1.89001 9.84014 1.79001 9.74014C1.69001 9.64014 1.64001 9.51014 1.64001 9.35014Z" fill="#260426"/>
</svg>
