<svg width="17" height="17" viewBox="0 0 17 17" fill="none" xmlns="http://www.w3.org/2000/svg">
<g clip-path="url(#clip0_0_852)">
<path d="M4.44668 16.0664C4.23334 16.1375 4.04668 16.1109 3.88668 15.9864C3.72668 15.862 3.66446 15.6753 3.70001 15.4264L4.50001 10.7331L0.980011 7.3731C0.837789 7.19532 0.793344 6.99977 0.846678 6.78644C0.900011 6.5731 1.05112 6.44866 1.30001 6.4131L6.15334 5.71977L8.34001 1.39977C8.44668 1.18644 8.60668 1.07977 8.82001 1.07977C9.03334 1.07977 9.19334 1.18644 9.30001 1.39977L11.4867 5.71977L16.3933 6.4131C16.6067 6.44866 16.74 6.5731 16.7933 6.78644C16.8467 6.99977 16.8022 7.19532 16.66 7.3731L13.14 10.7331L13.94 15.4264C13.9756 15.6753 13.9133 15.862 13.7533 15.9864C13.5933 16.1109 13.4067 16.1375 13.1933 16.0664L8.82001 13.7731L4.44668 16.0664Z" fill="#FFC107"/>
</g>
<defs>
<clipPath id="clip0_0_852">
<rect width="16" height="16" fill="white" transform="matrix(1 0 0 -1 0.820007 16.5999)"/>
</clipPath>
</defs>
</svg>
