<svg width="18" height="19" viewBox="0 0 18 19" fill="none" xmlns="http://www.w3.org/2000/svg">
<g clip-path="url(#clip0_0_894)">
<path d="M4.14969 17.7532C3.91089 17.8328 3.70194 17.803 3.52284 17.6637C3.34374 17.5244 3.27409 17.3154 3.31389 17.0368L4.20939 11.7832L0.269188 8.02211C0.109988 7.82311 0.060238 7.60421 0.119938 7.36541C0.179638 7.12661 0.348788 6.98731 0.627388 6.94751L6.06009 6.17141L8.50779 1.33571C8.62719 1.09691 8.80629 0.977512 9.04509 0.977512C9.28389 0.977512 9.46299 1.09691 9.58239 1.33571L12.0301 6.17141L17.5225 6.94751C17.7613 6.98731 17.9105 7.12661 17.9702 7.36541C18.0299 7.60421 17.9802 7.82311 17.821 8.02211L13.8808 11.7832L14.7763 17.0368C14.8161 17.3154 14.7464 17.5244 14.5673 17.6637C14.3882 17.803 14.1793 17.8328 13.9405 17.7532L9.04509 15.1861L4.14969 17.7532Z" fill="#FFC107"/>
</g>
<defs>
<clipPath id="clip0_0_894">
<rect width="17.91" height="17.91" fill="white" transform="matrix(1 0 0 -1 0.0900879 18.3501)"/>
</clipPath>
</defs>
</svg>
