<svg width="18" height="19" viewBox="0 0 18 19" fill="none" xmlns="http://www.w3.org/2000/svg">
<path d="M1.14001 9.89994C1.14001 9.73994 1.19001 9.60994 1.29001 9.50994C1.39001 9.40994 1.52001 9.35994 1.68001 9.35994H14.94L11.4 5.81994C11.28 5.69994 11.22 5.55994 11.22 5.39994C11.22 5.23994 11.28 5.10994 11.4 5.00994C11.52 4.90994 11.66 4.85994 11.82 4.85994C11.98 4.85994 12.12 4.89994 12.24 4.97994L16.74 9.47994C16.82 9.59994 16.86 9.73994 16.86 9.89994C16.86 10.0599 16.82 10.1999 16.74 10.3199L12.24 14.8199C12.12 14.8999 11.98 14.9399 11.82 14.9399C11.66 14.9399 11.52 14.8899 11.4 14.7899C11.28 14.6899 11.22 14.5599 11.22 14.3999C11.22 14.2399 11.28 14.0999 11.4 13.9799L14.94 10.4399H1.68001C1.52001 10.4399 1.39001 10.3899 1.29001 10.2899C1.19001 10.1899 1.14001 10.0599 1.14001 9.89994Z" fill="#262626"/>
</svg>
