<svg width="56" height="55" viewBox="0 0 56 55" fill="none" xmlns="http://www.w3.org/2000/svg">
<g clip-path="url(#clip0_0_276)">
<path d="M1.79832 6.64634C1.61365 6.66861 1.45116 6.75024 1.33298 6.8764C1.21479 6.99514 1.14093 7.14356 1.11138 7.31425C1.05229 7.72241 -0.299429 17.3551 8.27622 25.1621C8.60123 25.459 9.10351 25.4219 9.39897 25.1102C9.69442 24.7836 9.66487 24.279 9.34726 23.9821C2.63298 17.8671 2.50742 10.3718 2.63299 8.1751C4.32448 8.10831 9.08134 8.27157 14.0524 11.5295C14.0967 11.5666 14.1411 11.5888 14.1854 11.6185C16.0541 12.8653 17.9525 14.5573 19.7252 16.843C18.8758 16.5536 17.9746 16.3087 17.0218 16.0935C16.7854 16.0415 16.5416 16.0935 16.357 16.2493C16.3348 16.2716 16.3127 16.2864 16.2905 16.3087C16.1428 16.4571 16.0615 16.6501 16.0615 16.8653C16.0394 19.7224 16.4235 22.253 17.2138 24.4052C11.6962 25.6445 6.42962 27.7521 1.54718 30.7131C1.48809 30.7502 1.43638 30.7873 1.39206 30.8393C1.39206 30.8393 1.39206 30.8467 1.38468 30.8467C1.37729 30.8467 1.38468 30.8467 1.37729 30.8541C1.37729 30.8541 1.37729 30.869 1.36252 30.8764C1.30343 30.9432 1.25911 31.0174 1.22957 31.099C1.22218 31.1213 1.21478 31.151 1.2074 31.1732C1.18524 31.24 1.17786 31.3068 1.17786 31.3736C1.17786 31.4033 1.17786 31.433 1.17786 31.4627C1.17786 31.5295 1.20002 31.5888 1.22217 31.6556C1.23695 31.6853 1.24434 31.715 1.25911 31.7447C1.2665 31.7595 1.26649 31.7818 1.28127 31.7966C1.30343 31.8337 1.33297 31.856 1.36252 31.8857C1.38468 31.9154 1.39945 31.945 1.42161 31.9673C4.08073 34.4385 7.02792 36.5016 10.1819 38.1417C10.0711 38.1417 9.96771 38.1714 9.8643 38.2233C9.76089 38.2753 7.32338 39.5369 5.12961 41.2808C5.10745 41.3031 5.0779 41.3254 5.05574 41.3476C4.93017 41.4812 4.84892 41.6519 4.82676 41.8374C4.8046 42.0527 4.87847 42.2753 5.0262 42.4385C5.23302 42.676 10.1967 48.0786 23.4775 46.6018C24.6593 48.702 26.3287 50.8393 28.4707 52.9617C28.781 53.266 29.2833 53.266 29.5861 52.9617L29.6526 52.895C31.7577 50.7577 33.3901 48.6055 34.5498 46.4979C47.8454 47.8411 52.7426 42.4385 52.942 42.1936C53.0897 42.0304 53.1562 41.8078 53.1341 41.5925C53.1119 41.3773 53.0011 41.177 52.8312 41.0359C50.6153 39.3217 48.1704 38.0823 48.067 38.0304C47.6755 37.83 47.2027 37.9933 47.0033 38.3866C46.8039 38.7799 46.9664 39.2549 47.3579 39.4552C47.38 39.4627 49.2193 40.3977 51.088 41.7261C49.463 42.9877 44.6987 45.7632 35.3254 44.9617C35.7981 43.9005 36.1379 42.8319 36.3595 41.7855C43.6351 40.3161 50.3346 36.8356 55.7636 31.6927C55.7932 31.663 55.808 31.6334 55.8301 31.6037C55.8523 31.574 55.8818 31.5517 55.904 31.522C55.9114 31.5072 55.9114 31.4924 55.9188 31.4775C55.9409 31.4256 55.9557 31.3736 55.9704 31.3217C55.9852 31.2771 56 31.2326 56 31.1807C56 31.1287 56 31.0768 55.9926 31.0248C55.9926 30.9729 55.9852 30.9283 55.9704 30.8764C55.9557 30.8319 55.9335 30.7873 55.904 30.7428C55.8818 30.6909 55.8523 30.6463 55.8153 30.6018C55.808 30.587 55.8006 30.5721 55.7932 30.5647C55.7636 30.535 55.7341 30.5202 55.7045 30.4979C55.675 30.4757 55.6528 30.446 55.6233 30.4237C50.7704 27.5443 45.526 25.4961 40.0158 24.3013C40.8135 21.9784 41.1089 19.2475 40.9095 16.1528C40.8947 15.9154 40.7692 15.6927 40.5771 15.5517C40.3777 15.4107 40.1339 15.3736 39.9049 15.4404C39.2993 15.6111 38.7231 15.804 38.1544 16.0044C39.7646 13.8597 41.4413 12.2642 43.0885 11.0842C43.1328 11.0619 43.1698 11.0248 43.2141 10.9951C47.9488 7.6482 52.3659 7.70757 53.917 7.85599C54.0721 9.97844 54.0647 17.5629 47.3726 23.7744C47.055 24.0786 47.0329 24.5758 47.3283 24.9024C47.6238 25.2289 48.1261 25.2437 48.4511 24.9469C56.9307 17.0359 55.4903 7.43298 55.4239 7.02482C55.3722 6.69829 55.121 6.43855 54.796 6.37176C54.7221 6.35692 49.9874 5.51091 44.4624 8.42742C44.9203 6.83187 45.2749 4.39773 44.9425 0.909793C44.9056 0.50163 44.5658 0.197363 44.1669 0.189941C43.9306 0.189941 38.7231 0.189942 33.2202 5.77807C33.0503 5.95618 32.8731 6.15655 32.6958 6.3495C31.7429 5.0879 30.6276 3.80404 29.335 2.53502C29.0247 2.23076 28.5225 2.23076 28.2196 2.53502L28.1236 2.6315C26.8827 3.8931 25.7969 5.16953 24.8736 6.43113C19.1269 0.360627 13.72 0.345786 13.4837 0.353207C13.2695 0.353207 13.07 0.449682 12.9297 0.590683C12.8041 0.716843 12.7229 0.88753 12.7007 1.08048C12.3831 4.89495 12.7376 7.5443 13.1439 9.19922C7.1978 6.06007 1.90172 6.6315 1.82047 6.64634H1.79832ZM25.7008 20.1603C26.2105 18.1417 27.252 16.0564 28.8179 13.9413C30.2656 15.8486 31.285 17.7484 31.8537 19.6037C31.8316 19.6259 31.8168 19.6482 31.7946 19.663C31.6617 19.7892 31.5287 19.9154 31.4032 20.0415C31.3662 20.0786 31.3219 20.1083 31.285 20.1454C31.2554 20.1751 31.2259 20.2122 31.1963 20.2419C31.1151 20.3235 31.0338 20.4126 30.96 20.5016C30.9009 20.5684 30.8418 20.6278 30.7827 20.6946C30.731 20.754 30.6793 20.8133 30.6276 20.8727C30.4577 21.0731 30.2952 21.2734 30.1401 21.4812C30.1105 21.5257 30.081 21.5629 30.0514 21.6074C29.9997 21.6816 29.9554 21.7484 29.9037 21.8226C29.8299 21.9339 29.7486 22.0452 29.6747 22.1565C29.6083 22.2604 29.5492 22.3569 29.4901 22.4608C29.431 22.5647 29.3645 22.6612 29.3054 22.7651C29.2833 22.8096 29.2537 22.8541 29.2315 22.8987C29.1798 22.9877 29.1355 23.0768 29.0912 23.1658C29.01 23.3142 28.9361 23.4701 28.8696 23.6259C28.8253 23.715 28.781 23.8115 28.744 23.9005C28.7293 23.945 28.7071 23.9821 28.685 24.0267C28.6554 23.9673 28.6185 23.9154 28.5889 23.856C28.4707 23.6185 28.3452 23.3959 28.2122 23.1658C28.1605 23.0842 28.1162 22.9951 28.0645 22.9135C28.0423 22.8838 28.0276 22.8467 28.0054 22.817C27.7912 22.4831 27.5622 22.164 27.3111 21.8449C27.252 21.7632 27.1855 21.689 27.119 21.6148C26.9713 21.4367 26.8236 21.266 26.6685 21.0953C26.602 21.0285 26.5355 20.9543 26.469 20.8875C26.3952 20.8133 26.3213 20.7317 26.24 20.6575C26.1071 20.5313 25.9741 20.4052 25.8412 20.279C25.7895 20.2345 25.7525 20.1899 25.7008 20.1454V20.1603ZM39.3731 25.8003C44.4698 26.8764 49.3301 28.7168 53.8579 31.2697C48.9386 35.6779 43.0073 38.7131 36.5958 40.1083C36.8544 37.0434 36.0197 34.0527 34.1657 31.3439C36.4555 30.0898 38.2282 28.1974 39.3731 25.7929V25.8003ZM17.6422 17.8968C19.0604 18.2679 20.3531 18.7354 21.4832 19.2846C21.498 19.2846 21.5644 19.3217 21.5792 19.3291C22.6133 19.8411 23.5366 20.4274 24.3196 21.0731C24.5485 21.2586 24.7628 21.4515 24.977 21.6519C25.0434 21.7187 25.1025 21.7855 25.169 21.8523C25.3093 21.9859 25.4423 22.1269 25.5753 22.2679C25.6491 22.3495 25.7156 22.4311 25.7821 22.5128C25.8929 22.6463 26.0111 22.7725 26.1145 22.9135C26.1883 23.0026 26.2474 23.099 26.3213 23.1955C26.4173 23.3291 26.5133 23.4552 26.602 23.5962C26.6685 23.7001 26.7275 23.804 26.7866 23.9005C26.8679 24.0341 26.9491 24.1677 27.0304 24.3087C27.0895 24.42 27.1412 24.5313 27.1929 24.6352C27.2594 24.7762 27.3332 24.9098 27.3997 25.0508C27.4514 25.1621 27.4957 25.2808 27.5401 25.3996C27.5991 25.5406 27.6582 25.689 27.7099 25.83C27.7543 25.9488 27.7838 26.0675 27.8281 26.1936C27.8651 26.3198 27.902 26.4385 27.9389 26.5647C27.9094 26.7057 27.8872 26.8467 27.8651 26.9803C27.8577 26.9877 27.8429 26.9951 27.8355 27.0026C27.7616 27.0545 27.6878 27.1139 27.6065 27.1807C27.577 27.2029 27.5548 27.2178 27.5253 27.24C27.4145 27.3217 27.3037 27.4181 27.1855 27.5146C26.7571 27.8634 26.3065 28.2642 25.8633 28.7094L25.7304 28.843C25.4497 29.125 25.1912 29.4144 24.94 29.7039C24.8662 29.7929 24.7923 29.8745 24.7184 29.9636C24.6298 30.0675 24.5338 30.1714 24.4525 30.2753C22.0076 29.1621 20.1905 27.3068 19.0457 24.7465C19.0383 24.7094 19.0235 24.6797 19.0087 24.6426C18.1814 22.7577 17.7235 20.4868 17.6496 17.882L17.6422 17.8968ZM21.3354 40.3384C14.6433 39.0916 8.44611 36.0712 3.29038 31.5443C7.84781 28.9098 12.7302 27.0174 17.8417 25.9042C19.1047 28.4497 21.0474 30.4014 23.5218 31.6037C21.7565 34.3198 21.0104 37.3031 21.3354 40.3384ZM6.85803 41.971C8.71203 40.6278 10.5512 39.6705 10.5734 39.663C10.9649 39.4627 11.12 38.9803 10.9132 38.5944C10.8984 38.5647 10.8689 38.5424 10.8467 38.5128C14.2297 40.1825 17.849 41.3625 21.6161 42.0081C21.8451 43.0248 22.1923 44.0564 22.6724 45.0953C13.2916 45.9933 8.49782 43.2252 6.85803 41.9784V41.971ZM24.5855 45.3922C24.5855 45.3922 24.5855 45.3773 24.5781 45.3699C23.8173 43.9376 23.3076 42.5202 23.0491 41.1621C22.4065 37.8374 23.1821 34.6686 25.3463 31.7372C25.7821 31.1436 26.2844 30.5499 26.8531 29.9784L26.9787 29.8523C27.3849 29.4441 27.7912 29.0805 28.1901 28.7614C28.3156 28.6575 28.4264 28.5684 28.5372 28.4868C28.5668 28.4645 28.5963 28.4423 28.6259 28.42C28.7145 28.3532 28.7958 28.2864 28.8696 28.2345C28.877 28.2345 28.8918 28.2196 28.8992 28.2122C28.973 28.2642 29.0469 28.3161 29.1355 28.3829C29.1577 28.3977 29.1725 28.4126 29.1946 28.4274C29.3202 28.5239 29.4679 28.6352 29.623 28.7614C30.0145 29.0731 30.4429 29.4515 30.8492 29.8449C31.3958 30.3718 31.9128 30.9506 32.3856 31.5591C32.3856 31.5666 32.4003 31.574 32.4077 31.5814C34.6458 34.4905 35.4952 37.6593 34.9191 40.9914C34.6827 42.4014 34.1805 43.8486 33.427 45.2957C32.4151 47.2549 30.9452 49.2586 29.0321 51.2771C27.1116 49.2957 25.627 47.3217 24.6076 45.3996L24.5855 45.3922ZM38.1987 24.5833C37.1794 27.0174 35.4805 28.8801 33.2128 30.0675C33.1242 29.9636 33.0282 29.8597 32.9322 29.7558C32.8583 29.6667 32.7844 29.5851 32.7032 29.4961C32.452 29.2215 32.1935 28.9469 31.9276 28.6872C31.477 28.2493 31.0265 27.856 30.5907 27.4998C30.4282 27.3736 30.2878 27.2623 30.1549 27.1584C30.1327 27.1436 30.1105 27.1287 30.0958 27.1139C29.9702 27.0248 29.8594 26.9432 29.7634 26.869C29.7412 26.8541 29.719 26.8393 29.7043 26.8244C29.6821 26.8096 29.6526 26.7873 29.6304 26.7725C29.6083 26.6834 29.5935 26.6018 29.5713 26.5128C29.6009 26.3643 29.6378 26.2233 29.6747 26.0823C29.7043 25.9636 29.7338 25.8374 29.7708 25.7187C29.8299 25.5109 29.9037 25.3031 29.9776 25.1027C30.0071 25.0285 30.0293 24.9543 30.0514 24.8875C30.1549 24.6204 30.273 24.3532 30.3986 24.0935C31.0043 22.8541 31.8685 21.741 32.9543 20.7614C33.0577 20.6649 33.1537 20.5684 33.2645 20.4794C34.0992 19.7669 35.1111 19.1065 36.2708 18.5128C36.2856 18.5128 36.293 18.4979 36.3078 18.4979C37.2384 18.0378 38.2578 17.6296 39.351 17.2734C39.4322 20.0935 39.0481 22.5424 38.1987 24.5758V24.5833ZM43.4061 1.85228C43.7828 7.47009 42.2095 9.73354 42.1135 9.86712C41.1237 10.5721 40.1265 11.4033 39.1368 12.4052C38.2873 13.266 37.4526 14.2604 36.6401 15.3662C36.3447 12.843 35.318 10.2604 33.6043 7.67046C37.7259 3.10645 41.8033 2.07491 43.4061 1.84486V1.85228ZM31.9498 8.05636C34.1657 11.2326 35.2367 14.3421 35.1481 17.318C35.0447 17.3699 34.956 17.4293 34.86 17.4812C34.7418 17.548 34.6237 17.6148 34.5129 17.6816C34.343 17.7855 34.1731 17.8894 34.0106 17.9933C33.9072 18.0601 33.8038 18.1269 33.7003 18.1937C33.5231 18.3124 33.3606 18.4311 33.1907 18.5499C33.1907 18.5499 33.1833 18.5499 33.1759 18.5573C32.4299 16.4423 31.1742 14.2901 29.431 12.1528C29.2759 11.9673 29.0543 11.8634 28.8105 11.8634C28.5963 11.8634 28.3969 11.9525 28.2491 12.1009C28.227 12.1232 28.2122 12.138 28.1974 12.1603C26.3213 14.5053 25.036 16.843 24.3491 19.1287C24.2235 19.0397 24.0906 18.9506 23.9576 18.8616C23.8542 18.7948 23.7508 18.7354 23.6474 18.6686C23.4997 18.5796 23.3593 18.4905 23.2116 18.4089C23.1082 18.3495 22.9974 18.2901 22.8866 18.2308C22.7758 18.1714 22.6724 18.112 22.5616 18.0526C22.244 14.8912 23.2559 11.5591 25.5826 8.14541C26.4542 6.86156 27.5253 5.54801 28.7662 4.24931C30.0145 5.53317 31.0855 6.80961 31.9571 8.06378L31.9498 8.05636ZM14.2002 2.01554C15.7882 2.2456 19.7843 3.27714 23.9281 7.77436C22.1627 10.5053 21.1656 13.2215 20.9587 15.8634C19.1269 13.5109 17.1473 11.7521 15.1899 10.4311C14.9388 9.88196 13.8825 7.24003 14.2002 2.00812V2.01554Z" fill="#260426"/>
</g>
<defs>
<clipPath id="clip0_0_276">
<rect width="55" height="55" fill="white" transform="matrix(1 0 0 -1 0.5 55)"/>
</clipPath>
</defs>
</svg>
