<svg width="24" height="24" viewBox="0 0 24 24" fill="none" xmlns="http://www.w3.org/2000/svg">
<path d="M16.48 7.43988C16.6933 7.22655 16.9467 7.11988 17.24 7.11988C17.5333 7.11988 17.7867 7.22655 18 7.43988C18.2133 7.65322 18.3333 7.91988 18.36 8.23988C18.3867 8.55988 18.2933 8.82655 18.08 9.03988L12.08 16.4799C11.8667 16.7465 11.6 16.8799 11.28 16.8799C10.96 16.8799 10.6933 16.7732 10.48 16.5599L6.48 12.5599C6.16 12.2932 6.05333 11.9332 6.16 11.4799C6.26667 11.0265 6.53333 10.7465 6.96 10.6399C7.38667 10.5332 7.76 10.6399 8.08 10.9599L11.2 14.1599L16.4 7.51988L16.48 7.43988Z" fill="#260426"/>
</svg>
