<svg width="55" height="55" viewBox="0 0 55 55" fill="none" xmlns="http://www.w3.org/2000/svg">
<path d="M22.6679 48.5728C22.891 48.7654 23.1834 48.8116 23.4527 48.7038C26.3458 49.1351 29.4544 49.0966 32.3013 48.5805C45.3512 46.2852 54.9 34.9703 55 21.6835C55 21.6681 55 21.6527 54.9923 21.6373C54.9923 21.6219 54.9923 21.6065 54.9923 21.5911C54.9923 21.5449 54.9692 21.5064 54.9538 21.4679C54.9461 21.4293 54.9384 21.3831 54.9154 21.3446C54.8923 21.2907 54.8538 21.2445 54.8153 21.1983C54.7922 21.1675 54.7692 21.129 54.7384 21.1058C54.6922 21.0596 54.6384 21.0365 54.5845 20.998C54.5537 20.9826 54.5229 20.9518 54.4922 20.9364C54.4152 20.9056 54.3306 20.8902 54.2382 20.8825C54.2229 20.8825 54.2075 20.8748 54.1921 20.8748C54.1613 20.8748 54.1382 20.8748 54.1074 20.8748C50.5911 21.2445 47.167 22.1149 43.9123 23.4705C44.2739 21.0134 44.4663 18.4639 44.4663 15.8759C44.4663 14.9439 44.4355 13.9888 44.3816 12.9489C44.3663 12.6794 44.2201 12.4406 43.9892 12.3019C43.8661 12.2249 43.7276 12.1941 43.5814 12.1941C43.4583 12.1941 43.3429 12.2249 43.2275 12.2788C42.9813 12.3944 39.311 14.2198 35.0175 17.4395C34.0095 9.86025 28.4387 5.37742 28.1925 5.17716C28.154 5.14635 28.1156 5.13094 28.0771 5.11554C28.0463 5.10013 28.0155 5.07702 27.9848 5.06162C27.8924 5.02311 27.7924 5 27.7001 5C27.6077 5 27.5077 5.02311 27.4154 5.06162C27.3846 5.07702 27.3538 5.09243 27.323 5.11554C27.2846 5.13864 27.2384 5.15405 27.1999 5.18486C26.946 5.38512 21.406 9.89106 20.3826 17.4395C16.0276 14.1736 12.365 12.3558 12.2111 12.2788C12.1034 12.2249 11.9803 12.1941 11.8572 12.1941C11.7187 12.1941 11.5802 12.2326 11.4494 12.3019C11.2185 12.4406 11.0723 12.6794 11.0569 12.9489C11.0031 13.9734 10.9723 14.9285 10.9723 15.8759C10.9723 18.4408 11.1724 20.9903 11.5417 23.4936C8.15613 22.0764 4.57051 21.1829 0.869474 20.8286C0.846391 20.8286 0.815613 20.8286 0.792529 20.8286C0.792529 20.8286 0.769446 20.8286 0.754057 20.8286C0.661724 20.8286 0.56939 20.8517 0.492445 20.8825C0.461668 20.8979 0.43089 20.921 0.400112 20.9364C0.346251 20.9672 0.29239 20.998 0.246223 21.0442C0.215445 21.075 0.200056 21.1058 0.176973 21.1367C0.1385 21.1829 0.100028 21.2291 0.0769446 21.283C0.0615557 21.3215 0.0538612 21.3677 0.0384723 21.4062C0.0230834 21.4525 0.00769446 21.491 0 21.5372C0 21.5526 0 21.568 0 21.5834C0 21.5988 0 21.6065 0 21.6219C0.0769446 34.9626 9.59499 46.239 22.6756 48.5651L22.6679 48.5728ZM42.8812 15.8759C42.8812 18.7489 42.6427 21.5603 42.181 24.2561C38.5569 25.9815 35.256 28.2768 32.3552 31.0882C31.455 29.1703 30.2469 27.2524 28.7542 25.373C33.6863 19.6655 40.2728 15.7141 42.8504 14.2969C42.8658 14.836 42.8812 15.3598 42.8812 15.8759ZM26.8998 7.68816V15.7757C26.8998 16.2071 27.2384 16.546 27.6616 16.5691C27.2384 16.5922 26.8998 16.9311 26.8998 17.3624V21.4602C26.8998 21.9069 27.2615 22.2612 27.7001 22.2612C28.1386 22.2612 28.5003 21.8992 28.5003 21.4602V17.3624C28.5003 16.9311 28.1617 16.5922 27.7385 16.5691C28.1617 16.546 28.5003 16.2071 28.5003 15.7757V7.67275C30.2392 9.52134 33.14 13.3572 33.5325 18.5948C31.5627 20.1738 29.539 22.0301 27.7001 24.1252C26.0457 22.2381 24.099 20.3818 21.8754 18.5948C22.2755 13.3803 25.1686 9.54445 26.8998 7.68816ZM12.6035 14.2969C14.0424 15.0902 16.7278 16.6692 19.6747 18.9029L20.5519 19.5731C23.1065 21.5988 25.3148 23.717 27.0999 25.866C28.8619 27.9918 30.2161 30.1562 31.1549 32.3129C29.6237 33.9458 28.231 35.6943 27.0383 37.5429C26.0304 39.0834 25.1378 40.7163 24.3761 42.3877C24.1914 42.7883 24.3761 43.2658 24.7762 43.4507C25.184 43.6355 25.6533 43.4507 25.838 43.0502C26.5613 41.4557 27.4231 39.8921 28.3849 38.4133C29.616 36.5031 31.0625 34.693 32.6784 33.0293C35.7408 29.8712 39.3033 27.3448 43.2583 25.5117C46.4745 24.0251 49.8755 23.0392 53.3842 22.577C52.8686 34.693 44.0277 44.8756 32.032 46.9861C29.2313 47.4945 26.1612 47.5176 23.3604 47.0554L23.2065 47.0323C11.0569 45.0066 2.11598 34.7777 1.62353 22.5231C5.31687 22.9698 8.87941 23.9789 12.2265 25.5425C16.1738 27.3756 19.7132 29.8944 22.7448 33.0293C23.4219 33.7225 24.076 34.4619 24.6992 35.2245C24.9839 35.5634 25.4841 35.6173 25.8303 35.34C26.1766 35.0627 26.2227 34.5543 25.9457 34.2077C25.2917 33.4144 24.6069 32.6441 23.899 31.9124C20.8289 28.739 17.2664 26.1818 13.296 24.2793C12.8267 21.5295 12.5881 18.7104 12.5881 15.8682C12.5881 15.3521 12.5958 14.8283 12.6112 14.2892L12.6035 14.2969Z" fill="#220F25"/>
</svg>
