<svg width="56" height="55" viewBox="0 0 56 55" fill="none" xmlns="http://www.w3.org/2000/svg">
<path d="M28.1642 0.213623C13.0888 0.213623 0.828339 12.4837 0.828339 27.5629C0.828339 42.642 13.0888 54.9202 28.1642 54.9202C43.2396 54.9202 55.5 42.6501 55.5 27.5629C55.5 12.4756 43.2314 0.213623 28.1642 0.213623ZM2.52056 27.5629C2.52056 16.6362 9.37892 7.28909 19.0115 3.59259C18.8976 3.69029 18.8 3.79614 18.6943 3.89384C18.4827 4.08925 18.2631 4.28466 18.0597 4.49636C17.9214 4.63477 17.7912 4.78947 17.661 4.93603C17.4739 5.14772 17.2949 5.35127 17.1159 5.57111C16.9858 5.73395 16.8719 5.89679 16.7498 6.05963C16.5871 6.27947 16.4325 6.50745 16.2861 6.73543C16.1722 6.90641 16.0664 7.08554 15.9607 7.26466C15.8224 7.50078 15.6922 7.74504 15.5702 7.98931C15.4807 8.17657 15.383 8.3557 15.3017 8.55111C15.1878 8.80351 15.082 9.0722 14.9844 9.33275C14.9112 9.52002 14.838 9.71543 14.7729 9.90269C14.6834 10.1795 14.602 10.4645 14.5288 10.7576C14.48 10.9449 14.423 11.1321 14.3824 11.3194C14.3091 11.637 14.2603 11.9708 14.2196 12.2965C14.1952 12.4593 14.1627 12.6221 14.1464 12.785C14.0895 13.2817 14.0651 13.7865 14.0651 14.2994C14.0651 22.0751 20.3865 28.4015 28.156 28.4015C34.99 28.4015 40.5467 33.9625 40.5467 40.8019C40.5467 47.6412 34.99 53.2104 28.156 53.2104C14.0163 53.2104 2.51242 41.6975 2.51242 27.5466L2.52056 27.5629ZM37.3005 51.5413C37.4063 51.4517 37.5039 51.3459 37.6097 51.2482C37.8293 51.0446 38.049 50.8492 38.2524 50.6375C38.3907 50.4991 38.5209 50.3444 38.651 50.1978C38.8382 49.9861 39.0253 49.7826 39.1961 49.5628C39.3263 49.3999 39.4402 49.2371 39.5622 49.0742C39.725 48.8544 39.8795 48.6264 40.026 48.3984C40.1399 48.2193 40.2456 48.0483 40.3514 47.8692C40.4897 47.6331 40.6199 47.3888 40.7419 47.1446C40.8395 46.9573 40.929 46.77 41.0104 46.5828C41.1243 46.3303 41.23 46.0698 41.3277 45.8093C41.4009 45.6138 41.4741 45.4266 41.5392 45.2312C41.6287 44.9543 41.7101 44.6694 41.7833 44.3844C41.8321 44.1971 41.889 44.0099 41.9297 43.8144C42.0029 43.4969 42.0518 43.1631 42.0924 42.8374C42.1168 42.6746 42.1494 42.5117 42.1656 42.3489C42.2226 41.8522 42.247 41.3474 42.247 40.8344C42.247 33.0588 35.9256 26.7324 28.1642 26.7324C21.3302 26.7324 15.7654 21.1632 15.7654 14.3238C15.7654 7.4845 21.3302 1.92346 28.1642 1.92346C42.304 1.92346 53.8078 13.4364 53.8078 27.5873C53.8078 38.514 46.9494 47.8692 37.3087 51.5657L37.3005 51.5413Z" fill="#260426"/>
<path d="M28.1642 5.86401C23.5024 5.86401 19.7194 9.65008 19.7194 14.3155C19.7194 18.9809 23.5106 22.767 28.1642 22.767C36.7392 22.767 44.1833 28.8735 45.8592 37.2843C45.9325 37.6344 46.2172 37.9112 46.5752 37.9601C46.9332 38.0089 47.283 37.8298 47.4457 37.5123C49.024 34.459 49.8539 31.023 49.8539 27.5708C49.8539 15.6019 40.1236 5.86401 28.1642 5.86401ZM46.8843 34.573C44.2321 26.6182 36.7148 21.0653 28.156 21.0653C24.4299 21.0653 21.4034 18.0364 21.4034 14.3073C21.4034 10.5783 24.4299 7.55757 28.156 7.55757C39.1799 7.55757 48.1535 16.5301 48.1535 27.5708C48.1535 29.9646 47.7223 32.3502 46.8843 34.5811V34.573Z" fill="#260426"/>
<path d="M36.6009 40.8182C36.6009 36.1609 32.8178 32.3667 28.1642 32.3667C19.5892 32.3667 12.145 26.2601 10.4691 17.8575C10.3959 17.5074 10.1111 17.2306 9.75316 17.1817C9.71248 17.1817 9.6718 17.1736 9.63112 17.1736C9.31383 17.1736 9.02095 17.3446 8.88264 17.6295C7.30432 20.6828 6.47449 24.1106 6.47449 27.5629C6.47449 39.5317 16.2047 49.2697 28.1642 49.2697C32.8178 49.2697 36.6009 45.4754 36.6009 40.8182ZM8.16671 27.5629C8.16671 25.1284 8.58976 22.7835 9.42773 20.5525C12.08 28.5074 19.6054 34.0603 28.156 34.0603C31.874 34.0603 34.9005 37.0891 34.9005 40.81C34.9005 44.531 31.874 47.568 28.156 47.568C17.1322 47.568 8.15857 38.5954 8.15857 27.5629H8.16671Z" fill="#260426"/>
</svg>
