<svg width="38" height="39" viewBox="0 0 38 39" fill="none" xmlns="http://www.w3.org/2000/svg">
<g clip-path="url(#clip0_11_1105)">
<path d="M0 9.75C0 8.39889 0.464444 7.25889 1.39333 6.33C2.32222 5.40111 3.46222 4.93667 4.81333 4.93667H33.3133C34.58 4.93667 35.6778 5.40111 36.6067 6.33C37.5356 7.25889 38 8.39889 38 9.75V28.75C38 30.1011 37.5356 31.22 36.6067 32.1067C35.6778 32.9933 34.5378 33.4367 33.1867 33.4367H4.81333C3.46222 33.4367 2.32222 32.9933 1.39333 32.1067C0.464444 31.22 0 30.1011 0 28.75V9.75ZM4.81333 7.34334C4.13778 7.34334 3.56778 7.57556 3.10333 8.04C2.63889 8.50445 2.40667 9.07445 2.40667 9.75V10.2567L19 20.2633L35.5933 10.2567V9.75C35.5933 9.07445 35.3611 8.50445 34.8967 8.04C34.4322 7.57556 33.9044 7.34334 33.3133 7.34334H4.81333ZM35.5933 13.0433L24.4467 19.7567L35.5933 26.5967V13.0433ZM35.5933 29.3833L22.1667 21.15L19 23.05L15.8333 21.15L2.40667 29.3833C2.57556 29.89 2.87111 30.3122 3.29333 30.65C3.71556 30.9878 4.22222 31.1567 4.81333 31.1567H33.3133C33.82 31.1567 34.2844 30.9878 34.7067 30.65C35.1289 30.3122 35.4244 29.89 35.5933 29.3833ZM2.40667 26.5967L13.5533 19.7567L2.40667 13.0433V26.5967Z" fill="#260426"/>
</g>
<defs>
<clipPath id="clip0_11_1105">
<rect width="38" height="38" fill="white" transform="matrix(1 0 0 -1 0 38.25)"/>
</clipPath>
</defs>
</svg>
