<svg width="16" height="17" viewBox="0 0 16 17" fill="none" xmlns="http://www.w3.org/2000/svg">
<path d="M1.0083 8.1948C1.0083 8.05258 1.05275 7.93703 1.14163 7.84814C1.23052 7.75925 1.34608 7.7148 1.4883 7.7148H13.275L10.1283 4.56814C10.0216 4.46147 9.9683 4.33703 9.9683 4.1948C9.9683 4.05258 10.0216 3.93703 10.1283 3.84814C10.235 3.75925 10.3594 3.7148 10.5016 3.7148C10.6439 3.7148 10.7683 3.75036 10.875 3.82147L14.875 7.82147C14.9461 7.92814 14.9816 8.05258 14.9816 8.1948C14.9816 8.33703 14.9461 8.46147 14.875 8.56814L10.875 12.5681C10.7683 12.6392 10.6439 12.6748 10.5016 12.6748C10.3594 12.6748 10.235 12.6304 10.1283 12.5415C10.0216 12.4526 9.9683 12.337 9.9683 12.1948C9.9683 12.0526 10.0216 11.9281 10.1283 11.8215L13.275 8.6748H1.4883C1.34608 8.6748 1.23052 8.63036 1.14163 8.54147C1.05275 8.45258 1.0083 8.33703 1.0083 8.1948Z" fill="black"/>
</svg>
