<svg width="33" height="32" viewBox="0 0 33 32" fill="none" xmlns="http://www.w3.org/2000/svg">
<g clip-path="url(#clip0_11_161)">
<path d="M16.5 29.9733C13.94 29.9733 11.5933 29.3511 9.46 28.1067C7.32667 26.8622 5.63778 25.1733 4.39333 23.04C3.14889 20.9067 2.52667 18.56 2.52667 16C2.52667 13.44 3.14889 11.0933 4.39333 8.96C5.63778 6.82667 7.32667 5.13778 9.46 3.89333C11.5933 2.64889 13.94 2.02667 16.5 2.02667C19.06 2.02667 21.4067 2.64889 23.54 3.89333C25.6733 5.13778 27.3622 6.82667 28.6067 8.96C29.8511 11.0933 30.4733 13.44 30.4733 16C30.4733 18.56 29.8511 20.9067 28.6067 23.04C27.3622 25.1733 25.6733 26.8622 23.54 28.1067C21.4067 29.3511 19.06 29.9733 16.5 29.9733ZM16.5 32C19.4156 32 22.1 31.2889 24.5533 29.8667C27.0067 28.4444 28.9444 26.5067 30.3667 24.0533C31.7889 21.6 32.5 18.9156 32.5 16C32.5 13.0844 31.7889 10.4 30.3667 7.94667C28.9444 5.49333 27.0067 3.55556 24.5533 2.13333C22.1 0.711111 19.4156 0 16.5 0C13.5844 0 10.9 0.711111 8.44667 2.13333C5.99333 3.55556 4.05556 5.49333 2.63333 7.94667C1.21111 10.4 0.5 13.0844 0.5 16C0.5 18.9156 1.21111 21.6 2.63333 24.0533C4.05556 26.5067 5.99333 28.4444 8.44667 29.8667C10.9 31.2889 13.5844 32 16.5 32ZM13.0867 10.1333C13.4422 9.92 13.7622 9.92 14.0467 10.1333L21.0867 15.1467C21.3711 15.36 21.5133 15.6444 21.5133 16C21.5133 16.3556 21.3711 16.64 21.0867 16.8533L14.0467 21.8667C13.7622 22.08 13.4244 22.0978 13.0333 21.92C12.6422 21.7422 12.4822 21.44 12.5533 21.0133V10.9867C12.4822 10.56 12.66 10.2756 13.0867 10.1333Z" fill="#CAB4D9"/>
</g>
<defs>
<clipPath id="clip0_11_161">
<rect width="32" height="32" fill="white" transform="matrix(1 0 0 -1 0.5 32)"/>
</clipPath>
</defs>
</svg>
