<svg width="42" height="43" viewBox="0 0 42 43" fill="none" xmlns="http://www.w3.org/2000/svg">
<g clip-path="url(#clip0_0_139)">
<path d="M39.34 36.8804C39.62 36.8804 39.8533 36.8804 40.04 36.8804C40.6 36.6937 41.0667 36.4137 41.44 36.0404C41.8133 35.667 42 35.107 42 34.3604C42 33.147 41.6267 31.8404 40.88 30.4404C39.9467 28.5737 38.64 27.0804 36.96 25.9604C34.72 24.5604 32.0133 23.8604 28.84 23.8604C25.6667 23.8604 23.0067 24.5604 20.86 25.9604C19.0867 27.0804 17.7333 28.5737 16.8 30.4404C16.1467 31.8404 15.82 33.147 15.82 34.3604C15.82 35.107 16.0067 35.667 16.38 36.0404C16.7533 36.4137 17.1733 36.6937 17.64 36.8804H18.34H39.34ZM18.48 34.3604H18.34C18.34 33.8004 18.48 33.1937 18.76 32.5404C19.1333 31.5137 19.6933 30.5804 20.44 29.7404C22.3067 27.5937 25.13 26.497 28.91 26.4504C32.69 26.4037 35.5133 27.5004 37.38 29.7404C38.0333 30.5804 38.5467 31.5137 38.92 32.5404C39.2 33.1937 39.34 33.8004 39.34 34.3604H18.48ZM28.84 18.5404C30.3333 18.5404 31.5933 18.027 32.62 17.0004C33.6467 15.9737 34.16 14.737 34.16 13.2904C34.16 11.8437 33.6467 10.607 32.62 9.58037C31.5933 8.55371 30.3567 8.04037 28.91 8.04037C27.4633 8.04037 26.2267 8.55371 25.2 9.58037C24.1733 10.607 23.66 11.8437 23.66 13.2904C23.66 14.737 24.1733 15.9737 25.2 17.0004C26.2267 18.027 27.44 18.5404 28.84 18.5404ZM36.82 13.3604C36.82 15.507 36.05 17.3504 34.51 18.8904C32.97 20.4304 31.1033 21.2004 28.91 21.2004C26.7167 21.2004 24.85 20.4304 23.31 18.8904C21.77 17.3504 21 15.4837 21 13.2904C21 11.097 21.77 9.2537 23.31 7.76037C24.85 6.26704 26.7167 5.49704 28.91 5.45037C31.1033 5.4037 32.9467 6.15037 34.44 7.69037C35.9333 9.23037 36.68 11.1204 36.68 13.3604H36.82ZM18.2 24.5604C17.1733 24.187 16.1 23.9537 14.98 23.8604C14.3267 23.8604 13.72 23.8604 13.16 23.8604C9.98667 23.8604 7.28 24.5604 5.04 25.9604C3.36 27.0804 2.05333 28.5737 1.12 30.4404C0.373333 31.8404 0 33.147 0 34.3604C0 36.0404 0.886667 36.8804 2.66 36.8804H13.72C13.3467 36.1337 13.16 35.2937 13.16 34.3604C13.16 31.5604 14.0933 28.9937 15.96 26.6604C16.6133 25.9137 17.36 25.2137 18.2 24.5604ZM12.88 26.3804C11.2933 28.807 10.5 31.467 10.5 34.3604H2.66C2.66 33.8937 2.8 33.287 3.08 32.5404C3.45333 31.5137 3.96667 30.5804 4.62 29.7404C6.48667 27.5937 9.24 26.5204 12.88 26.5204V26.3804ZM3.92 14.6204C3.92 12.4737 4.69 10.6304 6.23 9.09037C7.77 7.55037 9.63667 6.78037 11.83 6.78037C14.0233 6.78037 15.89 7.55037 17.43 9.09037C18.97 10.6304 19.74 12.4737 19.74 14.6204C19.74 16.767 18.97 18.6104 17.43 20.1504C15.89 21.6904 14.0233 22.4604 11.83 22.4604C9.63667 22.4604 7.77 21.6904 6.23 20.1504C4.69 18.6104 3.92 16.767 3.92 14.6204ZM11.76 9.44037C10.36 9.44037 9.14667 9.9537 8.12 10.9804C7.09333 12.007 6.58 13.2437 6.58 14.6904C6.58 16.137 7.09333 17.3737 8.12 18.4004C9.14667 19.427 10.3833 19.9404 11.83 19.9404C13.2767 19.9404 14.5133 19.427 15.54 18.4004C16.5667 17.3737 17.08 16.137 17.08 14.6904C17.08 13.2437 16.5667 12.007 15.54 10.9804C14.5133 9.9537 13.2533 9.44037 11.76 9.44037Z" fill="#1E1E1E"/>
</g>
<defs>
<clipPath id="clip0_0_139">
<rect width="42" height="42" fill="white" transform="matrix(1 0 0 -1 0 42.2002)"/>
</clipPath>
</defs>
</svg>
