<svg width="19" height="19" viewBox="0 0 19 19" fill="none" xmlns="http://www.w3.org/2000/svg">
<g clip-path="url(#clip0_29_681)">
<path d="M4.3696 18.2328C4.1308 18.3124 3.92185 18.2826 3.74275 18.1433C3.56365 18.004 3.494 17.795 3.5338 17.5164L4.4293 12.2628L0.489102 8.50173C0.329902 8.30273 0.280152 8.08383 0.339852 7.84503C0.399552 7.60623 0.568702 7.46693 0.847302 7.42713L6.28 6.65103L8.7277 1.81533C8.8471 1.57653 9.0262 1.45713 9.265 1.45713C9.5038 1.45713 9.6829 1.57653 9.8023 1.81533L12.25 6.65103L17.7424 7.42713C17.9812 7.46693 18.1305 7.60623 18.1902 7.84503C18.2499 8.08383 18.2001 8.30273 18.0409 8.50173L14.1007 12.2628L14.9962 17.5164C15.036 17.795 14.9664 18.004 14.7873 18.1433C14.6082 18.2826 14.3992 18.3124 14.1604 18.2328L9.265 15.6657L4.3696 18.2328Z" fill="#FFC107"/>
</g>
<defs>
<clipPath id="clip0_29_681">
<rect width="17.91" height="17.91" fill="white" transform="matrix(1 0 0 -1 0.310059 18.8298)"/>
</clipPath>
</defs>
</svg>
