<svg width="19" height="19" viewBox="0 0 19 19" fill="none" xmlns="http://www.w3.org/2000/svg">
<g clip-path="url(#clip0_0_890)">
<path d="M5.02695 17.7532C4.78801 17.8328 4.57895 17.803 4.39975 17.6637C4.22055 17.5244 4.15086 17.3154 4.19068 17.0368L5.08668 11.7832L1.14428 8.02211C0.984991 7.82311 0.935214 7.60421 0.994947 7.36541C1.05468 7.12661 1.22392 6.98731 1.50268 6.94751L6.93841 6.17141L9.38748 1.33571C9.50694 1.09691 9.68614 0.977512 9.92508 0.977512C10.164 0.977512 10.3432 1.09691 10.4627 1.33571L12.9117 6.17141L18.4072 6.94751C18.6461 6.98731 18.7955 7.12661 18.8552 7.36541C18.9149 7.60421 18.8652 7.82311 18.7059 8.02211L14.7635 11.7832L15.6595 17.0368C15.6993 17.3154 15.6296 17.5244 15.4504 17.6637C15.2712 17.803 15.0621 17.8328 14.8232 17.7532L9.92508 15.1861L5.02695 17.7532Z" fill="#FFC107"/>
</g>
<defs>
<clipPath id="clip0_0_890">
<rect width="17.93" height="17.91" fill="white" transform="matrix(1 0 0 -1 0.960083 18.3501)"/>
</clipPath>
</defs>
</svg>
