<svg width="19" height="19" viewBox="0 0 19 19" fill="none" xmlns="http://www.w3.org/2000/svg">
<g clip-path="url(#clip0_29_685)">
<path d="M4.48173 18.2328C4.2428 18.3124 4.03373 18.2826 3.85453 18.1433C3.67533 18.004 3.60564 17.795 3.64546 17.5164L4.54146 12.2628L0.599063 8.50173C0.439774 8.30273 0.389996 8.08383 0.449729 7.84503C0.509463 7.60623 0.678707 7.46693 0.957463 7.42713L6.3932 6.65103L8.84226 1.81533C8.96173 1.57653 9.14093 1.45713 9.37986 1.45713C9.6188 1.45713 9.798 1.57653 9.91746 1.81533L12.3665 6.65103L17.862 7.42713C18.1009 7.46693 18.2503 7.60623 18.31 7.84503C18.3697 8.08383 18.32 8.30273 18.1607 8.50173L14.2183 12.2628L15.1143 17.5164C15.1541 17.795 15.0844 18.004 14.9052 18.1433C14.726 18.2826 14.5169 18.3124 14.278 18.2328L9.37986 15.6657L4.48173 18.2328Z" fill="#FFC107"/>
</g>
<defs>
<clipPath id="clip0_29_685">
<rect width="17.92" height="17.91" fill="white" transform="matrix(1 0 0 -1 0.419922 18.8298)"/>
</clipPath>
</defs>
</svg>
