<svg width="38" height="38" viewBox="0 0 38 38" fill="none" xmlns="http://www.w3.org/2000/svg">
<g clip-path="url(#clip0_0_1115)">
<path d="M28.88 21.28C27.7822 23.4756 26.22 25.8822 24.1933 28.5C22.5889 30.6111 20.8578 32.6378 19 34.58C17.1422 32.6378 15.4111 30.6111 13.8066 28.5C11.78 25.8822 10.2178 23.4756 9.11998 21.28C7.76887 18.5778 7.09331 16.1922 7.09331 14.1233C7.09331 12.0544 7.62109 10.1122 8.67665 8.29667C9.7322 6.48111 11.1889 5.04556 13.0466 3.99C14.9044 2.93444 16.8889 2.40667 19 2.40667C21.1111 2.40667 23.0955 2.93444 24.9533 3.99C26.8111 5.04556 28.2678 6.48111 29.3233 8.29667C30.3789 10.1122 30.9066 12.0544 30.9066 14.1233C30.9066 16.1922 30.2311 18.5778 28.88 21.28ZM19 38C19.76 37.24 20.52 36.48 21.28 35.72C23.0533 33.8622 24.6578 31.9622 26.0933 30.02C28.2044 27.2333 29.8511 24.6578 31.0333 22.2933C32.5533 19.2533 33.3133 16.5511 33.3133 14.1867C33.3133 11.6533 32.6589 9.28889 31.35 7.09333C30.0411 4.89778 28.31 3.16667 26.1566 1.9C24.0033 0.633335 21.6178 0 19 0C16.3822 0 13.9966 0.633335 11.8433 1.9C9.68998 3.16667 7.95887 4.89778 6.64998 7.09333C5.34109 9.28889 4.68665 11.6533 4.68665 14.1867C4.68665 16.5511 5.44665 19.2533 6.96665 22.2933C8.14887 24.6578 9.79553 27.2333 11.9066 30.02C13.3422 31.9622 14.9466 33.8622 16.72 35.72L19 38ZM19 19C17.6489 19 16.53 18.5356 15.6433 17.6067C14.7566 16.6778 14.3133 15.5589 14.3133 14.25C14.3133 12.9411 14.7566 11.8222 15.6433 10.8933C16.53 9.96445 17.6489 9.5 19 9.5C20.3511 9.5 21.4911 9.96445 22.42 10.8933C23.3489 11.8222 23.8133 12.9411 23.8133 14.25C23.8133 15.5589 23.3489 16.6778 22.42 17.6067C21.4911 18.5356 20.3511 19 19 19ZM19 21.4067C20.9422 21.4067 22.61 20.71 24.0033 19.3167C25.3966 17.9233 26.0933 16.2344 26.0933 14.25C26.0933 12.2656 25.3966 10.5767 24.0033 9.18333C22.61 7.79 20.9422 7.09333 19 7.09333C17.0578 7.09333 15.39 7.79 13.9966 9.18333C12.6033 10.5767 11.9066 12.2656 11.9066 14.25C11.9066 16.2344 12.6033 17.9233 13.9966 19.3167C15.39 20.71 17.0578 21.4067 19 21.4067Z" fill="#260426"/>
</g>
<defs>
<clipPath id="clip0_0_1115">
<rect width="38" height="38" fill="white" transform="matrix(1 0 0 -1 0 38)"/>
</clipPath>
</defs>
</svg>
