<svg width="56" height="56" viewBox="0 0 56 56" fill="none" xmlns="http://www.w3.org/2000/svg">
<g clip-path="url(#clip0_28_194)">
<path d="M9.60101 34.1735C8.44302 37.6629 7.6556 41.5538 7.29276 45.7766C7.25416 46.2166 7.5784 46.6026 8.01843 46.6489C8.05703 46.6489 9.0529 46.7493 10.7358 46.7493C12.6967 46.7493 15.7306 46.6103 19.2355 45.9927C20.8721 49.2351 23.0568 52.4929 25.7434 55.6967C25.9055 55.8897 26.1294 55.9823 26.361 55.9823C26.5385 55.9823 26.7238 55.9205 26.8705 55.797C27.0249 55.6735 30.5374 52.7554 34.1195 47.6988C37.5008 48.8877 41.2373 49.706 45.2748 50.1074C45.2979 50.1074 45.3288 50.1074 45.352 50.1074C45.7457 50.1074 46.0931 49.8141 46.1471 49.4204C46.178 49.2119 46.8496 44.2789 45.8769 37.7864C49.1733 36.1344 52.4775 33.9265 55.7121 31.2091C56.0518 30.9234 56.0981 30.4216 55.8125 30.082C55.6889 29.9276 52.7708 26.4227 47.7143 22.833C48.9031 19.4594 49.7214 15.7152 50.1229 11.6777C50.1692 11.2531 49.8604 10.8671 49.4358 10.8053C49.3663 10.7976 47.6139 10.5506 44.8347 10.5506C42.6037 10.5506 40.3649 10.7127 38.1802 11.0292C36.613 7.74051 34.5132 4.46727 31.9116 1.29438C31.6414 0.962421 31.155 0.900662 30.8076 1.16314C30.6378 1.29438 26.6775 4.29743 22.7712 9.58557C19.2895 8.42759 15.391 7.65559 11.1604 7.28504C10.7281 7.24644 10.3344 7.57067 10.2881 8.01071C10.2726 8.20371 9.85577 12.743 10.8825 18.8495C7.64015 20.4089 4.42095 22.4856 1.29438 25.0486C0.962421 25.3188 0.900663 25.8051 1.16314 26.1525C1.29438 26.3224 4.29743 30.2827 9.59329 34.189L9.60101 34.1735ZM8.9757 45.0972C9.33853 41.5075 10.0024 38.1647 10.9674 35.1462C11.0987 35.2389 11.2376 35.3238 11.3766 35.4087C11.5773 35.54 11.778 35.6712 11.9787 35.8024C12.2953 36.0031 12.6118 36.2039 12.9283 36.3969C13.1213 36.5127 13.322 36.6362 13.5227 36.752C13.8701 36.9527 14.2175 37.1457 14.5726 37.3387C14.7425 37.4313 14.9123 37.524 15.0822 37.6166C15.5994 37.8868 16.1243 38.1493 16.6493 38.3963C18.394 39.2146 20.1696 39.8863 21.9297 40.3803C24.1067 41.0057 26.3146 41.3917 28.5225 41.5383C28.4531 41.5692 28.3759 41.6001 28.3064 41.631C27.6734 41.9012 27.0326 42.1636 26.3687 42.4107C24.2457 43.1981 22.0069 43.8157 19.5366 44.2943C15.9082 44.9814 12.7507 45.1281 10.7436 45.1281C10.0102 45.1281 9.41574 45.1127 8.98342 45.0895L8.9757 45.0972ZM16.9581 31.6182C16.8423 28.6229 17.1974 25.6044 18.0157 22.64C20.1078 20.3703 22.555 18.4403 25.2956 16.8886C28.3604 16.8346 31.3866 17.236 34.3974 18.0775C36.6285 20.1541 38.5276 22.5782 40.0561 25.2725C40.1101 28.3295 39.701 31.4175 38.8364 34.4746C36.7597 36.613 34.3356 38.4658 31.6414 39.9789C28.5611 40.1024 25.5427 39.7319 22.5473 38.8904C20.3626 36.7829 18.4866 34.3356 16.9581 31.6105V31.6182ZM26.4459 54.0215C24.1839 51.2577 22.3157 48.4554 20.8721 45.6685C21.0342 45.6376 21.1886 45.5913 21.343 45.5604C21.5746 45.5064 21.8062 45.4523 22.0301 45.3983C22.3852 45.3134 22.7326 45.2207 23.08 45.1281C23.2962 45.0741 23.5046 45.0123 23.7208 44.9583C24.0913 44.8502 24.4619 44.7421 24.8247 44.6263C25.0023 44.5723 25.1721 44.5182 25.3497 44.4642C25.8823 44.2943 26.4073 44.1091 26.9245 43.9161C28.3527 43.3911 29.7191 42.7967 31.0161 42.1405C31.4484 41.9243 31.873 41.7005 32.2821 41.4689C34.2507 40.3803 36.0881 39.1143 37.7633 37.6938C37.7324 37.7633 37.7093 37.8405 37.6784 37.91C37.4468 38.489 37.2075 39.0602 36.9527 39.6315C36.6979 40.1951 36.4277 40.7509 36.1421 41.3145C35.2852 42.9897 34.2816 44.6572 33.1545 46.2784C30.4371 50.2078 27.6502 52.9252 26.4613 54.006L26.4459 54.0215ZM44.6417 48.4168C41.1987 48.0231 37.9794 47.3283 35.0536 46.3324C35.154 46.178 35.2466 46.0236 35.347 45.8692C35.4936 45.6453 35.6326 45.4215 35.7716 45.2053C35.9723 44.8811 36.1653 44.5568 36.3583 44.2326C36.4895 44.0164 36.613 43.8003 36.7365 43.5764C36.9373 43.2213 37.1303 42.8662 37.3155 42.5033C37.4159 42.318 37.5163 42.1328 37.6166 41.9398C37.8945 41.3917 38.157 40.8513 38.404 40.3031C38.597 39.8785 38.7823 39.4539 38.9599 39.0216C39.4925 37.7324 39.9558 36.4277 40.334 35.1231C40.9825 32.8766 41.3994 30.6069 41.5769 28.3373C41.6078 28.4067 41.631 28.4685 41.6618 28.538C41.9398 29.2019 42.21 29.8735 42.457 30.5606C42.65 31.101 42.8276 31.6491 42.9974 32.2049C43.5069 33.8802 43.9083 35.6326 44.2017 37.4468C45.0277 42.5033 44.7884 46.7338 44.6417 48.4091V48.4168ZM54.0446 30.4988C51.2577 32.7762 48.4245 34.6676 45.599 36.1267C45.5681 35.98 45.5373 35.8333 45.5064 35.6789C45.4601 35.455 45.4137 35.2234 45.3674 34.9996C45.2902 34.6367 45.2053 34.2816 45.1204 33.9265C45.0663 33.718 45.02 33.5019 44.966 33.2935C44.8656 32.9075 44.7575 32.5292 44.6495 32.1586C44.5954 31.9888 44.5491 31.8112 44.5028 31.6414C44.3329 31.101 44.1631 30.5606 43.9778 30.0356C43.3139 28.1597 42.511 26.3532 41.5769 24.6626C40.4807 22.694 39.1992 20.8644 37.7478 19.1969C37.8173 19.2278 37.8945 19.2509 37.964 19.2818C38.6048 19.5366 39.2378 19.799 39.8785 20.0924C41.2295 20.71 42.5728 21.4357 43.9006 22.2385C44.7189 22.7326 45.5295 23.2421 46.3324 23.798C50.2618 26.5154 52.9793 29.3023 54.0601 30.4911L54.0446 30.4988ZM48.4399 12.303C48.0462 15.7461 47.3437 18.9653 46.3556 21.8911C46.2089 21.7908 46.0545 21.6981 45.9001 21.6055C45.6916 21.4743 45.4909 21.343 45.2825 21.2118C44.9583 21.0111 44.634 20.8103 44.3021 20.6173C44.1013 20.5015 43.9006 20.378 43.6999 20.2622C43.3448 20.0615 42.982 19.8685 42.6268 19.6755C42.457 19.5829 42.2872 19.4902 42.1173 19.4053C41.5847 19.1351 41.0597 18.8726 40.527 18.6256C38.7051 17.7919 36.8601 17.0971 35.0382 16.5798C32.8303 15.9468 30.5992 15.5454 28.3681 15.3678C28.4376 15.3369 28.5071 15.306 28.5766 15.2829C29.171 15.0281 29.7732 14.7888 30.383 14.5649C31.4793 14.1635 32.6295 13.8161 33.803 13.515C33.8647 13.4996 33.9265 13.4764 33.996 13.461C35.2389 13.1445 36.5281 12.8897 37.8405 12.689C40.1333 12.3339 42.4879 12.1486 44.8425 12.1486C46.4482 12.1486 47.6988 12.2335 48.4477 12.303H48.4399ZM31.1705 2.92328C33.3475 5.66385 35.1462 8.45847 36.5281 11.2762C36.3428 11.3071 36.1653 11.3534 35.98 11.3843C35.7252 11.4306 35.4782 11.4847 35.2234 11.531C34.8374 11.6159 34.4514 11.7008 34.0654 11.7935C33.8338 11.8475 33.5945 11.9016 33.3629 11.9633C32.9461 12.0714 32.5446 12.1872 32.1355 12.303C31.9425 12.357 31.7495 12.4111 31.5565 12.4728C30.9698 12.6581 30.383 12.8511 29.8195 13.0518C28.0362 13.6926 26.2992 14.48 24.6703 15.3755C22.6708 16.4872 20.8181 17.7919 19.1351 19.2741C19.166 19.2046 19.1892 19.1351 19.22 19.0579C19.4825 18.4017 19.7682 17.7378 20.0769 17.0971C20.324 16.5721 20.5865 16.0549 20.8644 15.5299C21.2349 14.8428 21.6287 14.1635 22.0455 13.4919C22.5705 12.6427 23.1186 11.8012 23.713 10.9829C26.7084 6.82184 29.8658 3.99635 31.155 2.92328H31.1705ZM11.8475 8.95254C15.445 9.31538 18.78 9.97929 21.7985 10.9366C21.7136 11.0601 21.6364 11.1836 21.5592 11.2994C21.4279 11.5001 21.2967 11.6931 21.1655 11.8938C20.9725 12.1949 20.7795 12.496 20.5942 12.7971C20.4784 12.9901 20.3549 13.1831 20.2468 13.3761C20.0538 13.708 19.8685 14.04 19.6832 14.3796C19.5906 14.5495 19.498 14.7116 19.4053 14.8814C19.1351 15.3832 18.8804 15.8928 18.641 16.4023C17.7687 18.2242 17.0585 20.1078 16.5181 21.9992C15.9159 24.1376 15.5376 26.3069 15.391 28.4762C15.3601 28.4145 15.3369 28.345 15.306 28.2755C15.059 27.7042 14.8197 27.1252 14.5958 26.5308C14.3796 25.9518 14.1712 25.3651 13.9782 24.7707C13.3992 22.9796 12.9283 21.0883 12.5732 19.1351C11.724 14.4337 11.7703 10.5506 11.8475 8.9371V8.95254ZM11.199 20.4707C11.2376 20.6559 11.284 20.8258 11.3226 21.0111C11.3766 21.2658 11.4384 21.5283 11.4924 21.7831C11.585 22.1613 11.6777 22.5319 11.7703 22.9024C11.8321 23.1418 11.8938 23.3811 11.9633 23.6204C12.0791 24.0218 12.1949 24.4233 12.3184 24.817C12.3802 25.01 12.4342 25.203 12.496 25.396C12.689 25.9827 12.882 26.554 13.0981 27.1175C13.3066 27.6656 13.5227 28.1983 13.7466 28.7233C14.2716 29.9584 14.8428 31.1396 15.4604 32.2513C16.5721 34.2507 17.8613 36.1112 19.3127 37.8096C19.2432 37.7787 19.1737 37.7556 19.1042 37.7247C18.5098 37.4854 17.9076 37.2306 17.3209 36.9527C16.7805 36.6979 16.2479 36.4355 15.7152 36.1498C14.1172 35.3006 12.5423 34.3202 11.0138 33.224C6.85272 30.2286 4.02722 27.0789 2.95416 25.782C5.65613 23.6358 8.41987 21.8525 11.199 20.4784V20.4707Z" fill="#220F25"/>
<path d="M19.6367 28.6924C19.6367 28.6924 19.6753 28.731 19.6985 28.7464C19.8375 28.8313 22.2152 30.2672 25.1719 30.2672C25.7586 30.2672 26.3685 30.2055 26.9938 30.0742C25.6969 33.6717 27.2563 37.2924 27.3412 37.4699C27.3567 37.5008 27.3798 37.5239 27.3953 37.5548C27.4107 37.578 27.4261 37.6011 27.4416 37.632C27.5033 37.7092 27.5651 37.7787 27.65 37.825C27.6886 37.8482 27.7349 37.8636 27.7813 37.8791C27.8044 37.8868 27.8276 37.9022 27.8507 37.9099C27.9202 37.9331 27.9974 37.9408 28.0746 37.9408C28.175 37.9408 28.2753 37.9177 28.368 37.8791C28.3757 37.8791 28.3911 37.8791 28.3989 37.8791C28.3989 37.8791 28.4066 37.8713 28.4143 37.8636C28.4992 37.825 28.5764 37.771 28.6382 37.7015C28.6536 37.6861 28.6613 37.6706 28.6768 37.6552C28.6999 37.6243 28.7308 37.5934 28.754 37.5625C28.8543 37.3927 30.8847 34.0191 30.0741 30.2827C31.1163 30.6609 32.1662 30.7999 33.1234 30.7999C35.478 30.7999 37.3462 29.9893 37.4698 29.9275C37.4698 29.9275 37.4852 29.9198 37.4852 29.9121C37.5701 29.8735 37.6473 29.8195 37.7091 29.75C37.7245 29.7345 37.7322 29.7191 37.7477 29.7037C37.7708 29.6728 37.8017 29.6496 37.8249 29.611C37.8403 29.5879 37.8403 29.5647 37.848 29.5415C37.8712 29.4952 37.8866 29.4412 37.9021 29.3871C37.9175 29.3331 37.9252 29.2868 37.933 29.2328C37.933 29.1864 37.933 29.1401 37.933 29.0861C37.933 29.0243 37.9175 28.9703 37.8944 28.9162C37.8944 28.8931 37.8944 28.8699 37.8789 28.8468C37.8712 28.8236 37.848 28.8082 37.8403 28.785C37.8094 28.7387 37.7786 28.6924 37.74 28.646C37.7091 28.6074 37.6705 28.5766 37.6319 28.5457C37.6087 28.5302 37.5933 28.5071 37.5701 28.4916C37.4003 28.3913 34.0189 26.3609 30.2748 27.1715C31.5795 23.574 30.0123 19.9457 29.9351 19.7681C29.9197 19.7372 29.8965 19.7218 29.8811 19.6986C29.8579 19.66 29.827 19.6214 29.7962 19.5828C29.7576 19.5365 29.7112 19.4979 29.6649 19.4593C29.6495 19.4439 29.634 19.4207 29.6109 19.413C29.5954 19.3976 29.5723 19.3976 29.5491 19.3899C29.4951 19.3667 29.441 19.3435 29.387 19.3281C29.3407 19.3127 29.2944 19.3049 29.2403 19.3049C29.194 19.3049 29.14 19.3049 29.0936 19.3049C29.0396 19.3049 28.9856 19.3204 28.9315 19.3435C28.9084 19.3513 28.8852 19.3435 28.8621 19.359C28.8389 19.3667 28.8235 19.3899 28.8003 19.4053C28.7463 19.4362 28.7076 19.4671 28.6613 19.5056C28.6227 19.5365 28.5919 19.5751 28.561 19.6137C28.5455 19.6369 28.5147 19.6523 28.4992 19.6755C28.3989 19.8453 26.3608 23.2267 27.1791 26.9708C23.5816 25.6661 19.961 27.2333 19.7757 27.3182C19.7525 27.3259 19.7371 27.3491 19.7139 27.3645C19.6676 27.3877 19.6213 27.4186 19.5827 27.4572C19.5441 27.4958 19.5055 27.5344 19.4746 27.573C19.4592 27.5961 19.436 27.6038 19.4206 27.627C19.4051 27.6502 19.4051 27.6733 19.3974 27.6965C19.3743 27.7428 19.3588 27.7968 19.3434 27.8509C19.3279 27.9049 19.3202 27.9512 19.3125 28.0053C19.3125 28.0516 19.3125 28.0979 19.3125 28.152C19.3125 28.206 19.3279 28.2678 19.3511 28.3218C19.3511 28.345 19.3511 28.3681 19.3665 28.3913C19.3743 28.4144 19.3974 28.4299 19.4129 28.453C19.4437 28.4994 19.4746 28.5457 19.5132 28.592C19.5441 28.6306 19.5827 28.6615 19.6213 28.6924H19.6367ZM28.2213 34.7525C28.0206 33.5945 27.9743 32.0968 28.4992 30.6301C28.8235 32.1509 28.5764 33.6331 28.2213 34.7525ZM34.7446 29.032C33.5866 29.225 32.0967 29.2791 30.6376 28.7618C32.1507 28.4453 33.633 28.6846 34.7446 29.032ZM29.0319 22.5164C29.2249 23.6744 29.2789 25.1721 28.7617 26.6311C28.4375 25.1103 28.6845 23.6358 29.0319 22.5164ZM26.6233 28.4994C25.1102 28.8159 23.6357 28.5766 22.5163 28.2292C23.6743 28.0362 25.1642 27.9821 26.6233 28.4994Z" fill="#220F25"/>
</g>
<defs>
<clipPath id="clip0_28_194">
<rect width="55" height="55" fill="white" transform="matrix(1 0 0 -1 0.5 55.8799)"/>
</clipPath>
</defs>
</svg>
