<svg width="20" height="19" viewBox="0 0 20 19" fill="none" xmlns="http://www.w3.org/2000/svg">
<path d="M2.13989 9.35014C2.13989 9.19014 2.18989 9.06014 2.28989 8.96014C2.38989 8.86014 2.51989 8.81014 2.67989 8.81014H15.9399L12.3999 5.27014C12.2799 5.15014 12.2199 5.01014 12.2199 4.85014C12.2199 4.69014 12.2799 4.56014 12.3999 4.46014C12.5199 4.36014 12.6599 4.31014 12.8199 4.31014C12.9799 4.31014 13.1199 4.35014 13.2399 4.43014L17.7399 8.93014C17.8199 9.05014 17.8599 9.19014 17.8599 9.35014C17.8599 9.51014 17.8199 9.65014 17.7399 9.77014L13.2399 14.2701C13.1199 14.3501 12.9799 14.3901 12.8199 14.3901C12.6599 14.3901 12.5199 14.3401 12.3999 14.2401C12.2799 14.1401 12.2199 14.0101 12.2199 13.8501C12.2199 13.6901 12.2799 13.5501 12.3999 13.4301L15.9399 9.89014H2.67989C2.51989 9.89014 2.38989 9.84014 2.28989 9.74014C2.18989 9.64014 2.13989 9.51014 2.13989 9.35014Z" fill="#260426"/>
</svg>
