<svg width="16" height="17" viewBox="0 0 16 17" fill="none" xmlns="http://www.w3.org/2000/svg">
<path d="M1.01331 8.80003C1.01331 8.65781 1.05775 8.54225 1.14664 8.45336C1.23553 8.36447 1.35108 8.32003 1.49331 8.32003H13.28L10.1333 5.17336C10.0266 5.0667 9.97331 4.94225 9.97331 4.80003C9.97331 4.65781 10.0266 4.54225 10.1333 4.45336C10.24 4.36447 10.3644 4.32003 10.5066 4.32003C10.6489 4.32003 10.7733 4.35559 10.88 4.4267L14.88 8.4267C14.9511 8.53336 14.9866 8.65781 14.9866 8.80003C14.9866 8.94225 14.9511 9.0667 14.88 9.17336L10.88 13.1734C10.7733 13.2445 10.6489 13.28 10.5066 13.28C10.3644 13.28 10.24 13.2356 10.1333 13.1467C10.0266 13.0578 9.97331 12.9423 9.97331 12.8C9.97331 12.6578 10.0266 12.5334 10.1333 12.4267L13.28 9.28003H1.49331C1.35108 9.28003 1.23553 9.23558 1.14664 9.1467C1.05775 9.05781 1.01331 8.94225 1.01331 8.80003Z" fill="black"/>
</svg>
