<svg width="16" height="16" viewBox="0 0 16 16" fill="none" xmlns="http://www.w3.org/2000/svg">
<g clip-path="url(#clip0_0_1289)">
<path d="M8 0.000488281C6.50667 0.000488281 5.39556 0.0182657 4.66667 0.0538216C3.93778 0.0893764 3.30667 0.213821 2.77333 0.427155C2.24 0.640488 1.76889 0.951599 1.36 1.36049C0.951111 1.76938 0.64 2.24049 0.426667 2.77382C0.213333 3.30715 0.0888889 3.93827 0.0533333 4.66715C0.0177778 5.39604 0 6.50715 0 8.00049C0 9.49382 0.0177778 10.6049 0.0533333 11.3338C0.0888889 12.0627 0.213333 12.6938 0.426667 13.2272C0.64 13.7605 0.951111 14.2316 1.36 14.6405C1.76889 15.0494 2.24 15.3605 2.77333 15.5738C3.30667 15.7872 3.93778 15.9116 4.66667 15.9472C5.39556 15.9827 6.50667 16.0005 8 16.0005C9.49333 16.0005 10.6044 15.9827 11.3333 15.9472C12.0622 15.9116 12.6933 15.7872 13.2267 15.5738C13.76 15.3605 14.2311 15.0494 14.64 14.6405C15.0489 14.2316 15.36 13.7605 15.5733 13.2272C15.7867 12.6938 15.9111 12.0627 15.9467 11.3338C15.9822 10.6049 16 9.49382 16 8.00049C16 6.50715 15.9822 5.39604 15.9467 4.66715C15.9111 3.93827 15.7867 3.30715 15.5733 2.77382C15.36 2.24049 15.0489 1.76938 14.64 1.36049C14.2311 0.951599 13.76 0.640488 13.2267 0.427155C12.6933 0.213821 12.0622 0.0893764 11.3333 0.0538216C10.6044 0.0182657 9.49333 0.000488281 8 0.000488281ZM7.30667 1.44049H8C9.49333 1.44049 10.5778 1.45827 11.2533 1.49382C11.8222 1.52938 12.2933 1.61827 12.6667 1.76049C13.04 1.90271 13.36 2.10715 13.6267 2.37382C13.8933 2.64049 14.0978 2.96049 14.24 3.33382C14.3822 3.70715 14.4711 4.17827 14.5067 4.74715C14.5422 5.42271 14.56 6.50715 14.56 8.00049C14.56 9.49382 14.5422 10.5783 14.5067 11.2538C14.4711 11.8227 14.3822 12.2938 14.24 12.6672C14.0978 13.0405 13.8933 13.3605 13.6267 13.6272C13.36 13.8938 13.04 14.0983 12.6667 14.2405C12.2933 14.3827 11.8222 14.4716 11.2533 14.5072C10.5422 14.5427 9.45778 14.5605 8 14.5605C6.54222 14.5605 5.45778 14.5427 4.74667 14.5072C4.17778 14.4716 3.70667 14.3827 3.33333 14.2405C2.96 14.0983 2.64 13.8938 2.37333 13.6272C2.10667 13.3605 1.90222 13.0405 1.76 12.6672C1.61778 12.2938 1.52889 11.8227 1.49333 11.2538C1.45778 10.5427 1.44 9.44938 1.44 7.97382C1.44 6.49827 1.45778 5.42271 1.49333 4.74715C1.52889 4.17827 1.61778 3.70715 1.76 3.33382C1.90222 2.96049 2.10667 2.64049 2.37333 2.37382C2.64 2.10715 2.96 1.90271 3.33333 1.76049C3.70667 1.61827 4.19556 1.52938 4.8 1.49382C5.40444 1.45827 6.24 1.44049 7.30667 1.44049ZM12.2667 2.77382C12.0178 2.77382 11.7956 2.86271 11.6 3.04049C11.4044 3.21827 11.3067 3.44049 11.3067 3.70715C11.3067 3.97382 11.4044 4.20493 11.6 4.40049C11.7956 4.59604 12.0267 4.69382 12.2933 4.69382C12.56 4.69382 12.7822 4.59604 12.96 4.40049C13.1378 4.20493 13.2267 3.97382 13.2267 3.70715C13.2267 3.44049 13.1378 3.21827 12.96 3.04049C12.7822 2.86271 12.5511 2.77382 12.2667 2.77382ZM8 3.89382C7.25333 3.89382 6.56 4.0716 5.92 4.42715C5.28 4.78271 4.77333 5.28049 4.4 5.92049C4.02667 6.56049 3.84 7.25382 3.84 8.00049C3.84 8.74715 4.02667 9.44049 4.4 10.0805C4.77333 10.7205 5.28 11.2183 5.92 11.5738C6.56 11.9294 7.25333 12.1072 8 12.1072C8.74667 12.1072 9.43111 11.9205 10.0533 11.5472C10.6756 11.1738 11.1644 10.676 11.52 10.0538C11.8756 9.4316 12.0533 8.74715 12.0533 8.00049C12.0533 7.25382 11.8756 6.56938 11.52 5.94715C11.1644 5.32493 10.6756 4.82716 10.0533 4.45382C9.43111 4.08049 8.74667 3.89382 8 3.89382ZM8 5.33382C8.46222 5.33382 8.90667 5.44938 9.33333 5.68049C9.76 5.9116 10.0889 6.24049 10.32 6.66715C10.5511 7.09382 10.6667 7.53827 10.6667 8.00049C10.6667 8.46271 10.5511 8.90715 10.32 9.33382C10.0889 9.76049 9.76 10.0894 9.33333 10.3205C8.90667 10.5516 8.46222 10.6672 8 10.6672C7.25333 10.6672 6.62222 10.4094 6.10667 9.89382C5.59111 9.37827 5.33333 8.74715 5.33333 8.00049C5.33333 7.25382 5.59111 6.62271 6.10667 6.10715C6.62222 5.5916 7.25333 5.33382 8 5.33382Z" fill="#260426"/>
</g>
<defs>
<clipPath id="clip0_0_1289">
<rect width="16" height="16" fill="white" transform="matrix(1 0 0 -1 0 16.0005)"/>
</clipPath>
</defs>
</svg>
