<svg width="64" height="56" viewBox="0 0 64 56" fill="none" xmlns="http://www.w3.org/2000/svg">
<g clip-path="url(#clip0_28_180)">
<path d="M46.0961 44.167C46.0961 44.167 46.1267 44.167 46.1498 44.167H46.1651C46.1728 44.167 46.1881 44.167 46.1958 44.167C46.2265 44.167 46.2495 44.1516 46.2802 44.1438C46.6638 44.0821 46.9554 43.7657 46.9554 43.3644C46.9554 43.295 46.9477 43.2178 46.9247 43.156C46.8556 42.3535 46.4567 38.5875 44.6843 34.9296C44.7073 34.9296 44.7303 34.9296 44.761 34.9296C51.8659 34.9296 58.2266 29.3732 58.4951 29.134C58.6716 28.9797 58.7637 28.7636 58.7637 28.5321C58.7637 28.3006 58.6639 28.0768 58.4951 27.9301C58.2266 27.6909 51.8582 22.1346 44.761 22.1346C44.738 22.1346 44.715 22.1346 44.6996 22.1346C46.6408 18.114 46.9324 13.9544 46.9477 13.7538C46.9477 13.7306 46.9477 13.7152 46.9477 13.692C46.9477 13.6766 46.9477 13.6689 46.9477 13.6535C46.9477 13.638 46.9401 13.6226 46.9324 13.6071C46.9247 13.53 46.9017 13.4605 46.871 13.3911C46.8633 13.3679 46.8557 13.3525 46.848 13.3293C46.8019 13.2444 46.7482 13.1673 46.6715 13.1055C46.6638 13.0978 46.6485 13.0901 46.6331 13.0824C46.5794 13.0438 46.5334 13.0052 46.472 12.9743C46.4643 12.9743 46.449 12.9743 46.4413 12.9666C46.403 12.9512 46.3646 12.9435 46.3262 12.9358C46.2649 12.9203 46.2111 12.9126 46.1498 12.9126C46.1267 12.9126 46.1114 12.9049 46.0961 12.9126C45.9042 12.928 41.7763 13.2213 37.7865 15.1583C37.8249 8.00451 32.2775 1.57614 32.0243 1.29061C31.8709 1.12083 31.6561 1.02051 31.4259 1.02051C31.1957 1.02051 30.9809 1.12083 30.8274 1.29061C30.5742 1.58386 25.0115 8.01995 25.0729 15.1892C21.0678 13.2213 16.9015 12.9203 16.7097 12.9126C16.6866 12.9126 16.6636 12.9126 16.6406 12.9126C16.6329 12.9126 16.6176 12.9126 16.6099 12.9126C16.5946 12.9126 16.5869 12.9203 16.5716 12.9203C16.4872 12.928 16.4028 12.9512 16.326 12.9898C16.3184 12.9898 16.303 12.9898 16.2953 13.0052C16.1419 13.0901 16.0115 13.2213 15.9347 13.3834C15.9347 13.3988 15.9347 13.4065 15.9271 13.4219C15.9194 13.4528 15.9117 13.476 15.904 13.5068C15.8887 13.5763 15.8733 13.6457 15.8733 13.7152C15.8733 13.7306 15.8733 13.7461 15.8733 13.7615C15.8887 13.9544 16.1726 18.1062 18.1061 22.1191C18.0907 22.1191 18.0831 22.1191 18.0677 22.1191C10.9705 22.1191 4.60984 27.6755 4.3413 27.907C4.1725 28.0613 4.07275 28.2774 4.07275 28.5089C4.07275 28.7404 4.1725 28.9565 4.3413 29.1109C4.60984 29.3501 10.9705 34.9064 18.0754 34.9064C18.0984 34.9064 18.1138 34.9064 18.1368 34.9064C16.1802 38.9348 15.8887 43.1175 15.8733 43.3104C15.8733 43.3335 15.8733 43.349 15.8733 43.3721C15.8733 43.3876 15.8733 43.403 15.8733 43.4107C15.8733 43.4339 15.881 43.4416 15.8887 43.4647C15.8964 43.5265 15.9117 43.5882 15.9347 43.6499C15.9424 43.6808 15.9577 43.704 15.9654 43.7348C16.0038 43.7966 16.0421 43.8583 16.0959 43.9123C16.1035 43.9278 16.1189 43.9432 16.1265 43.9509C16.1879 44.0049 16.257 44.059 16.3337 44.0898C16.3337 44.0898 16.3414 44.0898 16.3491 44.0898C16.4488 44.1284 16.5485 44.1593 16.6636 44.1593C16.6636 44.1593 16.6943 44.1593 16.7173 44.1593C16.9092 44.1438 21.0524 43.8506 25.0499 41.8982C25.0192 49.0442 30.5589 55.4649 30.8044 55.7504C30.9578 55.9202 31.1727 56.0205 31.4029 56.0205C31.633 56.0205 31.8479 55.9202 32.0013 55.7504C32.2545 55.4649 37.7942 49.0442 37.7635 41.8904C41.761 43.8506 45.9119 44.1438 46.1037 44.1593L46.0961 44.167ZM37.6177 40.0229C37.6024 39.8994 37.5717 39.7837 37.5564 39.6679C37.5333 39.5599 37.518 39.4595 37.495 39.3515C37.4489 39.12 37.3952 38.8962 37.3338 38.6724C37.3185 38.6107 37.3032 38.5412 37.2801 38.4795C37.1957 38.1939 37.1037 37.9084 37.0039 37.6306C36.9732 37.5534 36.9425 37.4762 36.9119 37.3913C36.8351 37.1907 36.7507 36.9901 36.6587 36.7971C36.6126 36.6968 36.5666 36.5965 36.5129 36.5039C36.4285 36.3264 36.3364 36.1566 36.2367 35.9791C36.1829 35.8788 36.1292 35.7862 36.0679 35.6859C35.9604 35.5084 35.853 35.3309 35.7379 35.1534C35.6842 35.0685 35.6305 34.9913 35.5768 34.9064C35.408 34.6672 35.2315 34.428 35.0474 34.1965C35.0397 34.181 35.032 34.1733 35.0244 34.1579C35.0244 34.1579 35.0244 34.1502 35.0167 34.1424C35.0397 34.127 35.0704 34.1038 35.0934 34.0884C35.1855 34.0267 35.2699 33.9649 35.3543 33.9032C35.408 33.8646 35.454 33.8338 35.5078 33.7952L43.9017 42.2377C42.206 41.9059 39.8198 41.2576 37.6331 40.0229H37.6177ZM25.1957 40.0152C23.0089 41.2422 20.6227 41.8982 18.9194 42.23L27.1368 33.9649C27.3056 34.0884 27.4821 34.2042 27.6586 34.3122C26.3235 36.0177 25.5026 37.9315 25.188 40.0152H25.1957ZM19.9706 22.2658C18.7583 20.0741 18.1138 17.6818 17.7838 15.9763L25.7788 24.0176C25.6407 24.1873 25.5179 24.3648 25.4028 24.55C23.7685 23.323 21.9501 22.5667 19.9706 22.2658ZM29.2238 33.309C28.6254 33.0698 28.0883 32.7302 27.6202 32.298C27.3824 32.082 27.1752 31.8427 26.9834 31.5958C26.9297 31.5186 26.8836 31.4414 26.8376 31.3643C26.7149 31.1791 26.5844 31.0016 26.4847 30.8086C26.4847 30.8009 26.477 30.7855 26.4693 30.7778C26.1701 30.2067 25.9859 29.5893 25.9092 28.9411C25.8862 28.7482 25.8785 28.5398 25.8785 28.3392C25.8785 28.262 25.8785 28.1848 25.8785 28.0845C25.9092 27.3899 26.0703 26.734 26.3619 26.1089C26.6151 25.5378 26.9757 25.0208 27.4361 24.5578C27.9041 24.087 28.4412 23.7166 29.032 23.4542C29.6305 23.1841 30.275 23.022 30.9655 22.9912C31.0269 22.9912 31.0883 22.9912 31.1497 22.9912C31.3568 22.9912 31.587 23.0066 31.7942 23.022C32.4463 23.0915 33.0678 23.2844 33.6433 23.5854C34.2187 23.8864 34.7175 24.2722 35.1318 24.743C35.5538 25.2137 35.9067 25.7771 36.1446 26.3713C36.3748 26.9424 36.4975 27.5674 36.5205 28.1848V28.3392C36.5205 28.5012 36.5205 28.6633 36.4975 28.8176C36.4745 29.1186 36.4208 29.4195 36.3441 29.7051C36.2673 29.9983 36.1676 30.2762 36.0372 30.554C35.7686 31.1405 35.408 31.6652 34.9476 32.1205C34.7328 32.3443 34.4949 32.545 34.2418 32.7225C33.9886 32.9 33.7123 33.062 33.4208 33.2009C32.876 33.4556 32.2929 33.6177 31.6791 33.664C31.5256 33.6794 31.3645 33.6871 31.2034 33.6871H31.0729C30.4208 33.664 29.7993 33.5405 29.2315 33.3013L29.2238 33.309ZM37.6331 17.049C39.8121 15.8297 42.183 15.1814 43.8863 14.8496L35.6996 23.0838C35.5384 22.9449 35.3773 22.8137 35.2008 22.6825C36.5052 20.9924 37.3185 19.1017 37.6331 17.0567V17.049ZM42.8045 34.7752C44.0321 36.9746 44.6843 39.3747 45.0142 41.0956L36.6203 32.653C36.7507 32.491 36.8658 32.3212 36.9809 32.1514C38.7149 33.5714 40.6638 34.4511 42.8045 34.783V34.7752ZM56.692 28.5321C54.8583 29.9443 49.9247 33.3244 44.761 33.3244C44.3006 33.3244 43.848 33.3013 43.4106 33.2472C41.3083 32.9926 39.3901 32.1283 37.7252 30.6697C37.7252 30.6697 37.7252 30.662 37.7252 30.6543C37.8096 30.4151 37.8786 30.1681 37.94 29.9134C37.9553 29.8517 37.9707 29.7823 37.9784 29.7205C38.0321 29.4659 38.0704 29.2035 38.0934 28.9411C38.1088 28.7404 38.1165 28.5321 38.1165 28.3237V28.1462C38.1088 27.8607 38.0781 27.5829 38.0397 27.3051C38.0321 27.2433 38.0167 27.1739 38.009 27.1121C37.963 26.842 37.9016 26.5719 37.8249 26.3095C37.8709 26.2632 37.917 26.2247 37.9707 26.1861C38.0704 26.1089 38.1702 26.024 38.2622 25.9546C38.385 25.862 38.5078 25.7693 38.6229 25.6845C38.7226 25.615 38.83 25.5378 38.9374 25.4684C39.0602 25.3835 39.183 25.3063 39.3134 25.2369C39.4208 25.1751 39.5282 25.1057 39.6357 25.0517C39.7661 24.9822 39.8965 24.9127 40.027 24.851C40.1344 24.797 40.2418 24.743 40.3569 24.6889C40.495 24.6272 40.6331 24.5732 40.7712 24.5115C40.8786 24.4652 40.986 24.4188 41.0935 24.3803C41.2392 24.3262 41.3927 24.2799 41.5385 24.2336C41.6382 24.2028 41.7456 24.1642 41.8454 24.1333C42.0142 24.087 42.183 24.0484 42.3595 24.0098C42.4515 23.9867 42.5359 23.9635 42.628 23.9481C42.8889 23.8941 43.1574 23.8555 43.426 23.8169C43.8633 23.7629 44.316 23.7397 44.7687 23.7397C49.9324 23.7397 54.8736 27.1198 56.6997 28.5321H56.692ZM42.8275 22.2812C42.7124 22.2966 42.5973 22.3275 42.4746 22.3429C42.3748 22.3584 42.2751 22.3738 42.183 22.397C41.9451 22.4433 41.715 22.505 41.4848 22.5667C41.4311 22.5822 41.3774 22.5899 41.3313 22.6053C41.0551 22.6825 40.7789 22.7751 40.5027 22.8754C40.4259 22.9063 40.3492 22.9372 40.2648 22.968C40.073 23.0452 39.8812 23.1224 39.6894 23.2073C39.5896 23.2536 39.4975 23.2999 39.3978 23.3462C39.229 23.4311 39.0602 23.5159 38.8914 23.6086C38.7993 23.6626 38.6996 23.7166 38.6075 23.7706C38.431 23.8709 38.2546 23.9867 38.0858 24.0947C38.009 24.1488 37.9323 24.1951 37.8556 24.2491C37.6177 24.4111 37.3876 24.5809 37.1574 24.7661C37.142 24.743 37.1267 24.7198 37.1113 24.6967C37.05 24.5963 36.9886 24.5037 36.9195 24.4034C36.8812 24.3417 36.8428 24.2799 36.8044 24.2259L45.0219 15.9609C44.692 17.6664 44.0474 20.0664 42.8275 22.2581V22.2812ZM31.4259 3.09642C32.9451 5.09515 36.7737 10.7672 36.1139 16.4393C35.876 18.4304 35.1011 20.2593 33.7967 21.8799C33.7967 21.8799 33.7814 21.8799 33.7737 21.8799C33.5205 21.7796 33.2673 21.6947 32.9988 21.6252C32.9297 21.6098 32.8607 21.5867 32.7916 21.5712C32.5154 21.5095 32.2469 21.4555 31.963 21.4246C31.5947 21.386 31.1573 21.3629 30.8581 21.3937C30.5665 21.4092 30.275 21.4478 29.9911 21.5018C29.922 21.5172 29.8606 21.5249 29.7916 21.5404C29.5077 21.6021 29.2315 21.6716 28.9553 21.7642C28.9553 21.7642 28.9016 21.6947 28.8709 21.6638C28.8018 21.5712 28.7328 21.4709 28.6637 21.3783C28.5793 21.2625 28.4949 21.1468 28.4182 21.0233C28.3568 20.9307 28.2954 20.8304 28.234 20.7301C28.1573 20.6066 28.0883 20.4908 28.0192 20.3674C27.9655 20.267 27.9041 20.1667 27.8581 20.0664C27.7967 19.9429 27.7353 19.8194 27.6739 19.696C27.6279 19.5956 27.5742 19.4876 27.5282 19.3873C27.4744 19.2638 27.4207 19.1326 27.3747 19.0014C27.3363 18.8934 27.2903 18.7931 27.2519 18.685C27.2059 18.5538 27.1675 18.4226 27.1292 18.2837C27.0985 18.1757 27.0601 18.0754 27.0371 17.9673C26.9987 17.8207 26.968 17.6741 26.9374 17.5275C26.9143 17.4271 26.8913 17.3345 26.876 17.2342C26.8376 17.0258 26.8069 16.8098 26.7762 16.5937C26.7762 16.5551 26.7609 16.5242 26.7609 16.4856C26.0703 10.8058 29.9144 5.11059 31.4412 3.11185L31.4259 3.09642ZM25.2187 17.0721C25.2187 17.1184 25.2417 17.1647 25.2494 17.2111C25.3184 17.6432 25.4105 18.0676 25.5256 18.4844C25.5333 18.5152 25.5486 18.5461 25.5563 18.577C25.6714 18.9706 25.8095 19.3641 25.9629 19.75C25.9936 19.8272 26.0243 19.9043 26.055 19.9738C26.2238 20.3674 26.4079 20.7455 26.6228 21.1236C26.6611 21.1931 26.7072 21.2703 26.7532 21.3397C26.968 21.7101 27.2059 22.0728 27.4591 22.4278C27.4668 22.4433 27.4744 22.4587 27.4898 22.4741C27.4591 22.4896 27.4361 22.5127 27.4054 22.5359C27.2903 22.613 27.1752 22.6979 27.0678 22.7751C27.0141 22.8137 26.9604 22.8446 26.9143 22.8909L18.9271 14.8573C20.6381 15.1892 23.0396 15.8451 25.2264 17.0799L25.2187 17.0721ZM6.12903 28.5089C7.95513 27.1044 12.881 23.7243 18.0524 23.7243C18.4974 23.7243 18.9347 23.7475 19.3644 23.8015C21.3133 24.0253 23.0933 24.7661 24.6662 26.0163C24.6662 26.0163 24.6662 26.024 24.6662 26.0317C24.5665 26.3095 24.4898 26.5951 24.4284 26.8883C24.413 26.9578 24.3977 27.0272 24.39 27.1044C24.3363 27.3977 24.298 27.6909 24.2826 27.9842C24.2749 28.0999 24.2749 28.2157 24.2749 28.3392C24.2749 28.6015 24.2903 28.8562 24.321 29.1109C24.3517 29.3887 24.4054 29.6665 24.4668 29.9366C24.4821 30.0061 24.4974 30.0678 24.5128 30.1372C24.5818 30.3996 24.6662 30.6697 24.7737 30.9244C24.7353 30.9553 24.7046 30.9861 24.6662 31.0093C24.5742 31.0787 24.4821 31.1482 24.39 31.2176C24.2673 31.3102 24.1445 31.3951 24.0217 31.48C23.9297 31.5418 23.8299 31.6035 23.7378 31.6652C23.6074 31.7424 23.4846 31.8273 23.3542 31.8967C23.2621 31.9508 23.1624 32.0048 23.0627 32.0588C22.9322 32.1283 22.7941 32.1977 22.6637 32.2595C22.5639 32.3058 22.4719 32.3521 22.3721 32.3984C22.234 32.4601 22.0882 32.5141 21.9501 32.5681C21.8504 32.6067 21.7583 32.6453 21.6586 32.6839C21.5128 32.7379 21.3593 32.7842 21.2059 32.8305C21.1138 32.8614 21.0217 32.8923 20.922 32.9154C20.7532 32.9617 20.5844 33.0003 20.4156 33.0389C20.3312 33.0543 20.2544 33.0775 20.17 33.0929C19.9168 33.1392 19.6636 33.1855 19.4028 33.2164C18.9654 33.2704 18.5127 33.2936 18.0601 33.2936C12.8963 33.2936 7.9628 29.9134 6.12903 28.5012V28.5089ZM19.9936 34.7675C20.101 34.7521 20.2007 34.7289 20.3082 34.7058C20.4079 34.6903 20.5153 34.6672 20.6151 34.6518C20.8222 34.6055 21.0294 34.5592 21.2365 34.5051C21.3056 34.4897 21.3747 34.4743 21.4437 34.4511C21.7123 34.374 21.9808 34.2891 22.2417 34.1887C22.3107 34.1656 22.3875 34.1347 22.4565 34.1038C22.6483 34.0267 22.8401 33.9495 23.032 33.8646C23.124 33.826 23.2238 33.7797 23.3158 33.7334C23.4846 33.6563 23.6458 33.5714 23.8069 33.4865C23.899 33.4325 23.9987 33.3862 24.0908 33.3321C24.2519 33.2395 24.4207 33.1392 24.5818 33.0389C24.6662 32.9849 24.7506 32.9386 24.835 32.8768C25.0499 32.7379 25.257 32.5836 25.4642 32.4292C25.4949 32.4061 25.5179 32.3906 25.5486 32.3675C25.5716 32.3984 25.5946 32.4292 25.6177 32.4601C25.6867 32.5527 25.7558 32.6376 25.8248 32.7302C25.8632 32.7842 25.9015 32.8305 25.9476 32.8845L17.7762 41.1033C18.1061 39.3824 18.7506 36.9746 19.9782 34.7752L19.9936 34.7675ZM31.3952 53.9446C29.876 51.9536 26.0473 46.2892 26.7072 40.6171C26.945 38.5412 27.7737 36.6505 29.1624 34.9913C29.1624 34.9913 29.1624 34.9913 29.1701 34.9913C29.431 35.0685 29.6995 35.1302 29.9757 35.1765C30.0448 35.192 30.1062 35.1997 30.1752 35.2074C30.4591 35.246 30.743 35.2769 31.0346 35.2846H31.188C31.3952 35.2846 31.6024 35.2769 31.8018 35.2614C32.0704 35.2383 32.3313 35.192 32.5845 35.1457C32.6535 35.1302 32.7149 35.1148 32.7839 35.0994C33.0295 35.0376 33.275 34.9759 33.5128 34.891C33.5128 34.891 33.5205 34.891 33.5282 34.891C33.5666 34.9373 33.6126 34.9836 33.651 35.0299C33.7354 35.1302 33.8121 35.2383 33.8965 35.3386C33.9886 35.4621 34.0806 35.5855 34.1727 35.709C34.2494 35.8171 34.3185 35.9251 34.3952 36.0254C34.4796 36.1566 34.5563 36.2801 34.6407 36.4113C34.7098 36.5193 34.7712 36.6273 34.8326 36.7354C34.9093 36.8666 34.9783 37.0055 35.0397 37.1367C35.0934 37.2447 35.1471 37.3605 35.2008 37.4685C35.2622 37.6074 35.3236 37.7463 35.3773 37.893C35.4234 38.001 35.4694 38.109 35.5078 38.2248C35.5615 38.3791 35.6075 38.5258 35.6612 38.6801C35.6919 38.7881 35.7303 38.8962 35.761 38.9965C35.807 39.1663 35.8453 39.3438 35.8837 39.5136C35.9067 39.6062 35.9297 39.6988 35.9451 39.7914C35.9988 40.046 36.0372 40.3084 36.0679 40.5708C36.0679 40.5862 36.0679 40.594 36.0679 40.6094C36.7354 46.2738 32.899 51.9459 31.3798 53.9446H31.3952Z" fill="#220F25"/>
</g>
<defs>
<clipPath id="clip0_28_180">
<rect width="64" height="55" fill="white" transform="translate(0 0.879883)"/>
</clipPath>
</defs>
</svg>
