<svg width="56" height="48" viewBox="0 0 56 48" fill="none" xmlns="http://www.w3.org/2000/svg">
<g clip-path="url(#clip0_11_216)">
<path d="M0.513769 14.3154C0.520702 14.3642 0.534568 14.4061 0.548434 14.4479C0.5623 14.4897 0.5831 14.5316 0.610832 14.5734C0.631631 14.6152 0.65243 14.6501 0.680163 14.685C0.714828 14.7268 0.756426 14.7616 0.798025 14.7965C0.825757 14.8174 0.853489 14.8453 0.888154 14.8662C0.888154 14.8662 0.902021 14.8732 0.908954 14.8802C0.99215 14.929 3.03047 16.0724 3.59205 19.447C3.64751 19.7956 3.70298 20.3743 3.77231 21.1064C4.38935 27.7301 6.26821 47.8799 26.1384 47.8799C26.7485 47.8799 27.3794 47.859 28.0103 47.8171C28.6412 47.852 29.2721 47.8799 29.8822 47.8799C49.7524 47.8799 51.6243 27.7301 52.2414 21.1064C52.3107 20.3743 52.3662 19.8026 52.4216 19.447C52.9832 16.0724 55.0215 14.922 55.0978 14.8802C55.1047 14.8802 55.1116 14.8662 55.1186 14.8593C55.1463 14.8453 55.1671 14.8244 55.1879 14.8035C55.2434 14.7616 55.2919 14.7198 55.3335 14.671C55.3543 14.6431 55.3682 14.6222 55.382 14.5943C55.4167 14.5385 55.4444 14.4828 55.4652 14.427C55.4722 14.3921 55.486 14.3642 55.493 14.3363C55.5068 14.2736 55.5068 14.2039 55.4999 14.1341C55.4999 14.1132 55.4999 14.0923 55.4999 14.0714C55.4999 14.0575 55.493 14.0505 55.493 14.0435C55.493 14.0296 55.493 14.0156 55.493 14.0017C55.4791 13.9598 55.4583 13.918 55.4375 13.8831C55.4236 13.8483 55.4167 13.8204 55.3959 13.7925C55.3682 13.7437 55.3266 13.7019 55.2919 13.667C55.2711 13.6461 55.2503 13.6112 55.2226 13.5903C55.181 13.5554 55.1325 13.5345 55.0839 13.5066C55.0562 13.4927 55.0285 13.4718 54.9938 13.4578C54.9314 13.4369 54.869 13.4299 54.7997 13.423C54.7789 13.423 54.7511 13.409 54.7303 13.409C54.7303 13.409 54.7303 13.409 54.7234 13.409H46.5632C45.4123 13.409 44.2822 13.5206 43.1799 13.7158C43.686 9.26054 42.5004 5.74652 42.4449 5.58616C42.4449 5.58616 42.4449 5.57919 42.438 5.57221C42.438 5.57221 42.438 5.57221 42.438 5.56524C42.4241 5.53038 42.4033 5.50249 42.3825 5.4746C42.3617 5.43974 42.3479 5.39791 42.3201 5.36305C42.2924 5.32818 42.2578 5.30029 42.2231 5.27241C42.1954 5.25149 42.1746 5.2236 42.1468 5.20268C42.0983 5.16782 42.0428 5.14691 41.9874 5.12599C41.9735 5.12599 41.9596 5.11204 41.9388 5.10507C41.8626 5.08415 41.7863 5.07021 41.7031 5.07021C41.6892 5.07021 41.6754 5.07718 41.6546 5.07718C41.5852 5.07718 41.5159 5.09113 41.4466 5.11204C41.4466 5.11204 41.4466 5.11204 41.4396 5.11204C41.4396 5.11204 41.4327 5.11204 41.4258 5.11204C41.2733 5.16782 37.9662 6.48558 34.9711 9.63007C32.3435 4.74251 28.7521 1.29822 28.5372 1.09602C28.4887 1.05419 28.4332 1.0263 28.3778 0.998411C28.35 0.984467 28.3223 0.956578 28.2946 0.942633C28.2044 0.907772 28.1004 0.879883 28.0034 0.879883C27.9063 0.879883 27.8023 0.9008 27.7122 0.942633C27.6845 0.956578 27.6567 0.977494 27.629 0.998411C27.5735 1.0263 27.5181 1.05419 27.4695 1.09602C27.2546 1.29822 23.6563 4.74949 21.0356 9.63007C18.0336 6.48558 14.7335 5.17479 14.581 5.11204H14.5671C14.5671 5.11204 14.5671 5.11204 14.5602 5.11204C14.4908 5.09113 14.4215 5.08415 14.3522 5.07718C14.3383 5.07718 14.3244 5.07021 14.3036 5.07021C14.2204 5.07021 14.1442 5.08415 14.0679 5.10507C14.0471 5.10507 14.0332 5.12599 14.0124 5.13296C13.9639 5.15388 13.9085 5.17479 13.8599 5.20966C13.8322 5.23057 13.8114 5.25846 13.7837 5.27938C13.749 5.30727 13.7213 5.33516 13.6935 5.37002C13.6658 5.40488 13.6519 5.44671 13.6311 5.48157C13.6173 5.50946 13.5895 5.53735 13.5826 5.57221C13.5826 5.57221 13.5826 5.57221 13.5826 5.57919C13.5826 5.57919 13.5826 5.58616 13.5757 5.59313C13.5202 5.75349 12.3346 9.26751 12.8408 13.7228C11.7384 13.5276 10.6152 13.416 9.45742 13.416H1.28334C1.28334 13.416 1.28334 13.416 1.27641 13.416C1.25561 13.416 1.22787 13.423 1.20708 13.4299C1.14468 13.4299 1.07535 13.4439 1.01295 13.4648C0.971351 13.4788 0.936686 13.5066 0.902021 13.5276C0.860422 13.5485 0.818824 13.5694 0.784159 13.5973C0.749493 13.6252 0.721761 13.667 0.687096 13.7019C0.666296 13.7298 0.638564 13.7576 0.617765 13.7925C0.590033 13.8343 0.576167 13.8831 0.555367 13.932C0.548434 13.9598 0.527635 13.9808 0.520702 14.0156C0.520702 14.0226 0.520702 14.0365 0.520702 14.0435C0.520702 14.0575 0.506836 14.0714 0.506836 14.0923C0.506836 14.1272 0.506836 14.1551 0.506836 14.183C0.506836 14.2318 0.506836 14.2806 0.513769 14.3363V14.3154ZM5.31838 20.967C5.24905 20.207 5.19359 19.6004 5.12426 19.196C4.88853 17.7597 4.41015 16.6442 3.89017 15.8005C7.13485 17.1252 12.404 20.4022 14.7196 28.1902C16.5915 34.4792 19.552 42.6646 24.627 46.2693C7.59243 45.2932 5.94929 27.7091 5.31838 20.967ZM50.6814 20.96C50.0505 27.7022 48.4074 45.2862 31.3728 46.2623C36.4409 42.6577 39.4083 34.4792 41.2802 28.1832C43.6236 20.2907 48.8927 17.0416 52.1304 15.7517C51.5966 16.6023 51.1182 17.7249 50.8755 19.1821C50.8062 19.5865 50.7508 20.1861 50.6814 20.953V20.96ZM50.1753 14.9708C46.6533 16.7348 41.9735 20.3813 39.7826 27.737C37.7721 34.5001 34.4789 43.5431 28.7799 45.9346V32.8547C28.7799 24.4252 34.6106 17.3484 42.4241 15.4658C43.7484 15.1451 45.135 14.9708 46.5562 14.9708H50.1684H50.1753ZM41.2039 6.93878C41.5228 8.24956 42.0082 10.9687 41.5575 14.0714C40.0669 14.4758 38.6387 15.0475 37.3075 15.7796C36.954 14.1551 36.3924 12.5863 35.7129 11.1221C37.7374 8.86312 40.0253 7.52445 41.197 6.9318L41.2039 6.93878ZM27.9964 2.77634C29.6465 4.49849 34.7007 10.2157 35.8863 16.6442C32.1285 19.1542 29.286 22.9471 27.9964 27.4024C26.7 22.9471 23.8643 19.1542 20.0997 16.6442C21.2852 10.2157 26.3394 4.49849 27.9964 2.77634ZM14.7959 6.93878C15.9676 7.53142 18.2624 8.87009 20.2799 11.1221C19.6005 12.5863 19.0389 14.1551 18.6853 15.7796C17.3542 15.0475 15.9329 14.4758 14.4423 14.0714C13.9916 10.9687 14.477 8.24956 14.7959 6.93878ZM27.2199 32.8547V45.9346C21.521 43.5431 18.2277 34.5001 16.2172 27.737C14.0263 20.3813 9.34649 16.7348 5.8245 14.9708H9.43662C19.24 14.9708 27.2199 22.9959 27.2199 32.8547Z" fill="#260426"/>
</g>
<defs>
<clipPath id="clip0_11_216">
<rect width="55" height="47" fill="white" transform="translate(0.5 0.879883)"/>
</clipPath>
</defs>
</svg>
