<svg width="56" height="47" viewBox="0 0 56 47" fill="none" xmlns="http://www.w3.org/2000/svg">
<g clip-path="url(#clip0_0_250)">
<path d="M0.513866 13.4355C0.520799 13.4843 0.534665 13.5262 0.548532 13.568C0.562398 13.6098 0.583197 13.6517 0.610929 13.6935C0.631728 13.7353 0.652528 13.7702 0.68026 13.8051C0.714925 13.8469 0.756524 13.8818 0.798122 13.9166C0.825854 13.9375 0.853586 13.9654 0.888252 13.9864C0.888252 13.9864 0.902118 13.9933 0.909051 14.0003C0.992248 14.0491 3.03057 15.1926 3.59215 18.5671C3.64761 18.9157 3.70308 19.4944 3.77241 20.2265C4.38945 26.8502 6.26831 47 26.1385 47C26.7486 47 27.3795 46.9791 28.0104 46.9372C28.6413 46.9721 29.2722 47 29.8823 47C49.7525 47 51.6244 26.8502 52.2415 20.2265C52.3108 19.4944 52.3663 18.9227 52.4217 18.5671C52.9833 15.1926 55.0216 14.0421 55.0979 14.0003C55.1048 14.0003 55.1117 13.9864 55.1187 13.9794C55.1464 13.9654 55.1672 13.9445 55.188 13.9236C55.2435 13.8818 55.292 13.8399 55.3336 13.7911C55.3544 13.7632 55.3683 13.7423 55.3821 13.7144C55.4168 13.6587 55.4445 13.6029 55.4653 13.5471C55.4723 13.5122 55.4861 13.4843 55.4931 13.4565C55.5069 13.3937 55.5069 13.324 55.5 13.2543C55.5 13.2333 55.5 13.2124 55.5 13.1915C55.5 13.1776 55.4931 13.1706 55.4931 13.1636C55.4931 13.1497 55.4931 13.1357 55.4931 13.1218C55.4792 13.08 55.4584 13.0381 55.4376 13.0033C55.4237 12.9684 55.4168 12.9405 55.396 12.9126C55.3683 12.8638 55.3267 12.822 55.292 12.7871C55.2712 12.7662 55.2504 12.7313 55.2227 12.7104C55.1811 12.6756 55.1325 12.6546 55.084 12.6268C55.0563 12.6128 55.0286 12.5919 54.9939 12.578C54.9315 12.557 54.8691 12.5501 54.7998 12.5431C54.779 12.5431 54.7512 12.5291 54.7304 12.5291C54.7304 12.5291 54.7304 12.5291 54.7235 12.5291H46.5633C45.4124 12.5291 44.2823 12.6407 43.1799 12.8359C43.6861 8.38066 42.5005 4.86664 42.445 4.70627C42.445 4.70627 42.445 4.6993 42.4381 4.69233C42.4381 4.69233 42.4381 4.69233 42.4381 4.68536C42.4242 4.6505 42.4034 4.62261 42.3826 4.59472C42.3618 4.55986 42.348 4.51802 42.3202 4.48316C42.2925 4.4483 42.2578 4.42041 42.2232 4.39252C42.1955 4.37161 42.1747 4.34372 42.1469 4.3228C42.0984 4.28794 42.0429 4.26702 41.9875 4.24611C41.9736 4.24611 41.9597 4.23216 41.9389 4.22519C41.8627 4.20427 41.7864 4.19033 41.7032 4.19033C41.6893 4.19033 41.6755 4.1973 41.6547 4.1973C41.5853 4.1973 41.516 4.21124 41.4467 4.23216C41.4467 4.23216 41.4467 4.23216 41.4397 4.23216C41.4397 4.23216 41.4328 4.23216 41.4259 4.23216C41.2734 4.28794 37.9663 5.6057 34.9712 8.75019C32.3436 3.86263 28.7522 0.418336 28.5373 0.21614C28.4888 0.174306 28.4333 0.146417 28.3779 0.118528C28.3501 0.104584 28.3224 0.0766948 28.2947 0.0627503C28.2045 0.027889 28.1005 0 28.0035 0C27.9064 0 27.8024 0.0209168 27.7123 0.0627503C27.6845 0.0766948 27.6568 0.0976116 27.6291 0.118528C27.5736 0.146417 27.5182 0.174306 27.4696 0.21614C27.2547 0.418336 23.6564 3.8696 21.0357 8.75019C18.0337 5.6057 14.7336 4.29491 14.5811 4.23216H14.5672C14.5672 4.23216 14.5672 4.23216 14.5603 4.23216C14.4909 4.21124 14.4216 4.20427 14.3523 4.1973C14.3384 4.1973 14.3245 4.19033 14.3037 4.19033C14.2205 4.19033 14.1443 4.20427 14.068 4.22519C14.0472 4.22519 14.0333 4.24611 14.0125 4.25308C13.964 4.27399 13.9085 4.29491 13.86 4.32977C13.8323 4.35069 13.8115 4.37858 13.7838 4.3995C13.7491 4.42738 13.7214 4.45527 13.6936 4.49013C13.6659 4.525 13.652 4.56683 13.6312 4.60169C13.6174 4.62958 13.5896 4.65747 13.5827 4.69233C13.5827 4.69233 13.5827 4.69233 13.5827 4.6993C13.5827 4.6993 13.5827 4.70627 13.5758 4.71325C13.5203 4.87361 12.3347 8.38763 12.8409 12.8429C11.7385 12.6477 10.6153 12.5361 9.45752 12.5361H1.28344C1.28344 12.5361 1.28344 12.5361 1.2765 12.5361C1.2557 12.5361 1.22797 12.5431 1.20717 12.5501C1.14478 12.5501 1.07544 12.564 1.01305 12.5849C0.971449 12.5989 0.936783 12.6268 0.902118 12.6477C0.860519 12.6686 0.818921 12.6895 0.784256 12.7174C0.74959 12.7453 0.721858 12.7871 0.687193 12.822C0.666394 12.8499 0.638661 12.8778 0.617862 12.9126C0.59013 12.9545 0.576264 13.0033 0.555465 13.0521C0.548532 13.08 0.527732 13.1009 0.520799 13.1357C0.520799 13.1427 0.520799 13.1567 0.520799 13.1636C0.520799 13.1776 0.506933 13.1915 0.506933 13.2124C0.506933 13.2473 0.506933 13.2752 0.506933 13.3031C0.506933 13.3519 0.506933 13.4007 0.513866 13.4565V13.4355ZM5.31848 20.0871C5.24915 19.3271 5.19368 18.7205 5.12435 18.3161C4.88863 16.8798 4.41025 15.7643 3.89027 14.9206C7.13494 16.2454 12.4041 19.5223 14.7197 27.3103C16.5916 33.5993 19.5521 41.7847 24.6271 45.3894C7.59253 44.4133 5.94939 26.8293 5.31848 20.0871ZM50.6815 20.0801C50.0506 26.8223 48.4075 44.4063 31.3729 45.3824C36.441 41.7778 39.4084 33.5993 41.2803 27.3034C43.6237 19.4108 48.8928 16.1617 52.1305 14.8718C51.5967 15.7224 51.1183 16.845 50.8756 18.3022C50.8063 18.7066 50.7508 19.3062 50.6815 20.0731V20.0801ZM50.1754 14.0909C46.6534 15.8549 41.9736 19.5014 39.7827 26.8571C37.7722 33.6202 34.479 42.6633 28.78 45.0547V31.9748C28.78 23.5453 34.6107 16.4685 42.4242 14.586C43.7485 14.2652 45.1351 14.0909 46.5563 14.0909H50.1685H50.1754ZM41.204 6.05889C41.5229 7.36968 42.0083 10.0889 41.5576 13.1915C40.067 13.5959 38.6388 14.1676 37.3076 14.8997C36.9541 13.2752 36.3925 11.7064 35.713 10.2422C37.7375 7.98324 40.0254 6.64456 41.1971 6.05192L41.204 6.05889ZM27.9965 1.89645C29.6466 3.6186 34.7008 9.33585 35.8864 15.7643C32.1286 18.2743 29.2861 22.0672 27.9965 26.5225C26.7001 22.0672 23.8644 18.2743 20.0998 15.7643C21.2853 9.33585 26.3395 3.6186 27.9965 1.89645ZM14.796 6.05889C15.9677 6.65153 18.2625 7.99021 20.28 10.2422C19.6006 11.7064 19.039 13.2752 18.6854 14.8997C17.3543 14.1676 15.933 13.5959 14.4424 13.1915C13.9917 10.0889 14.4771 7.36968 14.796 6.05889ZM27.22 31.9748V45.0547C21.5211 42.6633 18.2278 33.6202 16.2173 26.8571C14.0264 19.5014 9.34659 15.8549 5.82459 14.0909H9.43672C19.2401 14.0909 27.22 22.116 27.22 31.9748Z" fill="#260426"/>
</g>
<defs>
<clipPath id="clip0_0_250">
<rect width="55" height="47" fill="white" transform="translate(0.5)"/>
</clipPath>
</defs>
</svg>
