<svg width="23" height="22" viewBox="0 0 23 22" fill="none" xmlns="http://www.w3.org/2000/svg">
<path fill-rule="evenodd" clip-rule="evenodd" d="M3.71667 14.6667H18.3833V4.58333H3.71667V14.6667ZM11.9667 16.5V18.3333H15.6333V20.1667H6.46667V18.3333H10.1333V16.5H2.79267C2.6723 16.4993 2.55325 16.4748 2.44236 16.428C2.33146 16.3812 2.23089 16.3129 2.14641 16.2272C2.06194 16.1414 1.99522 16.0399 1.95007 15.9283C1.90493 15.8167 1.88225 15.6973 1.88334 15.5769V3.67308C1.88334 3.16342 2.30042 2.75 2.79267 2.75H19.3073C19.8097 2.75 20.2167 3.16158 20.2167 3.67308V15.5769C20.2167 16.0866 19.7996 16.5 19.3073 16.5H11.9667Z" fill="#262626"/>
</svg>
