<svg width="23" height="22" viewBox="0 0 23 22" fill="none" xmlns="http://www.w3.org/2000/svg">
<path fill-rule="evenodd" clip-rule="evenodd" d="M5.55013 3.66683V18.3335H16.5501V3.66683H5.55013ZM4.63346 1.8335H17.4668C17.7099 1.8335 17.9431 1.93007 18.115 2.10198C18.2869 2.27389 18.3835 2.50705 18.3835 2.75016V19.2502C18.3835 19.4933 18.2869 19.7264 18.115 19.8983C17.9431 20.0703 17.7099 20.1668 17.4668 20.1668H4.63346C4.39035 20.1668 4.15719 20.0703 3.98528 19.8983C3.81337 19.7264 3.7168 19.4933 3.7168 19.2502V2.75016C3.7168 2.50705 3.81337 2.27389 3.98528 2.10198C4.15719 1.93007 4.39035 1.8335 4.63346 1.8335ZM11.0501 15.5835C11.2932 15.5835 11.5264 15.6801 11.6983 15.852C11.8702 16.0239 11.9668 16.257 11.9668 16.5002C11.9668 16.7433 11.8702 16.9764 11.6983 17.1483C11.5264 17.3203 11.2932 17.4168 11.0501 17.4168C10.807 17.4168 10.5739 17.3203 10.4019 17.1483C10.23 16.9764 10.1335 16.7433 10.1335 16.5002C10.1335 16.257 10.23 16.0239 10.4019 15.852C10.5739 15.6801 10.807 15.5835 11.0501 15.5835Z" fill="#262626"/>
</svg>
