<svg width="23" height="22" viewBox="0 0 23 22" fill="none" xmlns="http://www.w3.org/2000/svg">
<path fill-rule="evenodd" clip-rule="evenodd" d="M6.46663 3.66683V18.3335H15.6333V3.66683H6.46663ZM5.54997 1.8335H16.55C16.7931 1.8335 17.0262 1.93007 17.1981 2.10198C17.3701 2.27389 17.4666 2.50705 17.4666 2.75016V19.2502C17.4666 19.4933 17.3701 19.7264 17.1981 19.8983C17.0262 20.0703 16.7931 20.1668 16.55 20.1668H5.54997C5.30685 20.1668 5.07369 20.0703 4.90179 19.8983C4.72988 19.7264 4.6333 19.4933 4.6333 19.2502V2.75016C4.6333 2.50705 4.72988 2.27389 4.90179 2.10198C5.07369 1.93007 5.30685 1.8335 5.54997 1.8335ZM11.05 15.5835C11.2931 15.5835 11.5262 15.6801 11.6981 15.852C11.8701 16.0239 11.9666 16.257 11.9666 16.5002C11.9666 16.7433 11.8701 16.9764 11.6981 17.1483C11.5262 17.3203 11.2931 17.4168 11.05 17.4168C10.8069 17.4168 10.5737 17.3203 10.4018 17.1483C10.2299 16.9764 10.1333 16.7433 10.1333 16.5002C10.1333 16.257 10.2299 16.0239 10.4018 15.852C10.5737 15.6801 10.8069 15.5835 11.05 15.5835Z" fill="#262626"/>
</svg>
