<svg width="23" height="22" viewBox="0 0 23 22" fill="none" xmlns="http://www.w3.org/2000/svg">
<path fill-rule="evenodd" clip-rule="evenodd" d="M9.54655 5.5V7.33333H4.96322V17.4167H15.0465V12.8333H16.8799V18.3333C16.8799 18.5764 16.7833 18.8096 16.6114 18.9815C16.4395 19.1534 16.2063 19.25 15.9632 19.25H4.04655C3.80343 19.25 3.57028 19.1534 3.39837 18.9815C3.22646 18.8096 3.12988 18.5764 3.12988 18.3333V6.41667C3.12988 6.17355 3.22646 5.94039 3.39837 5.76849C3.57028 5.59658 3.80343 5.5 4.04655 5.5H9.54655ZM19.6299 2.75V10.0833H17.7965V5.87858L10.653 13.0231L9.3568 11.7269L16.4995 4.58333H12.2965V2.75H19.6299Z" fill="#262626"/>
</svg>
